<?xml version="1.0" standalone="no"?>
 <!DOCTYPE svg PUBLIC "-//W3C//DTD SVG 1.1//EN" 
 "http://www.w3.org/Graphics/SVG/1.1/DTD/svg11.dtd"> 
<svg
  xmlns:svg="http://www.w3.org/2000/svg"
  xmlns="http://www.w3.org/2000/svg"
  xmlns:xlink="http://www.w3.org/1999/xlink"
  version="1.1"
  width="29.700220cm" height="21.000720cm" viewBox="0 0 116930 82680">
<title>SVG Picture created as sprayGun_PCB-Power Regulation.svg date 2022/04/21 10:00:03 </title>
  <desc>Picture generated by Eeschema-SVG </desc>
<g style="fill:#000000; fill-opacity:1.000000;stroke:#000000; stroke-opacity:1.000000;
stroke-linecap:round; stroke-linejoin:round;"
 transform="translate(0 0) scale(1 1)">
</g>
<g style="fill:#000000; fill-opacity:0.0; 
stroke:#000000; stroke-width:60.000000; stroke-opacity:1; 
stroke-linecap:round; stroke-linejoin:round;">
<g >
</g>
<g style="fill:#840000; fill-opacity:0.0; 
stroke:#840000; stroke-width:60.000000; stroke-opacity:1; 
stroke-linecap:round; stroke-linejoin:round;">
</g>
<g style="fill:#840000; fill-opacity:0.0; 
stroke:#840000; stroke-width:200.000000; stroke-opacity:1; 
stroke-linecap:round; stroke-linejoin:round;">
<path style="fill:#840000; fill-opacity:0.0; 
stroke:#840000; stroke-width:200.000000; stroke-opacity:1; 
stroke-linecap:round; stroke-linejoin:round;fill:none"
d="M 55200.000000,38300.000000
56800.000000,38300.000000
" /> 
<path style="fill:#840000; fill-opacity:0.0; 
stroke:#840000; stroke-width:200.000000; stroke-opacity:1; 
stroke-linecap:round; stroke-linejoin:round;fill:none"
d="M 55200.000000,37700.000000
56800.000000,37700.000000
" /> 
</g>
<g style="fill:#840000; fill-opacity:0.0; 
stroke:#840000; stroke-width:60.000000; stroke-opacity:1; 
stroke-linecap:round; stroke-linejoin:round;">
<path d="M56000 37600
L56000 36500
" />
<path d="M56000 38400
L56000 39500
" />
</g>
<g style="fill:#006464; fill-opacity:0.0; 
stroke:#006464; stroke-width:60.000000; stroke-opacity:1; 
stroke-linecap:round; stroke-linejoin:round;">
<text x="57495.551181" y="37749.960630"
textLength="991.102362" font-size="666.653543" lengthAdjust="spacingAndGlyphs"
text-anchor="middle" opacity="0">C?</text>
<g class="stroked-text"><desc>C?</desc>
<path d="M57436 37678
L57412 37702
L57340 37726
L57293 37726
L57221 37702
L57174 37654
L57150 37607
L57126 37511
L57126 37440
L57150 37345
L57174 37297
L57221 37249
L57293 37226
L57340 37226
L57412 37249
L57436 37273
" />
<path d="M57721 37678
L57745 37702
L57721 37726
L57697 37702
L57721 37678
L57721 37726
" />
<path d="M57626 37249
L57674 37226
L57793 37226
L57840 37249
L57864 37297
L57864 37345
L57840 37392
L57816 37416
L57769 37440
L57745 37464
L57721 37511
L57721 37535
" />
</g><text x="58066.968504" y="38749.960630"
textLength="2131.417323" font-size="666.653543" lengthAdjust="spacingAndGlyphs"
text-anchor="middle" opacity="0">0.1uF</text>
<g class="stroked-text"><desc>0.1uF</desc>
<path d="M57245 38226
L57293 38226
L57340 38249
L57364 38273
L57388 38321
L57412 38416
L57412 38535
L57388 38630
L57364 38678
L57340 38702
L57293 38726
L57245 38726
L57197 38702
L57174 38678
L57150 38630
L57126 38535
L57126 38416
L57150 38321
L57174 38273
L57197 38249
L57245 38226
" />
<path d="M57626 38678
L57650 38702
L57626 38726
L57602 38702
L57626 38678
L57626 38726
" />
<path d="M58126 38726
L57840 38726
" />
<path d="M57983 38726
L57983 38226
L57935 38297
L57888 38345
L57840 38368
" />
<path d="M58555 38392
L58555 38726
" />
<path d="M58340 38392
L58340 38654
L58364 38702
L58412 38726
L58483 38726
L58531 38702
L58555 38678
" />
<path d="M58959 38464
L58793 38464
" />
<path d="M58793 38726
L58793 38226
L59031 38226
" />
</g></g>
</g>
<g style="fill:#006464; fill-opacity:0.0; 
stroke:#006464; stroke-width:60.000000; stroke-opacity:1; 
stroke-linecap:round; stroke-linejoin:round;">
<g >
</g>
<g style="fill:#840000; fill-opacity:0.0; 
stroke:#840000; stroke-width:60.000000; stroke-opacity:1; 
stroke-linecap:round; stroke-linejoin:round;">
<path style="fill:#840000; fill-opacity:0.0; 
stroke:#840000; stroke-width:60.000000; stroke-opacity:1; 
stroke-linecap:round; stroke-linejoin:round;fill:none"
d="M 47000.000000,36500.000000
47000.000000,36000.000000
46600.000000,35750.000000
47000.000000,35500.000000
47400.000000,35750.000000
47000.000000,36000.000000
" /> 
<path d="M47000 36500
L47000 36500
" />
</g>
<g style="fill:#006464; fill-opacity:0.0; 
stroke:#006464; stroke-width:60.000000; stroke-opacity:1; 
stroke-linecap:round; stroke-linejoin:round;">
<text x="47000.000000" y="34749.960630"
textLength="3774.291339" font-size="666.653543" lengthAdjust="spacingAndGlyphs"
text-anchor="middle" opacity="0">PWR_FLAG</text>
<g class="stroked-text"><desc>PWR_FLAG</desc>
<path d="M45261 34726
L45261 34226
L45452 34226
L45500 34249
L45523 34273
L45547 34321
L45547 34392
L45523 34440
L45500 34464
L45452 34488
L45261 34488
" />
<path d="M45714 34226
L45833 34726
L45928 34368
L46023 34726
L46142 34226
" />
<path d="M46619 34726
L46452 34488
" />
<path d="M46333 34726
L46333 34226
L46523 34226
L46571 34249
L46595 34273
L46619 34321
L46619 34392
L46595 34440
L46571 34464
L46523 34488
L46333 34488
" />
<path d="M46714 34773
L47095 34773
" />
<path d="M47380 34464
L47214 34464
" />
<path d="M47214 34726
L47214 34226
L47452 34226
" />
<path d="M47880 34726
L47642 34726
L47642 34226
" />
<path d="M48023 34583
L48261 34583
" />
<path d="M47976 34726
L48142 34226
L48309 34726
" />
<path d="M48738 34249
L48690 34226
L48619 34226
L48547 34249
L48500 34297
L48476 34345
L48452 34440
L48452 34511
L48476 34607
L48500 34654
L48547 34702
L48619 34726
L48666 34726
L48738 34702
L48761 34678
L48761 34511
L48666 34511
" />
</g></g>
</g>
<g style="fill:#006464; fill-opacity:0.0; 
stroke:#006464; stroke-width:60.000000; stroke-opacity:1; 
stroke-linecap:round; stroke-linejoin:round;">
<g >
</g>
<g style="fill:#840000; fill-opacity:0.0; 
stroke:#840000; stroke-width:60.000000; stroke-opacity:1; 
stroke-linecap:round; stroke-linejoin:round;">
</g>
<g style="fill:#840000; fill-opacity:0.0; 
stroke:#840000; stroke-width:200.000000; stroke-opacity:1; 
stroke-linecap:round; stroke-linejoin:round;">
<path style="fill:#840000; fill-opacity:0.0; 
stroke:#840000; stroke-width:200.000000; stroke-opacity:1; 
stroke-linecap:round; stroke-linejoin:round;fill:none"
d="M 44700.000000,38300.000000
46300.000000,38300.000000
" /> 
<path style="fill:#840000; fill-opacity:0.0; 
stroke:#840000; stroke-width:200.000000; stroke-opacity:1; 
stroke-linecap:round; stroke-linejoin:round;fill:none"
d="M 44700.000000,37700.000000
46300.000000,37700.000000
" /> 
</g>
<g style="fill:#840000; fill-opacity:0.0; 
stroke:#840000; stroke-width:60.000000; stroke-opacity:1; 
stroke-linecap:round; stroke-linejoin:round;">
<path d="M45500 37600
L45500 36500
" />
<path d="M45500 38400
L45500 39500
" />
</g>
<g style="fill:#006464; fill-opacity:0.0; 
stroke:#006464; stroke-width:60.000000; stroke-opacity:1; 
stroke-linecap:round; stroke-linejoin:round;">
<text x="46995.551181" y="37749.960630"
textLength="988.582677" font-size="666.653543" lengthAdjust="spacingAndGlyphs"
text-anchor="middle" opacity="0">C?</text>
<g class="stroked-text"><desc>C?</desc>
<path d="M46936 37678
L46912 37702
L46840 37726
L46793 37726
L46721 37702
L46674 37654
L46650 37607
L46626 37511
L46626 37440
L46650 37345
L46674 37297
L46721 37249
L46793 37226
L46840 37226
L46912 37249
L46936 37273
" />
<path d="M47221 37678
L47245 37702
L47221 37726
L47197 37702
L47221 37678
L47221 37726
" />
<path d="M47126 37249
L47174 37226
L47293 37226
L47340 37249
L47364 37297
L47364 37345
L47340 37392
L47316 37416
L47269 37440
L47245 37464
L47221 37511
L47221 37535
" />
</g><text x="47447.913386" y="38749.960630"
textLength="1893.346457" font-size="666.653543" lengthAdjust="spacingAndGlyphs"
text-anchor="middle" opacity="0">33uF</text>
<g class="stroked-text"><desc>33uF</desc>
<path d="M46602 38226
L46912 38226
L46745 38416
L46816 38416
L46864 38440
L46888 38464
L46912 38511
L46912 38630
L46888 38678
L46864 38702
L46816 38726
L46674 38726
L46626 38702
L46602 38678
" />
<path d="M47078 38226
L47388 38226
L47221 38416
L47293 38416
L47340 38440
L47364 38464
L47388 38511
L47388 38630
L47364 38678
L47340 38702
L47293 38726
L47150 38726
L47102 38702
L47078 38678
" />
<path d="M47816 38392
L47816 38726
" />
<path d="M47602 38392
L47602 38654
L47626 38702
L47674 38726
L47745 38726
L47793 38702
L47816 38678
" />
<path d="M48221 38464
L48055 38464
" />
<path d="M48055 38726
L48055 38226
L48293 38226
" />
</g></g>
</g>
<g style="fill:#006464; fill-opacity:0.0; 
stroke:#006464; stroke-width:60.000000; stroke-opacity:1; 
stroke-linecap:round; stroke-linejoin:round;">
<g >
</g>
<g style="fill:#840000; fill-opacity:0.0; 
stroke:#840000; stroke-width:60.000000; stroke-opacity:1; 
stroke-linecap:round; stroke-linejoin:round;">
</g>
<g style="fill:#840000; fill-opacity:0.0; 
stroke:#840000; stroke-width:100.000000; stroke-opacity:1; 
stroke-linecap:round; stroke-linejoin:round;">
<rect x="61000.000000" y="40100.000000" width="2000.000000" height="800.000000" rx="0.000000" />
</g>
<g style="fill:#840000; fill-opacity:0.0; 
stroke:#840000; stroke-width:60.000000; stroke-opacity:1; 
stroke-linecap:round; stroke-linejoin:round;">
<path d="M61000 40500
L60500 40500
" />
<path d="M63000 40500
L63500 40500
" />
</g>
<g style="fill:#006464; fill-opacity:0.0; 
stroke:#006464; stroke-width:60.000000; stroke-opacity:1; 
stroke-linecap:round; stroke-linejoin:round;">
<text x="62000.000000" y="38250.000000"
textLength="988.582677" font-size="666.653543" lengthAdjust="spacingAndGlyphs"
text-anchor="middle" opacity="0">R?</text>
<g class="stroked-text"><desc>R?</desc>
<path d="M61940 38226
L61773 37988
" />
<path d="M61654 38226
L61654 37726
L61845 37726
L61892 37750
L61916 37773
L61940 37821
L61940 37892
L61916 37940
L61892 37964
L61845 37988
L61654 37988
" />
<path d="M62226 38178
L62250 38202
L62226 38226
L62202 38202
L62226 38178
L62226 38226
" />
<path d="M62130 37750
L62178 37726
L62297 37726
L62345 37750
L62369 37797
L62369 37845
L62345 37892
L62321 37916
L62273 37940
L62250 37964
L62226 38011
L62226 38035
" />
</g><text x="62000.000000" y="39250.000000"
textLength="940.944882" font-size="666.653543" lengthAdjust="spacingAndGlyphs"
text-anchor="middle" opacity="0">1k</text>
<g class="stroked-text"><desc>1k</desc>
<path d="M61940 39226
L61654 39226
" />
<path d="M61797 39226
L61797 38726
L61750 38797
L61702 38845
L61654 38869
" />
<path d="M62154 39226
L62154 38726
" />
<path d="M62202 39035
L62345 39226
" />
<path d="M62345 38892
L62154 39083
" />
</g></g>
</g>
<g style="fill:#006464; fill-opacity:0.0; 
stroke:#006464; stroke-width:60.000000; stroke-opacity:1; 
stroke-linecap:round; stroke-linejoin:round;">
<g >
</g>
<g style="fill:#840000; fill-opacity:0.0; 
stroke:#840000; stroke-width:60.000000; stroke-opacity:1; 
stroke-linecap:round; stroke-linejoin:round;">
<path style="fill:#840000; fill-opacity:0.0; 
stroke:#840000; stroke-width:60.000000; stroke-opacity:1; 
stroke-linecap:round; stroke-linejoin:round;fill:none"
d="M 60700.000000,36000.000000
61000.000000,35500.000000
" /> 
<path style="fill:#840000; fill-opacity:0.0; 
stroke:#840000; stroke-width:60.000000; stroke-opacity:1; 
stroke-linecap:round; stroke-linejoin:round;fill:none"
d="M 61000.000000,36500.000000
61000.000000,35500.000000
" /> 
<path style="fill:#840000; fill-opacity:0.0; 
stroke:#840000; stroke-width:60.000000; stroke-opacity:1; 
stroke-linecap:round; stroke-linejoin:round;fill:none"
d="M 61000.000000,35500.000000
61300.000000,36000.000000
" /> 
</g>
<g style="fill:#006464; fill-opacity:0.0; 
stroke:#006464; stroke-width:60.000000; stroke-opacity:1; 
stroke-linecap:round; stroke-linejoin:round;">
<text x="61000.000000" y="34749.960630"
textLength="1583.818898" font-size="666.653543" lengthAdjust="spacingAndGlyphs"
text-anchor="middle" opacity="0">+5V</text>
<g class="stroked-text"><desc>+5V</desc>
<path d="M60357 34535
L60738 34535
" />
<path d="M60547 34726
L60547 34345
" />
<path d="M61214 34226
L60976 34226
L60952 34464
L60976 34440
L61023 34416
L61142 34416
L61190 34440
L61214 34464
L61238 34511
L61238 34630
L61214 34678
L61190 34702
L61142 34726
L61023 34726
L60976 34702
L60952 34678
" />
<path d="M61380 34226
L61547 34726
L61714 34226
" />
</g></g>
</g>
<g style="fill:#006464; fill-opacity:0.0; 
stroke:#006464; stroke-width:60.000000; stroke-opacity:1; 
stroke-linecap:round; stroke-linejoin:round;">
<g >
</g>
<g style="fill:#840000; fill-opacity:0.0; 
stroke:#840000; stroke-width:60.000000; stroke-opacity:1; 
stroke-linecap:round; stroke-linejoin:round;">
</g>
<g style="fill:#840000; fill-opacity:0.0; 
stroke:#840000; stroke-width:100.000000; stroke-opacity:1; 
stroke-linecap:round; stroke-linejoin:round;">
<path style="fill:#840000; fill-opacity:0.0; 
stroke:#840000; stroke-width:100.000000; stroke-opacity:1; 
stroke-linecap:round; stroke-linejoin:round;fill:none"
d="M 66500.000000,40000.000000
66500.000000,41000.000000
" /> 
</g>
<g style="fill:#840000; fill-opacity:0.0; 
stroke:#840000; stroke-width:60.000000; stroke-opacity:1; 
stroke-linecap:round; stroke-linejoin:round;">
<path style="fill:#840000; fill-opacity:0.0; 
stroke:#840000; stroke-width:60.000000; stroke-opacity:1; 
stroke-linecap:round; stroke-linejoin:round;fill:none"
d="M 66500.000000,40500.000000
65500.000000,40500.000000
" /> 
</g>
<g style="fill:#840000; fill-opacity:0.0; 
stroke:#840000; stroke-width:100.000000; stroke-opacity:1; 
stroke-linecap:round; stroke-linejoin:round;">
<path style="fill:#840000; fill-opacity:0.0; 
stroke:#840000; stroke-width:100.000000; stroke-opacity:1; 
stroke-linecap:round; stroke-linejoin:round;fill:none"
d="M 65500.000000,40000.000000
65500.000000,41000.000000
66500.000000,40500.000000
Z" /> 
</g>
<g style="fill:#840000; fill-opacity:0.0; 
stroke:#840000; stroke-width:60.000000; stroke-opacity:1; 
stroke-linecap:round; stroke-linejoin:round;">
<path style="fill:#840000; fill-opacity:0.0; 
stroke:#840000; stroke-width:60.000000; stroke-opacity:1; 
stroke-linecap:round; stroke-linejoin:round;fill:none"
d="M 67200.000000,40200.000000
67800.000000,39600.000000
67500.000000,39600.000000
67800.000000,39600.000000
67800.000000,39900.000000
" /> 
<path style="fill:#840000; fill-opacity:0.0; 
stroke:#840000; stroke-width:60.000000; stroke-opacity:1; 
stroke-linecap:round; stroke-linejoin:round;fill:none"
d="M 66700.000000,40200.000000
67300.000000,39600.000000
67000.000000,39600.000000
67300.000000,39600.000000
67300.000000,39900.000000
" /> 
<path d="M66500 40500
L67500 40500
" />
<path d="M65500 40500
L64500 40500
" />
</g>
<g style="fill:#006464; fill-opacity:0.0; 
stroke:#006464; stroke-width:60.000000; stroke-opacity:1; 
stroke-linecap:round; stroke-linejoin:round;">
<text x="66625.000000" y="37750.000000"
textLength="988.582677" font-size="666.653543" lengthAdjust="spacingAndGlyphs"
text-anchor="middle" opacity="0">D?</text>
<g class="stroked-text"><desc>D?</desc>
<path d="M66279 37726
L66279 37226
L66398 37226
L66470 37250
L66517 37297
L66541 37345
L66565 37440
L66565 37511
L66541 37607
L66517 37654
L66470 37702
L66398 37726
L66279 37726
" />
<path d="M66851 37678
L66875 37702
L66851 37726
L66827 37702
L66851 37678
L66851 37726
" />
<path d="M66755 37250
L66803 37226
L66922 37226
L66970 37250
L66994 37297
L66994 37345
L66970 37392
L66946 37416
L66898 37440
L66875 37464
L66851 37511
L66851 37535
" />
</g><text x="66625.000000" y="38750.000000"
textLength="3369.527559" font-size="666.653543" lengthAdjust="spacingAndGlyphs"
text-anchor="middle" opacity="0">PWR LED</text>
<g class="stroked-text"><desc>PWR LED</desc>
<path d="M65089 38726
L65089 38226
L65279 38226
L65327 38250
L65351 38273
L65375 38321
L65375 38392
L65351 38440
L65327 38464
L65279 38488
L65089 38488
" />
<path d="M65541 38226
L65660 38726
L65755 38369
L65851 38726
L65970 38226
" />
<path d="M66446 38726
L66279 38488
" />
<path d="M66160 38726
L66160 38226
L66351 38226
L66398 38250
L66422 38273
L66446 38321
L66446 38392
L66422 38440
L66398 38464
L66351 38488
L66160 38488
" />
<path d="M67279 38726
L67041 38726
L67041 38226
" />
<path d="M67446 38464
L67613 38464
" />
<path d="M67684 38726
L67446 38726
L67446 38226
L67684 38226
" />
<path d="M67898 38726
L67898 38226
L68017 38226
L68089 38250
L68136 38297
L68160 38345
L68184 38440
L68184 38511
L68160 38607
L68136 38654
L68089 38702
L68017 38726
L67898 38726
" />
</g></g>
</g>
<g style="fill:#006464; fill-opacity:0.0; 
stroke:#006464; stroke-width:60.000000; stroke-opacity:1; 
stroke-linecap:round; stroke-linejoin:round;">
<g >
</g>
<g style="fill:#840000; fill-opacity:0.0; 
stroke:#840000; stroke-width:60.000000; stroke-opacity:1; 
stroke-linecap:round; stroke-linejoin:round;">
<path style="fill:#840000; fill-opacity:0.0; 
stroke:#840000; stroke-width:60.000000; stroke-opacity:1; 
stroke-linecap:round; stroke-linejoin:round;fill:none"
d="M 69000.000000,42000.000000
69000.000000,42500.000000
69500.000000,42500.000000
69000.000000,43000.000000
68500.000000,42500.000000
69000.000000,42500.000000
" /> 
</g>
<g style="fill:#006464; fill-opacity:0.0; 
stroke:#006464; stroke-width:60.000000; stroke-opacity:1; 
stroke-linecap:round; stroke-linejoin:round;">
<text x="69000.000000" y="44249.960630"
textLength="1583.818898" font-size="666.653543" lengthAdjust="spacingAndGlyphs"
text-anchor="middle" opacity="0">GND</text>
<g class="stroked-text"><desc>GND</desc>
<path d="M68619 43749
L68571 43726
L68500 43726
L68428 43749
L68380 43797
L68357 43845
L68333 43940
L68333 44011
L68357 44107
L68380 44154
L68428 44202
L68500 44226
L68547 44226
L68619 44202
L68642 44178
L68642 44011
L68547 44011
" />
<path d="M68857 44226
L68857 43726
L69142 44226
L69142 43726
" />
<path d="M69380 44226
L69380 43726
L69500 43726
L69571 43749
L69619 43797
L69642 43845
L69666 43940
L69666 44011
L69642 44107
L69619 44154
L69571 44202
L69500 44226
L69380 44226
" />
</g></g>
</g>
<g style="fill:#006464; fill-opacity:0.0; 
stroke:#006464; stroke-width:60.000000; stroke-opacity:1; 
stroke-linecap:round; stroke-linejoin:round;">
<g >
</g>
<g style="fill:#840000; fill-opacity:0.0; 
stroke:#840000; stroke-width:60.000000; stroke-opacity:1; 
stroke-linecap:round; stroke-linejoin:round;">
</g>
<g style="fill:#FFFFC2; fill-opacity:0.0; 
stroke:#FFFFC2; stroke-width:60.000000; stroke-opacity:1; 
stroke-linecap:round; stroke-linejoin:round;">
</g>
<g style="fill:#FFFFC2; fill-opacity:0.6; 
stroke:#FFFFC2; stroke-width:0.039370; stroke-opacity:1; 
stroke-linecap:round; stroke-linejoin:round;">
<rect x="49000.000000" y="35500.000000" width="4000.000000" height="3000.000000" rx="0.000000" />
</g>
<g style="fill:#840000; fill-opacity:0.6; 
stroke:#840000; stroke-width:0.039370; stroke-opacity:1; 
stroke-linecap:round; stroke-linejoin:round;">
</g>
<g style="fill:#840000; fill-opacity:0.0; 
stroke:#840000; stroke-width:160.000000; stroke-opacity:1; 
stroke-linecap:round; stroke-linejoin:round;">
<rect x="49000.000000" y="35500.000000" width="4000.000000" height="3000.000000" rx="0.000000" />
<rect x="49000.000000" y="35500.000000" width="4000.000000" height="3000.000000" rx="0.000000" />
</g>
<g style="fill:#840000; fill-opacity:0.0; 
stroke:#840000; stroke-width:75.000000; stroke-opacity:1; 
stroke-linecap:round; stroke-linejoin:round;">
<text x="51151.771654" y="38017.007874"
textLength="1888.582677" font-size="800.000000" lengthAdjust="spacingAndGlyphs"
text-anchor="middle" opacity="0">GND</text>
<g class="stroked-text"><desc>GND</desc>
<path d="M50694 37417
L50637 37388
L50551 37388
L50466 37417
L50408 37474
L50380 37531
L50351 37645
L50351 37731
L50380 37845
L50408 37902
L50466 37959
L50551 37988
L50608 37988
L50694 37959
L50723 37931
L50723 37731
L50608 37731
" />
<path d="M50980 37988
L50980 37388
L51323 37988
L51323 37388
" />
<path d="M51608 37988
L51608 37388
L51751 37388
L51837 37417
L51894 37474
L51923 37531
L51951 37645
L51951 37731
L51923 37845
L51894 37902
L51837 37959
L51751 37988
L51608 37988
" />
</g><text x="49744.645669" y="36567.007874"
textLength="989.291339" font-size="800.000000" lengthAdjust="spacingAndGlyphs"
text-anchor="middle" opacity="0">IN</text>
<g class="stroked-text"><desc>IN</desc>
<path d="M49430 36538
L49430 35938
" />
<path d="M49716 36538
L49716 35938
L50058 36538
L50058 35938
" />
</g><text x="51944.645669" y="36567.007874"
textLength="1789.291339" font-size="800.000000" lengthAdjust="spacingAndGlyphs"
text-anchor="middle" opacity="0">OUT</text>
<g class="stroked-text"><desc>OUT</desc>
<path d="M51344 35938
L51458 35938
L51516 35967
L51573 36024
L51601 36138
L51601 36338
L51573 36452
L51516 36509
L51458 36538
L51344 36538
L51287 36509
L51230 36452
L51201 36338
L51201 36138
L51230 36024
L51287 35967
L51344 35938
" />
<path d="M51858 35938
L51858 36424
L51887 36481
L51916 36509
L51973 36538
L52087 36538
L52144 36509
L52173 36481
L52201 36424
L52201 35938
" />
<path d="M52401 35938
L52744 35938
" />
<path d="M52573 36538
L52573 35938
" />
</g></g>
<g style="fill:#840000; fill-opacity:0.0; 
stroke:#840000; stroke-width:60.000000; stroke-opacity:1; 
stroke-linecap:round; stroke-linejoin:round;">
<path d="M49000 36500
L48000 36500
" />
<path d="M51000 38500
L51000 39500
" />
<path d="M53000 36500
L54000 36500
" />
</g>
<g style="fill:#006464; fill-opacity:0.0; 
stroke:#006464; stroke-width:60.000000; stroke-opacity:1; 
stroke-linecap:round; stroke-linejoin:round;">
<text x="51500.000000" y="33749.960630"
textLength="1241.653543" font-size="666.653543" lengthAdjust="spacingAndGlyphs"
text-anchor="middle" opacity="0">IC?</text>
<g class="stroked-text"><desc>IC?</desc>
<path d="M51035 33726
L51035 33226
" />
<path d="M51559 33678
L51535 33702
L51464 33726
L51416 33726
L51345 33702
L51297 33654
L51273 33607
L51250 33511
L51250 33440
L51273 33345
L51297 33297
L51345 33249
L51416 33226
L51464 33226
L51535 33249
L51559 33273
" />
<path d="M51845 33678
L51869 33702
L51845 33726
L51821 33702
L51845 33678
L51845 33726
" />
<path d="M51750 33249
L51797 33226
L51916 33226
L51964 33249
L51988 33297
L51988 33345
L51964 33392
L51940 33416
L51892 33440
L51869 33464
L51845 33511
L51845 33535
" />
</g><text x="51500.000000" y="34749.960630"
textLength="3774.291339" font-size="666.653543" lengthAdjust="spacingAndGlyphs"
text-anchor="middle" opacity="0">L78S05CV</text>
<g class="stroked-text"><desc>L78S05CV</desc>
<path d="M50000 34726
L49761 34726
L49761 34226
" />
<path d="M50119 34226
L50452 34226
L50238 34726
" />
<path d="M50714 34440
L50666 34416
L50642 34392
L50619 34345
L50619 34321
L50642 34273
L50666 34249
L50714 34226
L50809 34226
L50857 34249
L50880 34273
L50904 34321
L50904 34345
L50880 34392
L50857 34416
L50809 34440
L50714 34440
L50666 34464
L50642 34488
L50619 34535
L50619 34630
L50642 34678
L50666 34702
L50714 34726
L50809 34726
L50857 34702
L50880 34678
L50904 34630
L50904 34535
L50880 34488
L50857 34464
L50809 34440
" />
<path d="M51095 34702
L51166 34726
L51285 34726
L51333 34702
L51357 34678
L51380 34630
L51380 34583
L51357 34535
L51333 34511
L51285 34488
L51190 34464
L51142 34440
L51119 34416
L51095 34368
L51095 34321
L51119 34273
L51142 34249
L51190 34226
L51309 34226
L51380 34249
" />
<path d="M51690 34226
L51738 34226
L51785 34249
L51809 34273
L51833 34321
L51857 34416
L51857 34535
L51833 34630
L51809 34678
L51785 34702
L51738 34726
L51690 34726
L51642 34702
L51619 34678
L51595 34630
L51571 34535
L51571 34416
L51595 34321
L51619 34273
L51642 34249
L51690 34226
" />
<path d="M52309 34226
L52071 34226
L52047 34464
L52071 34440
L52119 34416
L52238 34416
L52285 34440
L52309 34464
L52333 34511
L52333 34630
L52309 34678
L52285 34702
L52238 34726
L52119 34726
L52071 34702
L52047 34678
" />
<path d="M52833 34678
L52809 34702
L52738 34726
L52690 34726
L52619 34702
L52571 34654
L52547 34607
L52523 34511
L52523 34440
L52547 34345
L52571 34297
L52619 34249
L52690 34226
L52738 34226
L52809 34249
L52833 34273
" />
<path d="M52976 34226
L53142 34726
L53309 34226
" />
</g></g>
</g>
<g style="fill:#006464; fill-opacity:0.0; 
stroke:#006464; stroke-width:60.000000; stroke-opacity:1; 
stroke-linecap:round; stroke-linejoin:round;">
<g >
</g>
<g style="fill:#840000; fill-opacity:0.0; 
stroke:#840000; stroke-width:60.000000; stroke-opacity:1; 
stroke-linecap:round; stroke-linejoin:round;">
<path style="fill:#840000; fill-opacity:0.0; 
stroke:#840000; stroke-width:60.000000; stroke-opacity:1; 
stroke-linecap:round; stroke-linejoin:round;fill:none"
d="M 43700.000000,36000.000000
44000.000000,35500.000000
" /> 
<path style="fill:#840000; fill-opacity:0.0; 
stroke:#840000; stroke-width:60.000000; stroke-opacity:1; 
stroke-linecap:round; stroke-linejoin:round;fill:none"
d="M 44000.000000,36500.000000
44000.000000,35500.000000
" /> 
<path style="fill:#840000; fill-opacity:0.0; 
stroke:#840000; stroke-width:60.000000; stroke-opacity:1; 
stroke-linecap:round; stroke-linejoin:round;fill:none"
d="M 44000.000000,35500.000000
44300.000000,36000.000000
" /> 
</g>
<g style="fill:#006464; fill-opacity:0.0; 
stroke:#006464; stroke-width:60.000000; stroke-opacity:1; 
stroke-linecap:round; stroke-linejoin:round;">
<text x="43000.000000" y="34749.960630"
textLength="2060.000000" font-size="666.653543" lengthAdjust="spacingAndGlyphs"
text-anchor="middle" opacity="0">+15V</text>
<g class="stroked-text"><desc>+15V</desc>
<path d="M42119 34535
L42500 34535
" />
<path d="M42309 34726
L42309 34345
" />
<path d="M43000 34726
L42714 34726
" />
<path d="M42857 34726
L42857 34226
L42809 34297
L42761 34345
L42714 34368
" />
<path d="M43452 34226
L43214 34226
L43190 34464
L43214 34440
L43261 34416
L43380 34416
L43428 34440
L43452 34464
L43476 34511
L43476 34630
L43452 34678
L43428 34702
L43380 34726
L43261 34726
L43214 34702
L43190 34678
" />
<path d="M43619 34226
L43785 34726
L43952 34226
" />
</g></g>
</g>
<g style="fill:#006464; fill-opacity:0.0; 
stroke:#006464; stroke-width:60.000000; stroke-opacity:1; 
stroke-linecap:round; stroke-linejoin:round;">
<g >
</g>
<g style="fill:#840000; fill-opacity:0.0; 
stroke:#840000; stroke-width:60.000000; stroke-opacity:1; 
stroke-linecap:round; stroke-linejoin:round;">
<path style="fill:#840000; fill-opacity:0.0; 
stroke:#840000; stroke-width:60.000000; stroke-opacity:1; 
stroke-linecap:round; stroke-linejoin:round;fill:none"
d="M 51000.000000,41500.000000
51000.000000,42000.000000
51500.000000,42000.000000
51000.000000,42500.000000
50500.000000,42000.000000
51000.000000,42000.000000
" /> 
</g>
<g style="fill:#006464; fill-opacity:0.0; 
stroke:#006464; stroke-width:60.000000; stroke-opacity:1; 
stroke-linecap:round; stroke-linejoin:round;">
<text x="51000.000000" y="43749.960630"
textLength="1583.818898" font-size="666.653543" lengthAdjust="spacingAndGlyphs"
text-anchor="middle" opacity="0">GND</text>
<g class="stroked-text"><desc>GND</desc>
<path d="M50619 43249
L50571 43226
L50500 43226
L50428 43249
L50380 43297
L50357 43345
L50333 43440
L50333 43511
L50357 43607
L50380 43654
L50428 43702
L50500 43726
L50547 43726
L50619 43702
L50642 43678
L50642 43511
L50547 43511
" />
<path d="M50857 43726
L50857 43226
L51142 43726
L51142 43226
" />
<path d="M51380 43726
L51380 43226
L51500 43226
L51571 43249
L51619 43297
L51642 43345
L51666 43440
L51666 43511
L51642 43607
L51619 43654
L51571 43702
L51500 43726
L51380 43726
" />
</g></g>
</g>
<g style="fill:#006464; fill-opacity:0.0; 
stroke:#006464; stroke-width:60.000000; stroke-opacity:1; 
stroke-linecap:round; stroke-linejoin:round;">
<g >
</g>
<g style="fill:#840000; fill-opacity:0.0; 
stroke:#840000; stroke-width:60.000000; stroke-opacity:1; 
stroke-linecap:round; stroke-linejoin:round;">
<path style="fill:#840000; fill-opacity:0.0; 
stroke:#840000; stroke-width:60.000000; stroke-opacity:1; 
stroke-linecap:round; stroke-linejoin:round;fill:none"
d="M 57000.000000,36500.000000
57000.000000,36000.000000
56600.000000,35750.000000
57000.000000,35500.000000
57400.000000,35750.000000
57000.000000,36000.000000
" /> 
<path d="M57000 36500
L57000 36500
" />
</g>
<g style="fill:#006464; fill-opacity:0.0; 
stroke:#006464; stroke-width:60.000000; stroke-opacity:1; 
stroke-linecap:round; stroke-linejoin:round;">
<text x="57000.000000" y="34749.960630"
textLength="3774.291339" font-size="666.653543" lengthAdjust="spacingAndGlyphs"
text-anchor="middle" opacity="0">PWR_FLAG</text>
<g class="stroked-text"><desc>PWR_FLAG</desc>
<path d="M55261 34726
L55261 34226
L55452 34226
L55500 34249
L55523 34273
L55547 34321
L55547 34392
L55523 34440
L55500 34464
L55452 34488
L55261 34488
" />
<path d="M55714 34226
L55833 34726
L55928 34368
L56023 34726
L56142 34226
" />
<path d="M56619 34726
L56452 34488
" />
<path d="M56333 34726
L56333 34226
L56523 34226
L56571 34249
L56595 34273
L56619 34321
L56619 34392
L56595 34440
L56571 34464
L56523 34488
L56333 34488
" />
<path d="M56714 34773
L57095 34773
" />
<path d="M57380 34464
L57214 34464
" />
<path d="M57214 34726
L57214 34226
L57452 34226
" />
<path d="M57880 34726
L57642 34726
L57642 34226
" />
<path d="M58023 34583
L58261 34583
" />
<path d="M57976 34726
L58142 34226
L58309 34726
" />
<path d="M58738 34249
L58690 34226
L58619 34226
L58547 34249
L58500 34297
L58476 34345
L58452 34440
L58452 34511
L58476 34607
L58500 34654
L58547 34702
L58619 34726
L58666 34726
L58738 34702
L58761 34678
L58761 34511
L58666 34511
" />
</g></g>
</g>
<g style="fill:#006464; fill-opacity:0.0; 
stroke:#006464; stroke-width:60.000000; stroke-opacity:1; 
stroke-linecap:round; stroke-linejoin:round;">
<g >
</g>
<g style="fill:#840000; fill-opacity:0.0; 
stroke:#840000; stroke-width:60.000000; stroke-opacity:1; 
stroke-linecap:round; stroke-linejoin:round;">
<path style="fill:#840000; fill-opacity:0.0; 
stroke:#840000; stroke-width:60.000000; stroke-opacity:1; 
stroke-linecap:round; stroke-linejoin:round;fill:none"
d="M 55000.000000,40500.000000
55000.000000,41000.000000
55400.000000,41250.000000
55000.000000,41500.000000
54600.000000,41250.000000
55000.000000,41000.000000
" /> 
<path d="M55000 40500
L55000 40500
" />
</g>
<g style="fill:#006464; fill-opacity:0.0; 
stroke:#006464; stroke-width:60.000000; stroke-opacity:1; 
stroke-linecap:round; stroke-linejoin:round;">
<text x="54999.960630" y="42750.000000"
textLength="3774.291339" font-size="666.653543" lengthAdjust="spacingAndGlyphs"
text-anchor="middle" opacity="0">PWR_FLAG</text>
<g class="stroked-text"><desc>PWR_FLAG</desc>
<path d="M53261 42726
L53261 42226
L53452 42226
L53499 42250
L53523 42273
L53547 42321
L53547 42392
L53523 42440
L53499 42464
L53452 42488
L53261 42488
" />
<path d="M53714 42226
L53833 42726
L53928 42369
L54023 42726
L54142 42226
" />
<path d="M54618 42726
L54452 42488
" />
<path d="M54333 42726
L54333 42226
L54523 42226
L54571 42250
L54595 42273
L54618 42321
L54618 42392
L54595 42440
L54571 42464
L54523 42488
L54333 42488
" />
<path d="M54714 42773
L55095 42773
" />
<path d="M55380 42464
L55214 42464
" />
<path d="M55214 42726
L55214 42226
L55452 42226
" />
<path d="M55880 42726
L55642 42726
L55642 42226
" />
<path d="M56023 42583
L56261 42583
" />
<path d="M55976 42726
L56142 42226
L56309 42726
" />
<path d="M56738 42250
L56690 42226
L56618 42226
L56547 42250
L56499 42297
L56476 42345
L56452 42440
L56452 42511
L56476 42607
L56499 42654
L56547 42702
L56618 42726
L56666 42726
L56738 42702
L56761 42678
L56761 42511
L56666 42511
" />
</g></g>
</g>
<g style="fill:#006464; fill-opacity:0.0; 
stroke:#006464; stroke-width:100.000000; stroke-opacity:1; 
stroke-linecap:round; stroke-linejoin:round;">
</g>
<g style="fill:#0000C2; fill-opacity:0.0; 
stroke:#0000C2; stroke-width:100.000000; stroke-opacity:1; 
stroke-linecap:round; stroke-linejoin:round;">
<text x="42000.000000" y="32325.000000"
textLength="6631.417323" font-size="666.653543" lengthAdjust="spacingAndGlyphs"
text-anchor="start" opacity="0">Power Regulation</text>
<g class="stroked-text"><desc>Power Regulation</desc>
<path d="M42184 32301
L42184 31801
L42374 31801
L42422 31825
L42445 31848
L42469 31896
L42469 31967
L42445 32015
L42422 32039
L42374 32063
L42184 32063
" />
<path d="M42755 32301
L42707 32277
L42684 32253
L42660 32205
L42660 32063
L42684 32015
L42707 31991
L42755 31967
L42826 31967
L42874 31991
L42898 32015
L42922 32063
L42922 32205
L42898 32253
L42874 32277
L42826 32301
L42755 32301
" />
<path d="M43088 31967
L43184 32301
L43279 32063
L43374 32301
L43469 31967
" />
<path d="M43850 32277
L43803 32301
L43707 32301
L43660 32277
L43636 32229
L43636 32039
L43660 31991
L43707 31967
L43803 31967
L43850 31991
L43874 32039
L43874 32086
L43636 32134
" />
<path d="M44088 32301
L44088 31967
" />
<path d="M44088 32063
L44112 32015
L44136 31991
L44184 31967
L44231 31967
" />
<path d="M45065 32301
L44898 32063
" />
<path d="M44779 32301
L44779 31801
L44969 31801
L45017 31825
L45041 31848
L45065 31896
L45065 31967
L45041 32015
L45017 32039
L44969 32063
L44779 32063
" />
<path d="M45469 32277
L45422 32301
L45326 32301
L45279 32277
L45255 32229
L45255 32039
L45279 31991
L45326 31967
L45422 31967
L45469 31991
L45493 32039
L45493 32086
L45255 32134
" />
<path d="M45922 31967
L45922 32372
L45898 32420
L45874 32444
L45826 32467
L45755 32467
L45707 32444
" />
<path d="M45922 32277
L45874 32301
L45779 32301
L45731 32277
L45707 32253
L45684 32205
L45684 32063
L45707 32015
L45731 31991
L45779 31967
L45874 31967
L45922 31991
" />
<path d="M46374 31967
L46374 32301
" />
<path d="M46160 31967
L46160 32229
L46184 32277
L46231 32301
L46303 32301
L46350 32277
L46374 32253
" />
<path d="M46684 32301
L46636 32277
L46612 32229
L46612 31801
" />
<path d="M47088 32301
L47088 32039
L47065 31991
L47017 31967
L46922 31967
L46874 31991
" />
<path d="M47088 32277
L47041 32301
L46922 32301
L46874 32277
L46850 32229
L46850 32182
L46874 32134
L46922 32110
L47041 32110
L47088 32086
" />
<path d="M47255 31967
L47445 31967
" />
<path d="M47326 31801
L47326 32229
L47350 32277
L47398 32301
L47445 32301
" />
<path d="M47612 32301
L47612 31967
" />
<path d="M47612 31801
L47588 31825
L47612 31848
L47636 31825
L47612 31801
L47612 31848
" />
<path d="M47922 32301
L47874 32277
L47850 32253
L47826 32205
L47826 32063
L47850 32015
L47874 31991
L47922 31967
L47993 31967
L48041 31991
L48065 32015
L48088 32063
L48088 32205
L48065 32253
L48041 32277
L47993 32301
L47922 32301
" />
<path d="M48303 31967
L48303 32301
" />
<path d="M48303 32015
L48326 31991
L48374 31967
L48445 31967
L48493 31991
L48517 32039
L48517 32301
" />
</g></g>
<g style="fill:#0000C2; fill-opacity:0.0; 
stroke:#0000C2; stroke-width:62.519685; stroke-opacity:1; 
stroke-linecap:round; stroke-linejoin:round;">
</g>
<g style="fill:#0000C2; fill-opacity:0.0; 
stroke:#0000C2; stroke-width:60.000000; stroke-opacity:1; 
stroke-linecap:round; stroke-linejoin:round;">
<text x="42000.000000" y="45057.480315"
textLength="12439.527559" font-size="666.653543" lengthAdjust="spacingAndGlyphs"
text-anchor="start" opacity="0">+5V supplies 5V to Arduino Vin,</text>
<g class="stroked-text"><desc>+5V supplies 5V to Arduino Vin,</desc>
<path d="M42149 44843
L42530 44843
" />
<path d="M42339 45033
L42339 44652
" />
<path d="M43006 44533
L42768 44533
L42744 44771
L42768 44747
L42815 44724
L42934 44724
L42982 44747
L43006 44771
L43030 44819
L43030 44938
L43006 44986
L42982 45009
L42934 45033
L42815 45033
L42768 45009
L42744 44986
" />
<path d="M43172 44533
L43339 45033
L43506 44533
" />
<path d="M44030 45009
L44077 45033
L44172 45033
L44220 45009
L44244 44962
L44244 44938
L44220 44890
L44172 44866
L44101 44866
L44053 44843
L44030 44795
L44030 44771
L44053 44724
L44101 44700
L44172 44700
L44220 44724
" />
<path d="M44672 44700
L44672 45033
" />
<path d="M44458 44700
L44458 44962
L44482 45009
L44530 45033
L44601 45033
L44649 45009
L44672 44986
" />
<path d="M44910 44700
L44910 45200
" />
<path d="M44910 44724
L44958 44700
L45053 44700
L45101 44724
L45125 44747
L45149 44795
L45149 44938
L45125 44986
L45101 45009
L45053 45033
L44958 45033
L44910 45009
" />
<path d="M45363 44700
L45363 45200
" />
<path d="M45363 44724
L45410 44700
L45506 44700
L45553 44724
L45577 44747
L45601 44795
L45601 44938
L45577 44986
L45553 45009
L45506 45033
L45410 45033
L45363 45009
" />
<path d="M45887 45033
L45839 45009
L45815 44962
L45815 44533
" />
<path d="M46077 45033
L46077 44700
" />
<path d="M46077 44533
L46053 44557
L46077 44581
L46101 44557
L46077 44533
L46077 44581
" />
<path d="M46506 45009
L46458 45033
L46363 45033
L46315 45009
L46291 44962
L46291 44771
L46315 44724
L46363 44700
L46458 44700
L46506 44724
L46530 44771
L46530 44819
L46291 44866
" />
<path d="M46720 45009
L46768 45033
L46863 45033
L46910 45009
L46934 44962
L46934 44938
L46910 44890
L46863 44866
L46791 44866
L46744 44843
L46720 44795
L46720 44771
L46744 44724
L46791 44700
L46863 44700
L46910 44724
" />
<path d="M47768 44533
L47530 44533
L47506 44771
L47530 44747
L47577 44724
L47696 44724
L47744 44747
L47768 44771
L47791 44819
L47791 44938
L47768 44986
L47744 45009
L47696 45033
L47577 45033
L47530 45009
L47506 44986
" />
<path d="M47934 44533
L48101 45033
L48268 44533
" />
<path d="M48744 44700
L48934 44700
" />
<path d="M48815 44533
L48815 44962
L48839 45009
L48887 45033
L48934 45033
" />
<path d="M49172 45033
L49125 45009
L49101 44986
L49077 44938
L49077 44795
L49101 44747
L49125 44724
L49172 44700
L49244 44700
L49291 44724
L49315 44747
L49339 44795
L49339 44938
L49315 44986
L49291 45009
L49244 45033
L49172 45033
" />
<path d="M49910 44890
L50149 44890
" />
<path d="M49863 45033
L50030 44533
L50196 45033
" />
<path d="M50363 45033
L50363 44700
" />
<path d="M50363 44795
L50387 44747
L50410 44724
L50458 44700
L50506 44700
" />
<path d="M50887 45033
L50887 44533
" />
<path d="M50887 45009
L50839 45033
L50744 45033
L50696 45009
L50672 44986
L50649 44938
L50649 44795
L50672 44747
L50696 44724
L50744 44700
L50839 44700
L50887 44724
" />
<path d="M51339 44700
L51339 45033
" />
<path d="M51125 44700
L51125 44962
L51149 45009
L51196 45033
L51268 45033
L51315 45009
L51339 44986
" />
<path d="M51577 45033
L51577 44700
" />
<path d="M51577 44533
L51553 44557
L51577 44581
L51601 44557
L51577 44533
L51577 44581
" />
<path d="M51815 44700
L51815 45033
" />
<path d="M51815 44747
L51839 44724
L51887 44700
L51958 44700
L52006 44724
L52030 44771
L52030 45033
" />
<path d="M52339 45033
L52291 45009
L52268 44986
L52244 44938
L52244 44795
L52268 44747
L52291 44724
L52339 44700
L52410 44700
L52458 44724
L52482 44747
L52506 44795
L52506 44938
L52482 44986
L52458 45009
L52410 45033
L52339 45033
" />
<path d="M53030 44533
L53196 45033
L53363 44533
" />
<path d="M53530 45033
L53530 44700
" />
<path d="M53530 44533
L53506 44557
L53530 44581
L53553 44557
L53530 44533
L53530 44581
" />
<path d="M53768 44700
L53768 45033
" />
<path d="M53768 44747
L53791 44724
L53839 44700
L53910 44700
L53958 44724
L53982 44771
L53982 45033
" />
<path d="M54244 45009
L54244 45033
L54220 45081
L54196 45105
" />
</g><text x="42000.000000" y="45862.480315"
textLength="20631.417323" font-size="666.653543" lengthAdjust="spacingAndGlyphs"
text-anchor="start" opacity="0">and Arduino supplies +5VA to all IC's and breakouts.</text>
<g class="stroked-text"><desc>and Arduino supplies +5VA to all IC's and breakouts.</desc>
<path d="M42363 45838
L42363 45576
L42339 45529
L42291 45505
L42196 45505
L42149 45529
" />
<path d="M42363 45814
L42315 45838
L42196 45838
L42149 45814
L42125 45767
L42125 45719
L42149 45671
L42196 45648
L42315 45648
L42363 45624
" />
<path d="M42601 45505
L42601 45838
" />
<path d="M42601 45552
L42625 45529
L42672 45505
L42744 45505
L42791 45529
L42815 45576
L42815 45838
" />
<path d="M43268 45838
L43268 45338
" />
<path d="M43268 45814
L43220 45838
L43125 45838
L43077 45814
L43053 45791
L43030 45743
L43030 45600
L43053 45552
L43077 45529
L43125 45505
L43220 45505
L43268 45529
" />
<path d="M43863 45695
L44101 45695
" />
<path d="M43815 45838
L43982 45338
L44149 45838
" />
<path d="M44315 45838
L44315 45505
" />
<path d="M44315 45600
L44339 45552
L44363 45529
L44410 45505
L44458 45505
" />
<path d="M44839 45838
L44839 45338
" />
<path d="M44839 45814
L44791 45838
L44696 45838
L44649 45814
L44625 45791
L44601 45743
L44601 45600
L44625 45552
L44649 45529
L44696 45505
L44791 45505
L44839 45529
" />
<path d="M45291 45505
L45291 45838
" />
<path d="M45077 45505
L45077 45767
L45101 45814
L45149 45838
L45220 45838
L45268 45814
L45291 45791
" />
<path d="M45530 45838
L45530 45505
" />
<path d="M45530 45338
L45506 45362
L45530 45386
L45553 45362
L45530 45338
L45530 45386
" />
<path d="M45768 45505
L45768 45838
" />
<path d="M45768 45552
L45791 45529
L45839 45505
L45910 45505
L45958 45529
L45982 45576
L45982 45838
" />
<path d="M46291 45838
L46244 45814
L46220 45791
L46196 45743
L46196 45600
L46220 45552
L46244 45529
L46291 45505
L46363 45505
L46410 45529
L46434 45552
L46458 45600
L46458 45743
L46434 45791
L46410 45814
L46363 45838
L46291 45838
" />
<path d="M47030 45814
L47077 45838
L47172 45838
L47220 45814
L47244 45767
L47244 45743
L47220 45695
L47172 45671
L47101 45671
L47053 45648
L47030 45600
L47030 45576
L47053 45529
L47101 45505
L47172 45505
L47220 45529
" />
<path d="M47672 45505
L47672 45838
" />
<path d="M47458 45505
L47458 45767
L47482 45814
L47530 45838
L47601 45838
L47649 45814
L47672 45791
" />
<path d="M47910 45505
L47910 46005
" />
<path d="M47910 45529
L47958 45505
L48053 45505
L48101 45529
L48125 45552
L48149 45600
L48149 45743
L48125 45791
L48101 45814
L48053 45838
L47958 45838
L47910 45814
" />
<path d="M48363 45505
L48363 46005
" />
<path d="M48363 45529
L48410 45505
L48506 45505
L48553 45529
L48577 45552
L48601 45600
L48601 45743
L48577 45791
L48553 45814
L48506 45838
L48410 45838
L48363 45814
" />
<path d="M48887 45838
L48839 45814
L48815 45767
L48815 45338
" />
<path d="M49077 45838
L49077 45505
" />
<path d="M49077 45338
L49053 45362
L49077 45386
L49101 45362
L49077 45338
L49077 45386
" />
<path d="M49506 45814
L49458 45838
L49363 45838
L49315 45814
L49291 45767
L49291 45576
L49315 45529
L49363 45505
L49458 45505
L49506 45529
L49530 45576
L49530 45624
L49291 45671
" />
<path d="M49720 45814
L49768 45838
L49863 45838
L49910 45814
L49934 45767
L49934 45743
L49910 45695
L49863 45671
L49791 45671
L49744 45648
L49720 45600
L49720 45576
L49744 45529
L49791 45505
L49863 45505
L49910 45529
" />
<path d="M50530 45648
L50910 45648
" />
<path d="M50720 45838
L50720 45457
" />
<path d="M51387 45338
L51149 45338
L51125 45576
L51149 45552
L51196 45529
L51315 45529
L51363 45552
L51387 45576
L51410 45624
L51410 45743
L51387 45791
L51363 45814
L51315 45838
L51196 45838
L51149 45814
L51125 45791
" />
<path d="M51553 45338
L51720 45838
L51887 45338
" />
<path d="M52030 45695
L52268 45695
" />
<path d="M51982 45838
L52149 45338
L52315 45838
" />
<path d="M52791 45505
L52982 45505
" />
<path d="M52863 45338
L52863 45767
L52887 45814
L52934 45838
L52982 45838
" />
<path d="M53220 45838
L53172 45814
L53149 45791
L53125 45743
L53125 45600
L53149 45552
L53172 45529
L53220 45505
L53291 45505
L53339 45529
L53363 45552
L53387 45600
L53387 45743
L53363 45791
L53339 45814
L53291 45838
L53220 45838
" />
<path d="M54196 45838
L54196 45576
L54172 45529
L54125 45505
L54030 45505
L53982 45529
" />
<path d="M54196 45814
L54149 45838
L54030 45838
L53982 45814
L53958 45767
L53958 45719
L53982 45671
L54030 45648
L54149 45648
L54196 45624
" />
<path d="M54506 45838
L54458 45814
L54434 45767
L54434 45338
" />
<path d="M54768 45838
L54720 45814
L54696 45767
L54696 45338
" />
<path d="M55339 45838
L55339 45338
" />
<path d="M55863 45791
L55839 45814
L55768 45838
L55720 45838
L55649 45814
L55601 45767
L55577 45719
L55553 45624
L55553 45552
L55577 45457
L55601 45410
L55649 45362
L55720 45338
L55768 45338
L55839 45362
L55863 45386
" />
<path d="M56101 45338
L56053 45433
" />
<path d="M56291 45814
L56339 45838
L56434 45838
L56482 45814
L56506 45767
L56506 45743
L56482 45695
L56434 45671
L56363 45671
L56315 45648
L56291 45600
L56291 45576
L56315 45529
L56363 45505
L56434 45505
L56482 45529
" />
<path d="M57315 45838
L57315 45576
L57291 45529
L57244 45505
L57149 45505
L57101 45529
" />
<path d="M57315 45814
L57268 45838
L57149 45838
L57101 45814
L57077 45767
L57077 45719
L57101 45671
L57149 45648
L57268 45648
L57315 45624
" />
<path d="M57553 45505
L57553 45838
" />
<path d="M57553 45552
L57577 45529
L57625 45505
L57696 45505
L57744 45529
L57768 45576
L57768 45838
" />
<path d="M58220 45838
L58220 45338
" />
<path d="M58220 45814
L58172 45838
L58077 45838
L58030 45814
L58006 45791
L57982 45743
L57982 45600
L58006 45552
L58030 45529
L58077 45505
L58172 45505
L58220 45529
" />
<path d="M58839 45838
L58839 45338
" />
<path d="M58839 45529
L58887 45505
L58982 45505
L59030 45529
L59053 45552
L59077 45600
L59077 45743
L59053 45791
L59030 45814
L58982 45838
L58887 45838
L58839 45814
" />
<path d="M59291 45838
L59291 45505
" />
<path d="M59291 45600
L59315 45552
L59339 45529
L59387 45505
L59434 45505
" />
<path d="M59791 45814
L59744 45838
L59649 45838
L59601 45814
L59577 45767
L59577 45576
L59601 45529
L59649 45505
L59744 45505
L59791 45529
L59815 45576
L59815 45624
L59577 45671
" />
<path d="M60244 45838
L60244 45576
L60220 45529
L60172 45505
L60077 45505
L60030 45529
" />
<path d="M60244 45814
L60196 45838
L60077 45838
L60030 45814
L60006 45767
L60006 45719
L60030 45671
L60077 45648
L60196 45648
L60244 45624
" />
<path d="M60482 45838
L60482 45338
" />
<path d="M60530 45648
L60672 45838
" />
<path d="M60672 45505
L60482 45695
" />
<path d="M60958 45838
L60910 45814
L60887 45791
L60863 45743
L60863 45600
L60887 45552
L60910 45529
L60958 45505
L61030 45505
L61077 45529
L61101 45552
L61125 45600
L61125 45743
L61101 45791
L61077 45814
L61030 45838
L60958 45838
" />
<path d="M61553 45505
L61553 45838
" />
<path d="M61339 45505
L61339 45767
L61363 45814
L61410 45838
L61482 45838
L61530 45814
L61553 45791
" />
<path d="M61720 45505
L61910 45505
" />
<path d="M61791 45338
L61791 45767
L61815 45814
L61863 45838
L61910 45838
" />
<path d="M62053 45814
L62101 45838
L62196 45838
L62244 45814
L62268 45767
L62268 45743
L62244 45695
L62196 45671
L62125 45671
L62077 45648
L62053 45600
L62053 45576
L62077 45529
L62125 45505
L62196 45505
L62244 45529
" />
<path d="M62482 45791
L62506 45814
L62482 45838
L62458 45814
L62482 45791
L62482 45838
" />
</g></g>
<g style="fill:#0000C2; fill-opacity:0.0; 
stroke:#0000C2; stroke-width:60.000000; stroke-opacity:1; 
stroke-linecap:round; stroke-linejoin:round;stroke-dasharray:300.000000,300.000000;">
<path d="M70500 47000
L70500 31500
" />
</g>
<g style="fill:#0000C2; fill-opacity:0.0; 
stroke:#0000C2; stroke-width:60.000000; stroke-opacity:1; 
stroke-linecap:round; stroke-linejoin:round;">
</g>
<g style="fill:#0000C2; fill-opacity:0.0; 
stroke:#0000C2; stroke-width:60.000000; stroke-opacity:1; 
stroke-linecap:round; stroke-linejoin:round;stroke-dasharray:300.000000,300.000000;">
<path d="M41500 31500
L41500 47000
" />
</g>
<g style="fill:#0000C2; fill-opacity:0.0; 
stroke:#0000C2; stroke-width:60.000000; stroke-opacity:1; 
stroke-linecap:round; stroke-linejoin:round;">
</g>
<g style="fill:#0000C2; fill-opacity:0.0; 
stroke:#0000C2; stroke-width:60.000000; stroke-opacity:1; 
stroke-linecap:round; stroke-linejoin:round;stroke-dasharray:300.000000,300.000000;">
<path d="M41500 47000
L70500 47000
" />
</g>
<g style="fill:#0000C2; fill-opacity:0.0; 
stroke:#0000C2; stroke-width:60.000000; stroke-opacity:1; 
stroke-linecap:round; stroke-linejoin:round;">
</g>
<g style="fill:#0000C2; fill-opacity:0.0; 
stroke:#0000C2; stroke-width:60.000000; stroke-opacity:1; 
stroke-linecap:round; stroke-linejoin:round;stroke-dasharray:300.000000,300.000000;">
<path d="M41500 31500
L70500 31500
" />
</g>
<g style="fill:#0000C2; fill-opacity:0.0; 
stroke:#0000C2; stroke-width:60.000000; stroke-opacity:1; 
stroke-linecap:round; stroke-linejoin:round;">
</g>
<g style="fill:#009600; fill-opacity:0.0; 
stroke:#009600; stroke-width:60.000000; stroke-opacity:1; 
stroke-linecap:round; stroke-linejoin:round;">
<path d="M56000 36500
L57000 36500
" />
<path d="M44000 36500
L45500 36500
" />
<path d="M45500 36500
L47000 36500
" />
<path d="M57000 36500
L60000 36500
" />
<path d="M47000 36500
L48000 36500
" />
<path d="M63500 40500
L64500 40500
" />
<path d="M60500 40500
L60000 40500
" />
<path d="M60000 36500
L61000 36500
" />
<path d="M60000 36500
L60000 40500
" />
<path d="M45500 39500
L45500 40500
" />
<path d="M45500 40500
L51000 40500
" />
<path d="M51000 40500
L55000 40500
" />
<path d="M55000 40500
L56000 40500
" />
<path d="M51000 40500
L51000 41500
" />
<path d="M69000 42000
L69000 40500
" />
<path d="M69000 40500
L67500 40500
" />
<path d="M56000 40500
L56000 39500
" />
<path d="M51000 39500
L51000 40500
" />
<path d="M54000 36500
L56000 36500
" />
</g>
<g style="fill:#009600; fill-opacity:1.0; 
stroke:#009600; stroke-width:60.000000; stroke-opacity:1; 
stroke-linecap:round; stroke-linejoin:round;">
<circle cx="57000.000000" cy="36500.000000" r="180.000000" /> 
<circle cx="56000.000000" cy="36500.000000" r="180.000000" /> 
<circle cx="60000.000000" cy="36500.000000" r="180.000000" /> 
<circle cx="51000.000000" cy="40500.000000" r="180.000000" /> 
<circle cx="55000.000000" cy="40500.000000" r="180.000000" /> 
<circle cx="47000.000000" cy="36500.000000" r="180.000000" /> 
<circle cx="45500.000000" cy="36500.000000" r="180.000000" /> 
</g> 
</svg>
