<?xml version="1.0" standalone="no"?>
 <!DOCTYPE svg PUBLIC "-//W3C//DTD SVG 1.1//EN" 
 "http://www.w3.org/Graphics/SVG/1.1/DTD/svg11.dtd"> 
<svg
  xmlns:svg="http://www.w3.org/2000/svg"
  xmlns="http://www.w3.org/2000/svg"
  xmlns:xlink="http://www.w3.org/1999/xlink"
  version="1.1"
  width="29.700220cm" height="21.000720cm" viewBox="0 0 297002200 210007200">
<title>SVG Picture created as sprayGun_PCB-B_Silkscreen.svg date 2022/04/21 11:39:33 </title>
  <desc>Picture generated by PCBNEW </desc>
<g style="fill:#000000; fill-opacity:1.000000;stroke:#000000; stroke-opacity:1.000000;
stroke-linecap:round; stroke-linejoin:round;"
 transform="translate(0 0) scale(1 1)">
</g>
<g style="fill:#000000; fill-opacity:0.0; 
stroke:#000000; stroke-width:0.000000; stroke-opacity:1; 
stroke-linecap:round; stroke-linejoin:round;">
</g>
<g style="fill:#000000; fill-opacity:0.0; 
stroke:#000000; stroke-width:300000.000000; stroke-opacity:1; 
stroke-linecap:round; stroke-linejoin:round;">
<text x="121300000.000000" y="143950000.000000"
textLength="11766429.000000" font-size="2000000.000000" lengthAdjust="spacingAndGlyphs"
text-anchor="middle" opacity="0">JLCJLCJLC</text>
<g class="stroked-text"><desc>JLCJLCJLC</desc>
<path d="M116300000 142378571
L116300000 143450000
L116228571 143664285
L116085714 143807142
L115871428 143878571
L115728571 143878571
" />
<path d="M117728571 143878571
L117014285 143878571
L117014285 142378571
" />
<path d="M119085714 143735714
L119014285 143807142
L118800000 143878571
L118657142 143878571
L118442857 143807142
L118300000 143664285
L118228571 143521428
L118157142 143235714
L118157142 143021428
L118228571 142735714
L118300000 142592857
L118442857 142450000
L118657142 142378571
L118800000 142378571
L119014285 142450000
L119085714 142521428
" />
<path d="M120157142 142378571
L120157142 143450000
L120085714 143664285
L119942857 143807142
L119728571 143878571
L119585714 143878571
" />
<path d="M121585714 143878571
L120871428 143878571
L120871428 142378571
" />
<path d="M122942857 143735714
L122871428 143807142
L122657142 143878571
L122514285 143878571
L122300000 143807142
L122157142 143664285
L122085714 143521428
L122014285 143235714
L122014285 143021428
L122085714 142735714
L122157142 142592857
L122300000 142450000
L122514285 142378571
L122657142 142378571
L122871428 142450000
L122942857 142521428
" />
<path d="M124014285 142378571
L124014285 143450000
L123942857 143664285
L123800000 143807142
L123585714 143878571
L123442857 143878571
" />
<path d="M125442857 143878571
L124728571 143878571
L124728571 142378571
" />
<path d="M126800000 143735714
L126728571 143807142
L126514285 143878571
L126371428 143878571
L126157142 143807142
L126014285 143664285
L125942857 143521428
L125871428 143235714
L125871428 143021428
L125942857 142735714
L126014285 142592857
L126157142 142450000
L126371428 142378571
L126514285 142378571
L126728571 142450000
L126800000 142521428
" />
</g><g >
</g>
<g >
</g>
<g >
</g>
<g >
</g>
<g >
</g>
<g >
</g>
<g >
</g>
<g >
</g>
<g >
</g>
<g >
</g>
<g >
</g>
<g >
</g>
<g >
</g>
<g >
</g>
<g >
</g>
<g >
</g>
<g >
</g>
<g >
</g>
<g >
</g>
<g >
</g>
<g >
</g>
<g >
</g>
<g >
</g>
<g >
</g>
<g >
</g>
<g >
</g>
<g >
</g>
<g >
</g>
<g >
</g>
<g >
</g>
<g >
</g>
<g >
</g>
<g >
</g>
<g >
</g>
<g >
</g>
<g >
</g>
<g >
</g>
<g >
</g>
<g >
</g>
<g >
</g>
<g >
</g>
<g >
</g>
<g >
</g>
<g >
</g>
<g >
</g>
<g >
</g>
<g >
</g>
<g >
</g>
</g> 
</svg>
