<?xml version="1.0" standalone="no"?>
 <!DOCTYPE svg PUBLIC "-//W3C//DTD SVG 1.1//EN" 
 "http://www.w3.org/Graphics/SVG/1.1/DTD/svg11.dtd"> 
<svg
  xmlns:svg="http://www.w3.org/2000/svg"
  xmlns="http://www.w3.org/2000/svg"
  xmlns:xlink="http://www.w3.org/1999/xlink"
  version="1.1"
  width="29.700220cm" height="21.000720cm" viewBox="0 0 297002200 210007200">
<title>SVG Picture created as sprayGun_PCB-F_Paste.svg date 2022/04/21 11:39:33 </title>
  <desc>Picture generated by PCBNEW </desc>
<g style="fill:#000000; fill-opacity:1.000000;stroke:#000000; stroke-opacity:1.000000;
stroke-linecap:round; stroke-linejoin:round;"
 transform="translate(0 0) scale(1 1)">
</g>
<g style="fill:#000000; fill-opacity:0.0; 
stroke:#000000; stroke-width:0.000000; stroke-opacity:1; 
stroke-linecap:round; stroke-linejoin:round;">
<g >
</g>
<g >
</g>
<g >
</g>
<g >
</g>
<g >
</g>
<g >
</g>
<g >
</g>
<g >
</g>
<g >
</g>
<g >
</g>
<g style="fill:#000000; fill-opacity:0.0; 
stroke:#000000; stroke-width:0.000000; stroke-opacity:1; 
stroke-linecap:round; stroke-linejoin:round;">
</g>
<g style="fill:#000000; fill-opacity:0.0; 
stroke:#000000; stroke-width:1.000000; stroke-opacity:1; 
stroke-linecap:round; stroke-linejoin:round;">
</g>
<g style="fill:#000000; fill-opacity:1.0; 
stroke:#000000; stroke-width:1.000000; stroke-opacity:1; 
stroke-linecap:round; stroke-linejoin:round;">
<path style="fill:#000000; fill-opacity:1.0; 
stroke:#000000; stroke-width:1.000000; stroke-opacity:1; 
stroke-linecap:round; stroke-linejoin:round;fill-rule:evenodd;"
d="M 110663000.000000,116545000.000000
110679073.000000,116548197.000000
110692698.000000,116557302.000000
110701803.000000,116570927.000000
110705000.000000,116587000.000000
110705000.000000,118473000.000000
110701803.000000,118489073.000000
110692698.000000,118502698.000000
110679073.000000,118511803.000000
110663000.000000,118515000.000000
110147000.000000,118515000.000000
110130927.000000,118511803.000000
110117302.000000,118502698.000000
110108197.000000,118489073.000000
110105000.000000,118473000.000000
110105000.000000,116587000.000000
110108197.000000,116570927.000000
110117302.000000,116557302.000000
110130927.000000,116548197.000000
110147000.000000,116545000.000000
Z" /> 
<path style="fill:#000000; fill-opacity:1.0; 
stroke:#000000; stroke-width:1.000000; stroke-opacity:1; 
stroke-linecap:round; stroke-linejoin:round;fill-rule:evenodd;"
d="M 109393000.000000,116545000.000000
109409073.000000,116548197.000000
109422698.000000,116557302.000000
109431803.000000,116570927.000000
109435000.000000,116587000.000000
109435000.000000,118473000.000000
109431803.000000,118489073.000000
109422698.000000,118502698.000000
109409073.000000,118511803.000000
109393000.000000,118515000.000000
108877000.000000,118515000.000000
108860927.000000,118511803.000000
108847302.000000,118502698.000000
108838197.000000,118489073.000000
108835000.000000,118473000.000000
108835000.000000,116587000.000000
108838197.000000,116570927.000000
108847302.000000,116557302.000000
108860927.000000,116548197.000000
108877000.000000,116545000.000000
Z" /> 
<path style="fill:#000000; fill-opacity:1.0; 
stroke:#000000; stroke-width:1.000000; stroke-opacity:1; 
stroke-linecap:round; stroke-linejoin:round;fill-rule:evenodd;"
d="M 108123000.000000,116545000.000000
108139073.000000,116548197.000000
108152698.000000,116557302.000000
108161803.000000,116570927.000000
108165000.000000,116587000.000000
108165000.000000,118473000.000000
108161803.000000,118489073.000000
108152698.000000,118502698.000000
108139073.000000,118511803.000000
108123000.000000,118515000.000000
107607000.000000,118515000.000000
107590927.000000,118511803.000000
107577302.000000,118502698.000000
107568197.000000,118489073.000000
107565000.000000,118473000.000000
107565000.000000,116587000.000000
107568197.000000,116570927.000000
107577302.000000,116557302.000000
107590927.000000,116548197.000000
107607000.000000,116545000.000000
Z" /> 
<path style="fill:#000000; fill-opacity:1.0; 
stroke:#000000; stroke-width:1.000000; stroke-opacity:1; 
stroke-linecap:round; stroke-linejoin:round;fill-rule:evenodd;"
d="M 106853000.000000,116545000.000000
106869073.000000,116548197.000000
106882698.000000,116557302.000000
106891803.000000,116570927.000000
106895000.000000,116587000.000000
106895000.000000,118473000.000000
106891803.000000,118489073.000000
106882698.000000,118502698.000000
106869073.000000,118511803.000000
106853000.000000,118515000.000000
106337000.000000,118515000.000000
106320927.000000,118511803.000000
106307302.000000,118502698.000000
106298197.000000,118489073.000000
106295000.000000,118473000.000000
106295000.000000,116587000.000000
106298197.000000,116570927.000000
106307302.000000,116557302.000000
106320927.000000,116548197.000000
106337000.000000,116545000.000000
Z" /> 
<path style="fill:#000000; fill-opacity:1.0; 
stroke:#000000; stroke-width:1.000000; stroke-opacity:1; 
stroke-linecap:round; stroke-linejoin:round;fill-rule:evenodd;"
d="M 106853000.000000,121485000.000000
106869073.000000,121488197.000000
106882698.000000,121497302.000000
106891803.000000,121510927.000000
106895000.000000,121527000.000000
106895000.000000,123413000.000000
106891803.000000,123429073.000000
106882698.000000,123442698.000000
106869073.000000,123451803.000000
106853000.000000,123455000.000000
106337000.000000,123455000.000000
106320927.000000,123451803.000000
106307302.000000,123442698.000000
106298197.000000,123429073.000000
106295000.000000,123413000.000000
106295000.000000,121527000.000000
106298197.000000,121510927.000000
106307302.000000,121497302.000000
106320927.000000,121488197.000000
106337000.000000,121485000.000000
Z" /> 
<path style="fill:#000000; fill-opacity:1.0; 
stroke:#000000; stroke-width:1.000000; stroke-opacity:1; 
stroke-linecap:round; stroke-linejoin:round;fill-rule:evenodd;"
d="M 108123000.000000,121485000.000000
108139073.000000,121488197.000000
108152698.000000,121497302.000000
108161803.000000,121510927.000000
108165000.000000,121527000.000000
108165000.000000,123413000.000000
108161803.000000,123429073.000000
108152698.000000,123442698.000000
108139073.000000,123451803.000000
108123000.000000,123455000.000000
107607000.000000,123455000.000000
107590927.000000,123451803.000000
107577302.000000,123442698.000000
107568197.000000,123429073.000000
107565000.000000,123413000.000000
107565000.000000,121527000.000000
107568197.000000,121510927.000000
107577302.000000,121497302.000000
107590927.000000,121488197.000000
107607000.000000,121485000.000000
Z" /> 
<path style="fill:#000000; fill-opacity:1.0; 
stroke:#000000; stroke-width:1.000000; stroke-opacity:1; 
stroke-linecap:round; stroke-linejoin:round;fill-rule:evenodd;"
d="M 109393000.000000,121485000.000000
109409073.000000,121488197.000000
109422698.000000,121497302.000000
109431803.000000,121510927.000000
109435000.000000,121527000.000000
109435000.000000,123413000.000000
109431803.000000,123429073.000000
109422698.000000,123442698.000000
109409073.000000,123451803.000000
109393000.000000,123455000.000000
108877000.000000,123455000.000000
108860927.000000,123451803.000000
108847302.000000,123442698.000000
108838197.000000,123429073.000000
108835000.000000,123413000.000000
108835000.000000,121527000.000000
108838197.000000,121510927.000000
108847302.000000,121497302.000000
108860927.000000,121488197.000000
108877000.000000,121485000.000000
Z" /> 
<path style="fill:#000000; fill-opacity:1.0; 
stroke:#000000; stroke-width:1.000000; stroke-opacity:1; 
stroke-linecap:round; stroke-linejoin:round;fill-rule:evenodd;"
d="M 110663000.000000,121485000.000000
110679073.000000,121488197.000000
110692698.000000,121497302.000000
110701803.000000,121510927.000000
110705000.000000,121527000.000000
110705000.000000,123413000.000000
110701803.000000,123429073.000000
110692698.000000,123442698.000000
110679073.000000,123451803.000000
110663000.000000,123455000.000000
110147000.000000,123455000.000000
110130927.000000,123451803.000000
110117302.000000,123442698.000000
110108197.000000,123429073.000000
110105000.000000,123413000.000000
110105000.000000,121527000.000000
110108197.000000,121510927.000000
110117302.000000,121497302.000000
110130927.000000,121488197.000000
110147000.000000,121485000.000000
Z" /> 
</g>
<g >
</g>
<g >
</g>
<g >
</g>
<g >
</g>
<g >
</g>
<g >
</g>
<g >
</g>
<g >
</g>
<g >
</g>
<g >
</g>
<g >
</g>
<g >
</g>
<g >
</g>
<g >
</g>
<g >
</g>
<g >
</g>
<g >
</g>
<g >
</g>
<g >
</g>
<g >
</g>
<g >
</g>
<g >
</g>
<g >
</g>
<g >
</g>
<g >
</g>
<g >
</g>
<g >
</g>
<g >
</g>
<g >
</g>
<g >
</g>
<g style="fill:#000000; fill-opacity:1.0; 
stroke:#000000; stroke-width:1.000000; stroke-opacity:1; 
stroke-linecap:round; stroke-linejoin:round;">
<path style="fill:#000000; fill-opacity:1.0; 
stroke:#000000; stroke-width:1.000000; stroke-opacity:1; 
stroke-linecap:round; stroke-linejoin:round;fill-rule:evenodd;"
d="M 112055000.000000,104100000.000000
112066418.000000,104042597.000000
112098934.000000,103993934.000000
112147597.000000,103961418.000000
112205000.000000,103950000.000000
113955000.000000,103950000.000000
114012403.000000,103961418.000000
114061066.000000,103993934.000000
114093582.000000,104042597.000000
114105000.000000,104100000.000000
114105000.000000,104400000.000000
114093582.000000,104457403.000000
114061066.000000,104506066.000000
114012403.000000,104538582.000000
113955000.000000,104550000.000000
112205000.000000,104550000.000000
112147597.000000,104538582.000000
112098934.000000,104506066.000000
112066418.000000,104457403.000000
112055000.000000,104400000.000000
Z" /> 
<path style="fill:#000000; fill-opacity:1.0; 
stroke:#000000; stroke-width:1.000000; stroke-opacity:1; 
stroke-linecap:round; stroke-linejoin:round;fill-rule:evenodd;"
d="M 112055000.000000,105370000.000000
112066418.000000,105312597.000000
112098934.000000,105263934.000000
112147597.000000,105231418.000000
112205000.000000,105220000.000000
113955000.000000,105220000.000000
114012403.000000,105231418.000000
114061066.000000,105263934.000000
114093582.000000,105312597.000000
114105000.000000,105370000.000000
114105000.000000,105670000.000000
114093582.000000,105727403.000000
114061066.000000,105776066.000000
114012403.000000,105808582.000000
113955000.000000,105820000.000000
112205000.000000,105820000.000000
112147597.000000,105808582.000000
112098934.000000,105776066.000000
112066418.000000,105727403.000000
112055000.000000,105670000.000000
Z" /> 
<path style="fill:#000000; fill-opacity:1.0; 
stroke:#000000; stroke-width:1.000000; stroke-opacity:1; 
stroke-linecap:round; stroke-linejoin:round;fill-rule:evenodd;"
d="M 112055000.000000,106640000.000000
112066418.000000,106582597.000000
112098934.000000,106533934.000000
112147597.000000,106501418.000000
112205000.000000,106490000.000000
113955000.000000,106490000.000000
114012403.000000,106501418.000000
114061066.000000,106533934.000000
114093582.000000,106582597.000000
114105000.000000,106640000.000000
114105000.000000,106940000.000000
114093582.000000,106997403.000000
114061066.000000,107046066.000000
114012403.000000,107078582.000000
113955000.000000,107090000.000000
112205000.000000,107090000.000000
112147597.000000,107078582.000000
112098934.000000,107046066.000000
112066418.000000,106997403.000000
112055000.000000,106940000.000000
Z" /> 
<path style="fill:#000000; fill-opacity:1.0; 
stroke:#000000; stroke-width:1.000000; stroke-opacity:1; 
stroke-linecap:round; stroke-linejoin:round;fill-rule:evenodd;"
d="M 112055000.000000,107910000.000000
112066418.000000,107852597.000000
112098934.000000,107803934.000000
112147597.000000,107771418.000000
112205000.000000,107760000.000000
113955000.000000,107760000.000000
114012403.000000,107771418.000000
114061066.000000,107803934.000000
114093582.000000,107852597.000000
114105000.000000,107910000.000000
114105000.000000,108210000.000000
114093582.000000,108267403.000000
114061066.000000,108316066.000000
114012403.000000,108348582.000000
113955000.000000,108360000.000000
112205000.000000,108360000.000000
112147597.000000,108348582.000000
112098934.000000,108316066.000000
112066418.000000,108267403.000000
112055000.000000,108210000.000000
Z" /> 
<path style="fill:#000000; fill-opacity:1.0; 
stroke:#000000; stroke-width:1.000000; stroke-opacity:1; 
stroke-linecap:round; stroke-linejoin:round;fill-rule:evenodd;"
d="M 112055000.000000,109180000.000000
112066418.000000,109122597.000000
112098934.000000,109073934.000000
112147597.000000,109041418.000000
112205000.000000,109030000.000000
113955000.000000,109030000.000000
114012403.000000,109041418.000000
114061066.000000,109073934.000000
114093582.000000,109122597.000000
114105000.000000,109180000.000000
114105000.000000,109480000.000000
114093582.000000,109537403.000000
114061066.000000,109586066.000000
114012403.000000,109618582.000000
113955000.000000,109630000.000000
112205000.000000,109630000.000000
112147597.000000,109618582.000000
112098934.000000,109586066.000000
112066418.000000,109537403.000000
112055000.000000,109480000.000000
Z" /> 
<path style="fill:#000000; fill-opacity:1.0; 
stroke:#000000; stroke-width:1.000000; stroke-opacity:1; 
stroke-linecap:round; stroke-linejoin:round;fill-rule:evenodd;"
d="M 112055000.000000,110450000.000000
112066418.000000,110392597.000000
112098934.000000,110343934.000000
112147597.000000,110311418.000000
112205000.000000,110300000.000000
113955000.000000,110300000.000000
114012403.000000,110311418.000000
114061066.000000,110343934.000000
114093582.000000,110392597.000000
114105000.000000,110450000.000000
114105000.000000,110750000.000000
114093582.000000,110807403.000000
114061066.000000,110856066.000000
114012403.000000,110888582.000000
113955000.000000,110900000.000000
112205000.000000,110900000.000000
112147597.000000,110888582.000000
112098934.000000,110856066.000000
112066418.000000,110807403.000000
112055000.000000,110750000.000000
Z" /> 
<path style="fill:#000000; fill-opacity:1.0; 
stroke:#000000; stroke-width:1.000000; stroke-opacity:1; 
stroke-linecap:round; stroke-linejoin:round;fill-rule:evenodd;"
d="M 112055000.000000,111720000.000000
112066418.000000,111662597.000000
112098934.000000,111613934.000000
112147597.000000,111581418.000000
112205000.000000,111570000.000000
113955000.000000,111570000.000000
114012403.000000,111581418.000000
114061066.000000,111613934.000000
114093582.000000,111662597.000000
114105000.000000,111720000.000000
114105000.000000,112020000.000000
114093582.000000,112077403.000000
114061066.000000,112126066.000000
114012403.000000,112158582.000000
113955000.000000,112170000.000000
112205000.000000,112170000.000000
112147597.000000,112158582.000000
112098934.000000,112126066.000000
112066418.000000,112077403.000000
112055000.000000,112020000.000000
Z" /> 
<path style="fill:#000000; fill-opacity:1.0; 
stroke:#000000; stroke-width:1.000000; stroke-opacity:1; 
stroke-linecap:round; stroke-linejoin:round;fill-rule:evenodd;"
d="M 112055000.000000,112990000.000000
112066418.000000,112932597.000000
112098934.000000,112883934.000000
112147597.000000,112851418.000000
112205000.000000,112840000.000000
113955000.000000,112840000.000000
114012403.000000,112851418.000000
114061066.000000,112883934.000000
114093582.000000,112932597.000000
114105000.000000,112990000.000000
114105000.000000,113290000.000000
114093582.000000,113347403.000000
114061066.000000,113396066.000000
114012403.000000,113428582.000000
113955000.000000,113440000.000000
112205000.000000,113440000.000000
112147597.000000,113428582.000000
112098934.000000,113396066.000000
112066418.000000,113347403.000000
112055000.000000,113290000.000000
Z" /> 
<path style="fill:#000000; fill-opacity:1.0; 
stroke:#000000; stroke-width:1.000000; stroke-opacity:1; 
stroke-linecap:round; stroke-linejoin:round;fill-rule:evenodd;"
d="M 112055000.000000,114260000.000000
112066418.000000,114202597.000000
112098934.000000,114153934.000000
112147597.000000,114121418.000000
112205000.000000,114110000.000000
113955000.000000,114110000.000000
114012403.000000,114121418.000000
114061066.000000,114153934.000000
114093582.000000,114202597.000000
114105000.000000,114260000.000000
114105000.000000,114560000.000000
114093582.000000,114617403.000000
114061066.000000,114666066.000000
114012403.000000,114698582.000000
113955000.000000,114710000.000000
112205000.000000,114710000.000000
112147597.000000,114698582.000000
112098934.000000,114666066.000000
112066418.000000,114617403.000000
112055000.000000,114560000.000000
Z" /> 
<path style="fill:#000000; fill-opacity:1.0; 
stroke:#000000; stroke-width:1.000000; stroke-opacity:1; 
stroke-linecap:round; stroke-linejoin:round;fill-rule:evenodd;"
d="M 121355000.000000,114260000.000000
121366418.000000,114202597.000000
121398934.000000,114153934.000000
121447597.000000,114121418.000000
121505000.000000,114110000.000000
123255000.000000,114110000.000000
123312403.000000,114121418.000000
123361066.000000,114153934.000000
123393582.000000,114202597.000000
123405000.000000,114260000.000000
123405000.000000,114560000.000000
123393582.000000,114617403.000000
123361066.000000,114666066.000000
123312403.000000,114698582.000000
123255000.000000,114710000.000000
121505000.000000,114710000.000000
121447597.000000,114698582.000000
121398934.000000,114666066.000000
121366418.000000,114617403.000000
121355000.000000,114560000.000000
Z" /> 
<path style="fill:#000000; fill-opacity:1.0; 
stroke:#000000; stroke-width:1.000000; stroke-opacity:1; 
stroke-linecap:round; stroke-linejoin:round;fill-rule:evenodd;"
d="M 121355000.000000,112990000.000000
121366418.000000,112932597.000000
121398934.000000,112883934.000000
121447597.000000,112851418.000000
121505000.000000,112840000.000000
123255000.000000,112840000.000000
123312403.000000,112851418.000000
123361066.000000,112883934.000000
123393582.000000,112932597.000000
123405000.000000,112990000.000000
123405000.000000,113290000.000000
123393582.000000,113347403.000000
123361066.000000,113396066.000000
123312403.000000,113428582.000000
123255000.000000,113440000.000000
121505000.000000,113440000.000000
121447597.000000,113428582.000000
121398934.000000,113396066.000000
121366418.000000,113347403.000000
121355000.000000,113290000.000000
Z" /> 
<path style="fill:#000000; fill-opacity:1.0; 
stroke:#000000; stroke-width:1.000000; stroke-opacity:1; 
stroke-linecap:round; stroke-linejoin:round;fill-rule:evenodd;"
d="M 121355000.000000,111720000.000000
121366418.000000,111662597.000000
121398934.000000,111613934.000000
121447597.000000,111581418.000000
121505000.000000,111570000.000000
123255000.000000,111570000.000000
123312403.000000,111581418.000000
123361066.000000,111613934.000000
123393582.000000,111662597.000000
123405000.000000,111720000.000000
123405000.000000,112020000.000000
123393582.000000,112077403.000000
123361066.000000,112126066.000000
123312403.000000,112158582.000000
123255000.000000,112170000.000000
121505000.000000,112170000.000000
121447597.000000,112158582.000000
121398934.000000,112126066.000000
121366418.000000,112077403.000000
121355000.000000,112020000.000000
Z" /> 
<path style="fill:#000000; fill-opacity:1.0; 
stroke:#000000; stroke-width:1.000000; stroke-opacity:1; 
stroke-linecap:round; stroke-linejoin:round;fill-rule:evenodd;"
d="M 121355000.000000,110450000.000000
121366418.000000,110392597.000000
121398934.000000,110343934.000000
121447597.000000,110311418.000000
121505000.000000,110300000.000000
123255000.000000,110300000.000000
123312403.000000,110311418.000000
123361066.000000,110343934.000000
123393582.000000,110392597.000000
123405000.000000,110450000.000000
123405000.000000,110750000.000000
123393582.000000,110807403.000000
123361066.000000,110856066.000000
123312403.000000,110888582.000000
123255000.000000,110900000.000000
121505000.000000,110900000.000000
121447597.000000,110888582.000000
121398934.000000,110856066.000000
121366418.000000,110807403.000000
121355000.000000,110750000.000000
Z" /> 
<path style="fill:#000000; fill-opacity:1.0; 
stroke:#000000; stroke-width:1.000000; stroke-opacity:1; 
stroke-linecap:round; stroke-linejoin:round;fill-rule:evenodd;"
d="M 121355000.000000,109180000.000000
121366418.000000,109122597.000000
121398934.000000,109073934.000000
121447597.000000,109041418.000000
121505000.000000,109030000.000000
123255000.000000,109030000.000000
123312403.000000,109041418.000000
123361066.000000,109073934.000000
123393582.000000,109122597.000000
123405000.000000,109180000.000000
123405000.000000,109480000.000000
123393582.000000,109537403.000000
123361066.000000,109586066.000000
123312403.000000,109618582.000000
123255000.000000,109630000.000000
121505000.000000,109630000.000000
121447597.000000,109618582.000000
121398934.000000,109586066.000000
121366418.000000,109537403.000000
121355000.000000,109480000.000000
Z" /> 
<path style="fill:#000000; fill-opacity:1.0; 
stroke:#000000; stroke-width:1.000000; stroke-opacity:1; 
stroke-linecap:round; stroke-linejoin:round;fill-rule:evenodd;"
d="M 121355000.000000,107910000.000000
121366418.000000,107852597.000000
121398934.000000,107803934.000000
121447597.000000,107771418.000000
121505000.000000,107760000.000000
123255000.000000,107760000.000000
123312403.000000,107771418.000000
123361066.000000,107803934.000000
123393582.000000,107852597.000000
123405000.000000,107910000.000000
123405000.000000,108210000.000000
123393582.000000,108267403.000000
123361066.000000,108316066.000000
123312403.000000,108348582.000000
123255000.000000,108360000.000000
121505000.000000,108360000.000000
121447597.000000,108348582.000000
121398934.000000,108316066.000000
121366418.000000,108267403.000000
121355000.000000,108210000.000000
Z" /> 
<path style="fill:#000000; fill-opacity:1.0; 
stroke:#000000; stroke-width:1.000000; stroke-opacity:1; 
stroke-linecap:round; stroke-linejoin:round;fill-rule:evenodd;"
d="M 121355000.000000,106640000.000000
121366418.000000,106582597.000000
121398934.000000,106533934.000000
121447597.000000,106501418.000000
121505000.000000,106490000.000000
123255000.000000,106490000.000000
123312403.000000,106501418.000000
123361066.000000,106533934.000000
123393582.000000,106582597.000000
123405000.000000,106640000.000000
123405000.000000,106940000.000000
123393582.000000,106997403.000000
123361066.000000,107046066.000000
123312403.000000,107078582.000000
123255000.000000,107090000.000000
121505000.000000,107090000.000000
121447597.000000,107078582.000000
121398934.000000,107046066.000000
121366418.000000,106997403.000000
121355000.000000,106940000.000000
Z" /> 
<path style="fill:#000000; fill-opacity:1.0; 
stroke:#000000; stroke-width:1.000000; stroke-opacity:1; 
stroke-linecap:round; stroke-linejoin:round;fill-rule:evenodd;"
d="M 121355000.000000,105370000.000000
121366418.000000,105312597.000000
121398934.000000,105263934.000000
121447597.000000,105231418.000000
121505000.000000,105220000.000000
123255000.000000,105220000.000000
123312403.000000,105231418.000000
123361066.000000,105263934.000000
123393582.000000,105312597.000000
123405000.000000,105370000.000000
123405000.000000,105670000.000000
123393582.000000,105727403.000000
123361066.000000,105776066.000000
123312403.000000,105808582.000000
123255000.000000,105820000.000000
121505000.000000,105820000.000000
121447597.000000,105808582.000000
121398934.000000,105776066.000000
121366418.000000,105727403.000000
121355000.000000,105670000.000000
Z" /> 
<path style="fill:#000000; fill-opacity:1.0; 
stroke:#000000; stroke-width:1.000000; stroke-opacity:1; 
stroke-linecap:round; stroke-linejoin:round;fill-rule:evenodd;"
d="M 121355000.000000,104100000.000000
121366418.000000,104042597.000000
121398934.000000,103993934.000000
121447597.000000,103961418.000000
121505000.000000,103950000.000000
123255000.000000,103950000.000000
123312403.000000,103961418.000000
123361066.000000,103993934.000000
123393582.000000,104042597.000000
123405000.000000,104100000.000000
123405000.000000,104400000.000000
123393582.000000,104457403.000000
123361066.000000,104506066.000000
123312403.000000,104538582.000000
123255000.000000,104550000.000000
121505000.000000,104550000.000000
121447597.000000,104538582.000000
121398934.000000,104506066.000000
121366418.000000,104457403.000000
121355000.000000,104400000.000000
Z" /> 
</g>
<g >
</g>
<g >
</g>
<g >
</g>
<g >
</g>
<g >
</g>
<g >
</g>
<g >
</g>
<g >
</g>
</g> 
</svg>
