M48
; DRILL file {KiCad 6.0.4-6f826c9f35~116~ubuntu20.04.1} date Wed 13 Apr 2022 02:27:58 PM CEST
; FORMAT={-:-/ absolute / metric / decimal}
; #@! TF.CreationDate,2022-04-13T14:27:58+02:00
; #@! TF.GenerationSoftware,Kicad,Pcbnew,6.0.4-6f826c9f35~116~ubuntu20.04.1
; #@! TF.FileFunction,Plated,1,4,PTH
FMAT,2
METRIC
; #@! TA.AperFunction,Plated,PTH,ViaDrill
T1C0.400
; #@! TA.AperFunction,Plated,PTH,ComponentDrill
T2C0.500
; #@! TA.AperFunction,Plated,PTH,ComponentDrill
T3C0.800
; #@! TA.AperFunction,Plated,PTH,ComponentDrill
T4C0.900
; #@! TA.AperFunction,Plated,PTH,ComponentDrill
T5C0.950
; #@! TA.AperFunction,Plated,PTH,ComponentDrill
T6C1.000
; #@! TA.AperFunction,Plated,PTH,ComponentDrill
T7C1.100
; #@! TA.AperFunction,Plated,PTH,ComponentDrill
T8C1.300
; #@! TA.AperFunction,Plated,PTH,ComponentDrill
T9C3.200
%
G90
G05
T1
X105.1Y-121.8
X110.6Y-115.2
X112.1Y-121.9
X120.35Y-104.25
X142.7Y-70.3
X151.4Y-72.3
T2
X90.65Y-52.25
X90.65Y-139.65
X91.353Y-50.553
X91.353Y-53.947
X91.353Y-137.953
X91.353Y-141.347
X93.05Y-49.85
X93.05Y-54.65
X93.05Y-137.25
X93.05Y-142.05
X94.747Y-50.553
X94.747Y-53.947
X94.747Y-137.953
X94.747Y-141.347
X95.45Y-52.25
X95.45Y-139.65
X204.05Y-52.25
X204.05Y-139.65
X204.753Y-50.553
X204.753Y-53.947
X204.753Y-137.953
X204.753Y-141.347
X206.45Y-49.85
X206.45Y-54.65
X206.45Y-137.25
X206.45Y-142.05
X208.147Y-50.553
X208.147Y-53.947
X208.147Y-137.953
X208.147Y-141.347
X208.85Y-52.25
X208.85Y-139.65
T3
X99.645Y-116.3
X101.645Y-116.3
X104.395Y-112.6
X106.895Y-112.6
X112.396Y-91.042
X114.896Y-91.042
X115.19Y-97.138
X116.968Y-131.174
X119.503Y-74.278
X119.503Y-82.406
X120.07Y-97.138
X120.589Y-90.788
X123.089Y-90.788
X123.4Y-118.205
X123.4Y-120.705
X127.128Y-131.174
X129.663Y-74.278
X129.663Y-82.406
X130.43Y-96.63
X130.43Y-106.79
X132.4Y-118.155
X132.4Y-120.155
X167.856Y-67.674
X170.356Y-67.674
X175.845Y-67.85
X178.345Y-67.85
X183.55Y-57.47
X183.55Y-67.63
T4
X111.883Y-74.278
X111.883Y-82.146
X114.423Y-74.278
X114.423Y-82.146
X183.508Y-50.75
X183.508Y-53.29
T5
X174.55Y-100.75
X174.55Y-113.25
X177.05Y-100.75
X177.05Y-113.25
X179.55Y-100.75
X179.55Y-113.25
X182.05Y-100.75
X182.05Y-113.25
X184.55Y-100.75
X184.55Y-113.25
X187.05Y-100.75
X187.05Y-113.25
T6
X107.311Y-125.84
X108.332Y-66.15
X109.851Y-125.84
X110.872Y-66.15
X113.412Y-66.15
X116.206Y-125.84
X118.746Y-125.84
X125.858Y-66.15
X128.398Y-66.15
X130.938Y-66.15
X140.6Y-75.04
X140.6Y-77.58
X140.6Y-80.12
X140.6Y-82.66
X140.6Y-85.2
X140.6Y-87.74
X140.6Y-90.28
X140.6Y-92.82
X140.6Y-95.36
X140.6Y-97.9
X140.6Y-100.44
X140.6Y-102.98
X140.6Y-105.52
X140.6Y-108.06
X140.6Y-110.6
X142.622Y-66.15
X145.162Y-66.15
X147.702Y-66.15
X155.84Y-75.04
X155.84Y-77.58
X155.84Y-80.12
X155.84Y-82.66
X155.84Y-85.2
X155.84Y-87.74
X155.84Y-90.28
X155.84Y-92.82
X155.84Y-95.36
X155.84Y-97.9
X155.84Y-100.44
X155.84Y-102.98
X155.84Y-105.52
X155.84Y-108.06
X155.84Y-110.6
X165.99Y-77.326
X168.53Y-77.326
X171.07Y-77.326
X173.61Y-77.326
X176.15Y-77.326
X178.69Y-77.326
X181.23Y-77.326
X183.77Y-77.326
X186.31Y-77.326
X188.85Y-77.326
T7
X156.338Y-66.15
X158.878Y-66.15
X161.418Y-66.15
T8
X96.14Y-63.864
X96.14Y-68.944
X96.14Y-74.024
X96.14Y-79.104
X96.14Y-84.184
X96.14Y-89.264
X96.14Y-94.344
X96.14Y-99.424
X96.14Y-104.504
X96.14Y-109.584
X105.787Y-137.062
X106.051Y-54.674
X110.867Y-137.062
X111.131Y-54.674
X116.211Y-54.674
X122.815Y-54.674
X127.895Y-54.674
X132.975Y-54.674
X134.494Y-137.062
X139.574Y-137.062
X139.579Y-54.674
X144.654Y-137.062
X144.659Y-54.674
X149.734Y-137.062
X149.739Y-54.674
X156.338Y-137.062
X156.343Y-54.55
X161.418Y-137.062
X161.423Y-54.55
X166.498Y-137.062
X167.97Y-54.55
X171.578Y-137.062
X173.05Y-54.55
X178.182Y-137.062
X183.262Y-137.062
X188.342Y-137.062
X193.422Y-137.062
X203.374Y-85.454
X203.374Y-90.534
X203.374Y-95.614
X203.374Y-100.694
X203.374Y-105.774
X203.374Y-110.854
X203.374Y-115.934
X203.374Y-121.014
T9
X93.05Y-52.25
X93.05Y-139.65
X206.45Y-52.25
X206.45Y-139.65
T0
M30
