<?xml version="1.0" standalone="no"?>
 <!DOCTYPE svg PUBLIC "-//W3C//DTD SVG 1.1//EN" 
 "http://www.w3.org/Graphics/SVG/1.1/DTD/svg11.dtd"> 
<svg
  xmlns:svg="http://www.w3.org/2000/svg"
  xmlns="http://www.w3.org/2000/svg"
  xmlns:xlink="http://www.w3.org/1999/xlink"
  version="1.1"
  width="29.700220cm" height="21.000720cm" viewBox="0 0 297002200 210007200">
<title>SVG Picture created as sprayGun_PCB-F_Cu.svg date 2022/04/21 11:39:33 </title>
  <desc>Picture generated by PCBNEW </desc>
<g style="fill:#000000; fill-opacity:1.000000;stroke:#000000; stroke-opacity:1.000000;
stroke-linecap:round; stroke-linejoin:round;"
 transform="translate(0 0) scale(1 1)">
</g>
<g style="fill:#000000; fill-opacity:0.0; 
stroke:#000000; stroke-width:0.000000; stroke-opacity:1; 
stroke-linecap:round; stroke-linejoin:round;">
<g >
</g>
<g style="fill:#000000; fill-opacity:0.0; 
stroke:#000000; stroke-width:1.000000; stroke-opacity:1; 
stroke-linecap:round; stroke-linejoin:round;">
</g>
<g style="fill:#000000; fill-opacity:1.0; 
stroke:#000000; stroke-width:1.000000; stroke-opacity:1; 
stroke-linecap:round; stroke-linejoin:round;">
<path style="fill:#000000; fill-opacity:1.0; 
stroke:#000000; stroke-width:1.000000; stroke-opacity:1; 
stroke-linecap:round; stroke-linejoin:round;fill-rule:evenodd;"
d="M 188000001.000000,76476001.000000
189699999.000000,76476001.000000
189699999.000000,78175999.000000
188000001.000000,78175999.000000
Z" /> 
<circle cx="186310000.000000" cy="77326000.000000" r="850000.000000" /> 
<circle cx="183770000.000000" cy="77326000.000000" r="850000.000000" /> 
<circle cx="181230000.000000" cy="77326000.000000" r="850000.000000" /> 
<circle cx="178690000.000000" cy="77326000.000000" r="850000.000000" /> 
<circle cx="176150000.000000" cy="77326000.000000" r="850000.000000" /> 
<circle cx="173610000.000000" cy="77326000.000000" r="850000.000000" /> 
<circle cx="171070000.000000" cy="77326000.000000" r="850000.000000" /> 
<circle cx="168530000.000000" cy="77326000.000000" r="850000.000000" /> 
<circle cx="165990000.000000" cy="77326000.000000" r="850000.000000" /> 
</g>
<g >
</g>
<g style="fill:#000000; fill-opacity:1.0; 
stroke:#000000; stroke-width:1.000000; stroke-opacity:1; 
stroke-linecap:round; stroke-linejoin:round;">
<path style="fill:#000000; fill-opacity:1.0; 
stroke:#000000; stroke-width:1.000000; stroke-opacity:1; 
stroke-linecap:round; stroke-linejoin:round;fill-rule:evenodd;"
d="M 124199999.000000,121505112.000000
122600001.000000,121505112.000000
122600001.000000,119905114.000000
124199999.000000,119905114.000000
Z" /> 
<circle cx="123400000.000000" cy="118205113.000000" r="800000.000000" /> 
</g>
<g style="fill:#000000; fill-opacity:1.0; 
stroke:#000000; stroke-width:21200.000000; stroke-opacity:1; 
stroke-linecap:round; stroke-linejoin:round;">
</g>
<g >
</g>
<g style="fill:#000000; fill-opacity:1.0; 
stroke:#000000; stroke-width:21200.000000; stroke-opacity:1; 
stroke-linecap:round; stroke-linejoin:round;">
</g>
<g style="fill:#000000; fill-opacity:1.0; 
stroke:#000000; stroke-width:1.000000; stroke-opacity:1; 
stroke-linecap:round; stroke-linejoin:round;">
<path style="fill:#000000; fill-opacity:1.0; 
stroke:#000000; stroke-width:1.000000; stroke-opacity:1; 
stroke-linecap:round; stroke-linejoin:round;fill-rule:evenodd;"
d="M 176882001.000000,138361999.000000
176882001.000000,135762001.000000
179481999.000000,135762001.000000
179481999.000000,138361999.000000
Z" /> 
<circle cx="183262000.000000" cy="137062000.000000" r="1300000.000000" /> 
</g>
<g style="fill:#000000; fill-opacity:1.0; 
stroke:#000000; stroke-width:21200.000000; stroke-opacity:1; 
stroke-linecap:round; stroke-linejoin:round;">
</g>
<g style="fill:#000000; fill-opacity:1.0; 
stroke:#000000; stroke-width:1.000000; stroke-opacity:1; 
stroke-linecap:round; stroke-linejoin:round;">
<circle cx="188342000.000000" cy="137062000.000000" r="1300000.000000" /> 
</g>
<g style="fill:#000000; fill-opacity:1.0; 
stroke:#000000; stroke-width:21200.000000; stroke-opacity:1; 
stroke-linecap:round; stroke-linejoin:round;">
</g>
<g style="fill:#000000; fill-opacity:1.0; 
stroke:#000000; stroke-width:1.000000; stroke-opacity:1; 
stroke-linecap:round; stroke-linejoin:round;">
<circle cx="193422000.000000" cy="137062000.000000" r="1300000.000000" /> 
</g>
<g style="fill:#000000; fill-opacity:1.0; 
stroke:#000000; stroke-width:21200.000000; stroke-opacity:1; 
stroke-linecap:round; stroke-linejoin:round;">
</g>
<g >
</g>
<g style="fill:#000000; fill-opacity:1.0; 
stroke:#000000; stroke-width:21200.000000; stroke-opacity:1; 
stroke-linecap:round; stroke-linejoin:round;">
</g>
<g style="fill:#000000; fill-opacity:1.0; 
stroke:#000000; stroke-width:1.000000; stroke-opacity:1; 
stroke-linecap:round; stroke-linejoin:round;">
<path style="fill:#000000; fill-opacity:1.0; 
stroke:#000000; stroke-width:1.000000; stroke-opacity:1; 
stroke-linecap:round; stroke-linejoin:round;fill-rule:evenodd;"
d="M 133199999.000000,120955111.000000
131600001.000000,120955111.000000
131600001.000000,119355113.000000
133199999.000000,119355113.000000
Z" /> 
<circle cx="132400000.000000" cy="118155112.000000" r="800000.000000" /> 
</g>
<g style="fill:#000000; fill-opacity:1.0; 
stroke:#000000; stroke-width:21200.000000; stroke-opacity:1; 
stroke-linecap:round; stroke-linejoin:round;">
</g>
<g >
</g>
<g style="fill:#000000; fill-opacity:1.0; 
stroke:#000000; stroke-width:21200.000000; stroke-opacity:1; 
stroke-linecap:round; stroke-linejoin:round;">
</g>
<g style="fill:#000000; fill-opacity:1.0; 
stroke:#000000; stroke-width:1.000000; stroke-opacity:1; 
stroke-linecap:round; stroke-linejoin:round;">
<path style="fill:#000000; fill-opacity:1.0; 
stroke:#000000; stroke-width:1.000000; stroke-opacity:1; 
stroke-linecap:round; stroke-linejoin:round;fill-rule:evenodd;"
d="M 119788889.000000,91587999.000000
119788889.000000,89988001.000000
121388887.000000,89988001.000000
121388887.000000,91587999.000000
Z" /> 
<circle cx="123088888.000000" cy="90788000.000000" r="800000.000000" /> 
</g>
<g style="fill:#000000; fill-opacity:1.0; 
stroke:#000000; stroke-width:21200.000000; stroke-opacity:1; 
stroke-linecap:round; stroke-linejoin:round;">
</g>
<g >
</g>
<g style="fill:#000000; fill-opacity:1.0; 
stroke:#000000; stroke-width:21200.000000; stroke-opacity:1; 
stroke-linecap:round; stroke-linejoin:round;">
</g>
<g style="fill:#000000; fill-opacity:1.0; 
stroke:#000000; stroke-width:1.000000; stroke-opacity:1; 
stroke-linecap:round; stroke-linejoin:round;">
<circle cx="129663000.000000" cy="82406000.000000" r="800000.000000" /> 
</g>
<g style="fill:#000000; fill-opacity:1.0; 
stroke:#000000; stroke-width:21200.000000; stroke-opacity:1; 
stroke-linecap:round; stroke-linejoin:round;">
</g>
<g style="fill:#000000; fill-opacity:1.0; 
stroke:#000000; stroke-width:1.000000; stroke-opacity:1; 
stroke-linecap:round; stroke-linejoin:round;">
<circle cx="119503000.000000" cy="82406000.000000" r="800000.000000" /> 
</g>
<g >
</g>
<g style="fill:#000000; fill-opacity:1.0; 
stroke:#000000; stroke-width:1.000000; stroke-opacity:1; 
stroke-linecap:round; stroke-linejoin:round;">
<path style="fill:#000000; fill-opacity:1.0; 
stroke:#000000; stroke-width:1.000000; stroke-opacity:1; 
stroke-linecap:round; stroke-linejoin:round;fill-rule:evenodd;"
d="M 108160999.000000,126689999.000000
106461001.000000,126689999.000000
106461001.000000,124990001.000000
108160999.000000,124990001.000000
Z" /> 
<circle cx="109851000.000000" cy="125840000.000000" r="850000.000000" /> 
</g>
<g >
</g>
<g style="fill:#000000; fill-opacity:1.0; 
stroke:#000000; stroke-width:1.000000; stroke-opacity:1; 
stroke-linecap:round; stroke-linejoin:round;">
<path style="fill:#000000; fill-opacity:1.0; 
stroke:#000000; stroke-width:1.000000; stroke-opacity:1; 
stroke-linecap:round; stroke-linejoin:round;fill-rule:evenodd;"
d="M 110983001.000000,75177999.000000
110983001.000000,73378001.000000
112782999.000000,73378001.000000
112782999.000000,75177999.000000
Z" /> 
<circle cx="114423000.000000" cy="74278000.000000" r="900000.000000" /> 
</g>
<g style="fill:#000000; fill-opacity:1.0; 
stroke:#000000; stroke-width:21200.000000; stroke-opacity:1; 
stroke-linecap:round; stroke-linejoin:round;">
</g>
<g >
</g>
<g style="fill:#000000; fill-opacity:1.0; 
stroke:#000000; stroke-width:21200.000000; stroke-opacity:1; 
stroke-linecap:round; stroke-linejoin:round;">
</g>
<g style="fill:#000000; fill-opacity:1.0; 
stroke:#000000; stroke-width:1.000000; stroke-opacity:1; 
stroke-linecap:round; stroke-linejoin:round;">
<path style="fill:#000000; fill-opacity:1.0; 
stroke:#000000; stroke-width:1.000000; stroke-opacity:1; 
stroke-linecap:round; stroke-linejoin:round;fill-rule:evenodd;"
d="M 139800001.000000,75839999.000000
139800001.000000,74240001.000000
141399999.000000,74240001.000000
141399999.000000,75839999.000000
Z" /> 
<circle cx="140600000.000000" cy="77580000.000000" r="800000.000000" /> 
<circle cx="140600000.000000" cy="80120000.000000" r="800000.000000" /> 
<circle cx="140600000.000000" cy="82660000.000000" r="800000.000000" /> 
<circle cx="140600000.000000" cy="85200000.000000" r="800000.000000" /> 
<circle cx="140600000.000000" cy="87740000.000000" r="800000.000000" /> 
<circle cx="140600000.000000" cy="90280000.000000" r="800000.000000" /> 
<circle cx="140600000.000000" cy="92820000.000000" r="800000.000000" /> 
<circle cx="140600000.000000" cy="95360000.000000" r="800000.000000" /> 
<circle cx="140600000.000000" cy="97900000.000000" r="800000.000000" /> 
<circle cx="140600000.000000" cy="100440000.000000" r="800000.000000" /> 
<circle cx="140600000.000000" cy="102980000.000000" r="800000.000000" /> 
<circle cx="140600000.000000" cy="105520000.000000" r="800000.000000" /> 
<circle cx="140600000.000000" cy="108060000.000000" r="800000.000000" /> 
<circle cx="140600000.000000" cy="110600000.000000" r="800000.000000" /> 
<circle cx="155840000.000000" cy="110600000.000000" r="800000.000000" /> 
<circle cx="155840000.000000" cy="108060000.000000" r="800000.000000" /> 
<circle cx="155840000.000000" cy="105520000.000000" r="800000.000000" /> 
<circle cx="155840000.000000" cy="102980000.000000" r="800000.000000" /> 
<circle cx="155840000.000000" cy="100440000.000000" r="800000.000000" /> 
<circle cx="155840000.000000" cy="97900000.000000" r="800000.000000" /> 
<circle cx="155840000.000000" cy="95360000.000000" r="800000.000000" /> 
<circle cx="155840000.000000" cy="92820000.000000" r="800000.000000" /> 
<circle cx="155840000.000000" cy="90280000.000000" r="800000.000000" /> 
<circle cx="155840000.000000" cy="87740000.000000" r="800000.000000" /> 
<circle cx="155840000.000000" cy="85200000.000000" r="800000.000000" /> 
<circle cx="155840000.000000" cy="82660000.000000" r="800000.000000" /> 
<circle cx="155840000.000000" cy="80120000.000000" r="800000.000000" /> 
<circle cx="155840000.000000" cy="77580000.000000" r="800000.000000" /> 
<circle cx="155840000.000000" cy="75040000.000000" r="800000.000000" /> 
</g>
<g >
</g>
<g style="fill:#000000; fill-opacity:1.0; 
stroke:#000000; stroke-width:1.000000; stroke-opacity:1; 
stroke-linecap:round; stroke-linejoin:round;">
<path style="fill:#000000; fill-opacity:1.0; 
stroke:#000000; stroke-width:1.000000; stroke-opacity:1; 
stroke-linecap:round; stroke-linejoin:round;fill-rule:evenodd;"
d="M 110663000.000000,116545000.000000
110679073.000000,116548197.000000
110692698.000000,116557302.000000
110701803.000000,116570927.000000
110705000.000000,116587000.000000
110705000.000000,118473000.000000
110701803.000000,118489073.000000
110692698.000000,118502698.000000
110679073.000000,118511803.000000
110663000.000000,118515000.000000
110147000.000000,118515000.000000
110130927.000000,118511803.000000
110117302.000000,118502698.000000
110108197.000000,118489073.000000
110105000.000000,118473000.000000
110105000.000000,116587000.000000
110108197.000000,116570927.000000
110117302.000000,116557302.000000
110130927.000000,116548197.000000
110147000.000000,116545000.000000
Z" /> 
<path style="fill:#000000; fill-opacity:1.0; 
stroke:#000000; stroke-width:1.000000; stroke-opacity:1; 
stroke-linecap:round; stroke-linejoin:round;fill-rule:evenodd;"
d="M 109393000.000000,116545000.000000
109409073.000000,116548197.000000
109422698.000000,116557302.000000
109431803.000000,116570927.000000
109435000.000000,116587000.000000
109435000.000000,118473000.000000
109431803.000000,118489073.000000
109422698.000000,118502698.000000
109409073.000000,118511803.000000
109393000.000000,118515000.000000
108877000.000000,118515000.000000
108860927.000000,118511803.000000
108847302.000000,118502698.000000
108838197.000000,118489073.000000
108835000.000000,118473000.000000
108835000.000000,116587000.000000
108838197.000000,116570927.000000
108847302.000000,116557302.000000
108860927.000000,116548197.000000
108877000.000000,116545000.000000
Z" /> 
<path style="fill:#000000; fill-opacity:1.0; 
stroke:#000000; stroke-width:1.000000; stroke-opacity:1; 
stroke-linecap:round; stroke-linejoin:round;fill-rule:evenodd;"
d="M 108123000.000000,116545000.000000
108139073.000000,116548197.000000
108152698.000000,116557302.000000
108161803.000000,116570927.000000
108165000.000000,116587000.000000
108165000.000000,118473000.000000
108161803.000000,118489073.000000
108152698.000000,118502698.000000
108139073.000000,118511803.000000
108123000.000000,118515000.000000
107607000.000000,118515000.000000
107590927.000000,118511803.000000
107577302.000000,118502698.000000
107568197.000000,118489073.000000
107565000.000000,118473000.000000
107565000.000000,116587000.000000
107568197.000000,116570927.000000
107577302.000000,116557302.000000
107590927.000000,116548197.000000
107607000.000000,116545000.000000
Z" /> 
<path style="fill:#000000; fill-opacity:1.0; 
stroke:#000000; stroke-width:1.000000; stroke-opacity:1; 
stroke-linecap:round; stroke-linejoin:round;fill-rule:evenodd;"
d="M 106853000.000000,116545000.000000
106869073.000000,116548197.000000
106882698.000000,116557302.000000
106891803.000000,116570927.000000
106895000.000000,116587000.000000
106895000.000000,118473000.000000
106891803.000000,118489073.000000
106882698.000000,118502698.000000
106869073.000000,118511803.000000
106853000.000000,118515000.000000
106337000.000000,118515000.000000
106320927.000000,118511803.000000
106307302.000000,118502698.000000
106298197.000000,118489073.000000
106295000.000000,118473000.000000
106295000.000000,116587000.000000
106298197.000000,116570927.000000
106307302.000000,116557302.000000
106320927.000000,116548197.000000
106337000.000000,116545000.000000
Z" /> 
<path style="fill:#000000; fill-opacity:1.0; 
stroke:#000000; stroke-width:1.000000; stroke-opacity:1; 
stroke-linecap:round; stroke-linejoin:round;fill-rule:evenodd;"
d="M 106853000.000000,121485000.000000
106869073.000000,121488197.000000
106882698.000000,121497302.000000
106891803.000000,121510927.000000
106895000.000000,121527000.000000
106895000.000000,123413000.000000
106891803.000000,123429073.000000
106882698.000000,123442698.000000
106869073.000000,123451803.000000
106853000.000000,123455000.000000
106337000.000000,123455000.000000
106320927.000000,123451803.000000
106307302.000000,123442698.000000
106298197.000000,123429073.000000
106295000.000000,123413000.000000
106295000.000000,121527000.000000
106298197.000000,121510927.000000
106307302.000000,121497302.000000
106320927.000000,121488197.000000
106337000.000000,121485000.000000
Z" /> 
<path style="fill:#000000; fill-opacity:1.0; 
stroke:#000000; stroke-width:1.000000; stroke-opacity:1; 
stroke-linecap:round; stroke-linejoin:round;fill-rule:evenodd;"
d="M 108123000.000000,121485000.000000
108139073.000000,121488197.000000
108152698.000000,121497302.000000
108161803.000000,121510927.000000
108165000.000000,121527000.000000
108165000.000000,123413000.000000
108161803.000000,123429073.000000
108152698.000000,123442698.000000
108139073.000000,123451803.000000
108123000.000000,123455000.000000
107607000.000000,123455000.000000
107590927.000000,123451803.000000
107577302.000000,123442698.000000
107568197.000000,123429073.000000
107565000.000000,123413000.000000
107565000.000000,121527000.000000
107568197.000000,121510927.000000
107577302.000000,121497302.000000
107590927.000000,121488197.000000
107607000.000000,121485000.000000
Z" /> 
<path style="fill:#000000; fill-opacity:1.0; 
stroke:#000000; stroke-width:1.000000; stroke-opacity:1; 
stroke-linecap:round; stroke-linejoin:round;fill-rule:evenodd;"
d="M 109393000.000000,121485000.000000
109409073.000000,121488197.000000
109422698.000000,121497302.000000
109431803.000000,121510927.000000
109435000.000000,121527000.000000
109435000.000000,123413000.000000
109431803.000000,123429073.000000
109422698.000000,123442698.000000
109409073.000000,123451803.000000
109393000.000000,123455000.000000
108877000.000000,123455000.000000
108860927.000000,123451803.000000
108847302.000000,123442698.000000
108838197.000000,123429073.000000
108835000.000000,123413000.000000
108835000.000000,121527000.000000
108838197.000000,121510927.000000
108847302.000000,121497302.000000
108860927.000000,121488197.000000
108877000.000000,121485000.000000
Z" /> 
<path style="fill:#000000; fill-opacity:1.0; 
stroke:#000000; stroke-width:1.000000; stroke-opacity:1; 
stroke-linecap:round; stroke-linejoin:round;fill-rule:evenodd;"
d="M 110663000.000000,121485000.000000
110679073.000000,121488197.000000
110692698.000000,121497302.000000
110701803.000000,121510927.000000
110705000.000000,121527000.000000
110705000.000000,123413000.000000
110701803.000000,123429073.000000
110692698.000000,123442698.000000
110679073.000000,123451803.000000
110663000.000000,123455000.000000
110147000.000000,123455000.000000
110130927.000000,123451803.000000
110117302.000000,123442698.000000
110108197.000000,123429073.000000
110105000.000000,123413000.000000
110105000.000000,121527000.000000
110108197.000000,121510927.000000
110117302.000000,121497302.000000
110130927.000000,121488197.000000
110147000.000000,121485000.000000
Z" /> 
</g>
<g >
</g>
<g style="fill:#000000; fill-opacity:1.0; 
stroke:#000000; stroke-width:1.000000; stroke-opacity:1; 
stroke-linecap:round; stroke-linejoin:round;">
<circle cx="127128000.000000" cy="131174000.000000" r="800000.000000" /> 
</g>
<g style="fill:#000000; fill-opacity:1.0; 
stroke:#000000; stroke-width:21200.000000; stroke-opacity:1; 
stroke-linecap:round; stroke-linejoin:round;">
</g>
<g style="fill:#000000; fill-opacity:1.0; 
stroke:#000000; stroke-width:1.000000; stroke-opacity:1; 
stroke-linecap:round; stroke-linejoin:round;">
<circle cx="116968000.000000" cy="131174000.000000" r="800000.000000" /> 
</g>
<g >
</g>
<g style="fill:#000000; fill-opacity:1.0; 
stroke:#000000; stroke-width:1.000000; stroke-opacity:1; 
stroke-linecap:round; stroke-linejoin:round;">
<circle cx="94747056.000000" cy="53947056.000000" r="400000.000000" /> 
</g>
<g style="fill:#000000; fill-opacity:1.0; 
stroke:#000000; stroke-width:21200.000000; stroke-opacity:1; 
stroke-linecap:round; stroke-linejoin:round;">
</g>
<g style="fill:#000000; fill-opacity:1.0; 
stroke:#000000; stroke-width:1.000000; stroke-opacity:1; 
stroke-linecap:round; stroke-linejoin:round;">
<circle cx="93050000.000000" cy="49850000.000000" r="400000.000000" /> 
</g>
<g style="fill:#000000; fill-opacity:1.0; 
stroke:#000000; stroke-width:21200.000000; stroke-opacity:1; 
stroke-linecap:round; stroke-linejoin:round;">
</g>
<g style="fill:#000000; fill-opacity:1.0; 
stroke:#000000; stroke-width:1.000000; stroke-opacity:1; 
stroke-linecap:round; stroke-linejoin:round;">
<circle cx="91352944.000000" cy="53947056.000000" r="400000.000000" /> 
</g>
<g style="fill:#000000; fill-opacity:1.0; 
stroke:#000000; stroke-width:21200.000000; stroke-opacity:1; 
stroke-linecap:round; stroke-linejoin:round;">
</g>
<g style="fill:#000000; fill-opacity:1.0; 
stroke:#000000; stroke-width:1.000000; stroke-opacity:1; 
stroke-linecap:round; stroke-linejoin:round;">
<circle cx="90650000.000000" cy="52250000.000000" r="400000.000000" /> 
</g>
<g style="fill:#000000; fill-opacity:1.0; 
stroke:#000000; stroke-width:21200.000000; stroke-opacity:1; 
stroke-linecap:round; stroke-linejoin:round;">
</g>
<g style="fill:#000000; fill-opacity:1.0; 
stroke:#000000; stroke-width:1.000000; stroke-opacity:1; 
stroke-linecap:round; stroke-linejoin:round;">
<circle cx="93050000.000000" cy="52250000.000000" r="3200000.000000" /> 
</g>
<g style="fill:#000000; fill-opacity:1.0; 
stroke:#000000; stroke-width:21200.000000; stroke-opacity:1; 
stroke-linecap:round; stroke-linejoin:round;">
</g>
<g style="fill:#000000; fill-opacity:1.0; 
stroke:#000000; stroke-width:1.000000; stroke-opacity:1; 
stroke-linecap:round; stroke-linejoin:round;">
<circle cx="94747056.000000" cy="50552944.000000" r="400000.000000" /> 
</g>
<g style="fill:#000000; fill-opacity:1.0; 
stroke:#000000; stroke-width:21200.000000; stroke-opacity:1; 
stroke-linecap:round; stroke-linejoin:round;">
</g>
<g style="fill:#000000; fill-opacity:1.0; 
stroke:#000000; stroke-width:1.000000; stroke-opacity:1; 
stroke-linecap:round; stroke-linejoin:round;">
<circle cx="93050000.000000" cy="54650000.000000" r="400000.000000" /> 
</g>
<g style="fill:#000000; fill-opacity:1.0; 
stroke:#000000; stroke-width:21200.000000; stroke-opacity:1; 
stroke-linecap:round; stroke-linejoin:round;">
</g>
<g style="fill:#000000; fill-opacity:1.0; 
stroke:#000000; stroke-width:1.000000; stroke-opacity:1; 
stroke-linecap:round; stroke-linejoin:round;">
<circle cx="95450000.000000" cy="52250000.000000" r="400000.000000" /> 
</g>
<g style="fill:#000000; fill-opacity:1.0; 
stroke:#000000; stroke-width:21200.000000; stroke-opacity:1; 
stroke-linecap:round; stroke-linejoin:round;">
</g>
<g style="fill:#000000; fill-opacity:1.0; 
stroke:#000000; stroke-width:1.000000; stroke-opacity:1; 
stroke-linecap:round; stroke-linejoin:round;">
<circle cx="91352944.000000" cy="50552944.000000" r="400000.000000" /> 
</g>
<g style="fill:#000000; fill-opacity:1.0; 
stroke:#000000; stroke-width:21200.000000; stroke-opacity:1; 
stroke-linecap:round; stroke-linejoin:round;">
</g>
<g >
</g>
<g style="fill:#000000; fill-opacity:1.0; 
stroke:#000000; stroke-width:21200.000000; stroke-opacity:1; 
stroke-linecap:round; stroke-linejoin:round;">
</g>
<g style="fill:#000000; fill-opacity:1.0; 
stroke:#000000; stroke-width:1.000000; stroke-opacity:1; 
stroke-linecap:round; stroke-linejoin:round;">
<path style="fill:#000000; fill-opacity:1.0; 
stroke:#000000; stroke-width:1.000000; stroke-opacity:1; 
stroke-linecap:round; stroke-linejoin:round;fill-rule:evenodd;"
d="M 134274999.000000,53374001.000000
134274999.000000,55973999.000000
131675001.000000,55973999.000000
131675001.000000,53374001.000000
Z" /> 
<circle cx="127895000.000000" cy="54674000.000000" r="1300000.000000" /> 
</g>
<g style="fill:#000000; fill-opacity:1.0; 
stroke:#000000; stroke-width:21200.000000; stroke-opacity:1; 
stroke-linecap:round; stroke-linejoin:round;">
</g>
<g style="fill:#000000; fill-opacity:1.0; 
stroke:#000000; stroke-width:1.000000; stroke-opacity:1; 
stroke-linecap:round; stroke-linejoin:round;">
<circle cx="122815000.000000" cy="54674000.000000" r="1300000.000000" /> 
</g>
<g style="fill:#000000; fill-opacity:1.0; 
stroke:#000000; stroke-width:21200.000000; stroke-opacity:1; 
stroke-linecap:round; stroke-linejoin:round;">
</g>
<g >
</g>
<g style="fill:#000000; fill-opacity:1.0; 
stroke:#000000; stroke-width:21200.000000; stroke-opacity:1; 
stroke-linecap:round; stroke-linejoin:round;">
</g>
<g style="fill:#000000; fill-opacity:1.0; 
stroke:#000000; stroke-width:1.000000; stroke-opacity:1; 
stroke-linecap:round; stroke-linejoin:round;">
<circle cx="115190000.000000" cy="97138000.000000" r="750000.000000" /> 
</g>
<g style="fill:#000000; fill-opacity:1.0; 
stroke:#000000; stroke-width:21200.000000; stroke-opacity:1; 
stroke-linecap:round; stroke-linejoin:round;">
</g>
<g style="fill:#000000; fill-opacity:1.0; 
stroke:#000000; stroke-width:1.000000; stroke-opacity:1; 
stroke-linecap:round; stroke-linejoin:round;">
<circle cx="120070000.000000" cy="97138000.000000" r="750000.000000" /> 
</g>
<g style="fill:#000000; fill-opacity:1.0; 
stroke:#000000; stroke-width:21200.000000; stroke-opacity:1; 
stroke-linecap:round; stroke-linejoin:round;">
</g>
<g >
</g>
<g style="fill:#000000; fill-opacity:1.0; 
stroke:#000000; stroke-width:21200.000000; stroke-opacity:1; 
stroke-linecap:round; stroke-linejoin:round;">
</g>
<g style="fill:#000000; fill-opacity:1.0; 
stroke:#000000; stroke-width:1.000000; stroke-opacity:1; 
stroke-linecap:round; stroke-linejoin:round;">
<path style="fill:#000000; fill-opacity:1.0; 
stroke:#000000; stroke-width:1.000000; stroke-opacity:1; 
stroke-linecap:round; stroke-linejoin:round;fill-rule:evenodd;"
d="M 155038001.000000,138361999.000000
155038001.000000,135762001.000000
157637999.000000,135762001.000000
157637999.000000,138361999.000000
Z" /> 
<circle cx="161418000.000000" cy="137062000.000000" r="1300000.000000" /> 
</g>
<g style="fill:#000000; fill-opacity:1.0; 
stroke:#000000; stroke-width:21200.000000; stroke-opacity:1; 
stroke-linecap:round; stroke-linejoin:round;">
</g>
<g style="fill:#000000; fill-opacity:1.0; 
stroke:#000000; stroke-width:1.000000; stroke-opacity:1; 
stroke-linecap:round; stroke-linejoin:round;">
<circle cx="166498000.000000" cy="137062000.000000" r="1300000.000000" /> 
</g>
<g style="fill:#000000; fill-opacity:1.0; 
stroke:#000000; stroke-width:21200.000000; stroke-opacity:1; 
stroke-linecap:round; stroke-linejoin:round;">
</g>
<g style="fill:#000000; fill-opacity:1.0; 
stroke:#000000; stroke-width:1.000000; stroke-opacity:1; 
stroke-linecap:round; stroke-linejoin:round;">
<circle cx="171578000.000000" cy="137062000.000000" r="1300000.000000" /> 
</g>
<g style="fill:#000000; fill-opacity:1.0; 
stroke:#000000; stroke-width:21200.000000; stroke-opacity:1; 
stroke-linecap:round; stroke-linejoin:round;">
</g>
<g >
</g>
<g style="fill:#000000; fill-opacity:1.0; 
stroke:#000000; stroke-width:21200.000000; stroke-opacity:1; 
stroke-linecap:round; stroke-linejoin:round;">
</g>
<g style="fill:#000000; fill-opacity:1.0; 
stroke:#000000; stroke-width:1.000000; stroke-opacity:1; 
stroke-linecap:round; stroke-linejoin:round;">
<circle cx="130430000.000000" cy="96630000.000000" r="800000.000000" /> 
</g>
<g style="fill:#000000; fill-opacity:1.0; 
stroke:#000000; stroke-width:21200.000000; stroke-opacity:1; 
stroke-linecap:round; stroke-linejoin:round;">
</g>
<g style="fill:#000000; fill-opacity:1.0; 
stroke:#000000; stroke-width:1.000000; stroke-opacity:1; 
stroke-linecap:round; stroke-linejoin:round;">
<circle cx="130430000.000000" cy="106790000.000000" r="800000.000000" /> 
</g>
<g >
</g>
<g style="fill:#000000; fill-opacity:1.0; 
stroke:#000000; stroke-width:1.000000; stroke-opacity:1; 
stroke-linecap:round; stroke-linejoin:round;">
<circle cx="95450000.000000" cy="139650000.000000" r="400000.000000" /> 
</g>
<g style="fill:#000000; fill-opacity:1.0; 
stroke:#000000; stroke-width:21200.000000; stroke-opacity:1; 
stroke-linecap:round; stroke-linejoin:round;">
</g>
<g style="fill:#000000; fill-opacity:1.0; 
stroke:#000000; stroke-width:1.000000; stroke-opacity:1; 
stroke-linecap:round; stroke-linejoin:round;">
<circle cx="91352944.000000" cy="141347056.000000" r="400000.000000" /> 
</g>
<g style="fill:#000000; fill-opacity:1.0; 
stroke:#000000; stroke-width:21200.000000; stroke-opacity:1; 
stroke-linecap:round; stroke-linejoin:round;">
</g>
<g style="fill:#000000; fill-opacity:1.0; 
stroke:#000000; stroke-width:1.000000; stroke-opacity:1; 
stroke-linecap:round; stroke-linejoin:round;">
<circle cx="94747056.000000" cy="137952944.000000" r="400000.000000" /> 
</g>
<g style="fill:#000000; fill-opacity:1.0; 
stroke:#000000; stroke-width:21200.000000; stroke-opacity:1; 
stroke-linecap:round; stroke-linejoin:round;">
</g>
<g style="fill:#000000; fill-opacity:1.0; 
stroke:#000000; stroke-width:1.000000; stroke-opacity:1; 
stroke-linecap:round; stroke-linejoin:round;">
<circle cx="94747056.000000" cy="141347056.000000" r="400000.000000" /> 
</g>
<g style="fill:#000000; fill-opacity:1.0; 
stroke:#000000; stroke-width:21200.000000; stroke-opacity:1; 
stroke-linecap:round; stroke-linejoin:round;">
</g>
<g style="fill:#000000; fill-opacity:1.0; 
stroke:#000000; stroke-width:1.000000; stroke-opacity:1; 
stroke-linecap:round; stroke-linejoin:round;">
<circle cx="93050000.000000" cy="137250000.000000" r="400000.000000" /> 
</g>
<g style="fill:#000000; fill-opacity:1.0; 
stroke:#000000; stroke-width:21200.000000; stroke-opacity:1; 
stroke-linecap:round; stroke-linejoin:round;">
</g>
<g style="fill:#000000; fill-opacity:1.0; 
stroke:#000000; stroke-width:1.000000; stroke-opacity:1; 
stroke-linecap:round; stroke-linejoin:round;">
<circle cx="90650000.000000" cy="139650000.000000" r="400000.000000" /> 
</g>
<g style="fill:#000000; fill-opacity:1.0; 
stroke:#000000; stroke-width:21200.000000; stroke-opacity:1; 
stroke-linecap:round; stroke-linejoin:round;">
</g>
<g style="fill:#000000; fill-opacity:1.0; 
stroke:#000000; stroke-width:1.000000; stroke-opacity:1; 
stroke-linecap:round; stroke-linejoin:round;">
<circle cx="93050000.000000" cy="139650000.000000" r="3200000.000000" /> 
</g>
<g style="fill:#000000; fill-opacity:1.0; 
stroke:#000000; stroke-width:21200.000000; stroke-opacity:1; 
stroke-linecap:round; stroke-linejoin:round;">
</g>
<g style="fill:#000000; fill-opacity:1.0; 
stroke:#000000; stroke-width:1.000000; stroke-opacity:1; 
stroke-linecap:round; stroke-linejoin:round;">
<circle cx="93050000.000000" cy="142050000.000000" r="400000.000000" /> 
</g>
<g style="fill:#000000; fill-opacity:1.0; 
stroke:#000000; stroke-width:21200.000000; stroke-opacity:1; 
stroke-linecap:round; stroke-linejoin:round;">
</g>
<g style="fill:#000000; fill-opacity:1.0; 
stroke:#000000; stroke-width:1.000000; stroke-opacity:1; 
stroke-linecap:round; stroke-linejoin:round;">
<circle cx="91352944.000000" cy="137952944.000000" r="400000.000000" /> 
</g>
<g style="fill:#000000; fill-opacity:1.0; 
stroke:#000000; stroke-width:21200.000000; stroke-opacity:1; 
stroke-linecap:round; stroke-linejoin:round;">
</g>
<g >
</g>
<g style="fill:#000000; fill-opacity:1.0; 
stroke:#000000; stroke-width:21200.000000; stroke-opacity:1; 
stroke-linecap:round; stroke-linejoin:round;">
</g>
<g style="fill:#000000; fill-opacity:1.0; 
stroke:#000000; stroke-width:1.000000; stroke-opacity:1; 
stroke-linecap:round; stroke-linejoin:round;">
<path style="fill:#000000; fill-opacity:1.0; 
stroke:#000000; stroke-width:1.000000; stroke-opacity:1; 
stroke-linecap:round; stroke-linejoin:round;fill-rule:evenodd;"
d="M 94840001.000000,62564001.000000
97439999.000000,62564001.000000
97439999.000000,65163999.000000
94840001.000000,65163999.000000
Z" /> 
<circle cx="96140000.000000" cy="68944000.000000" r="1300000.000000" /> 
</g>
<g style="fill:#000000; fill-opacity:1.0; 
stroke:#000000; stroke-width:21200.000000; stroke-opacity:1; 
stroke-linecap:round; stroke-linejoin:round;">
</g>
<g style="fill:#000000; fill-opacity:1.0; 
stroke:#000000; stroke-width:1.000000; stroke-opacity:1; 
stroke-linecap:round; stroke-linejoin:round;">
<circle cx="96140000.000000" cy="74024000.000000" r="1300000.000000" /> 
</g>
<g style="fill:#000000; fill-opacity:1.0; 
stroke:#000000; stroke-width:21200.000000; stroke-opacity:1; 
stroke-linecap:round; stroke-linejoin:round;">
</g>
<g style="fill:#000000; fill-opacity:1.0; 
stroke:#000000; stroke-width:1.000000; stroke-opacity:1; 
stroke-linecap:round; stroke-linejoin:round;">
<circle cx="96140000.000000" cy="79104000.000000" r="1300000.000000" /> 
</g>
<g style="fill:#000000; fill-opacity:1.0; 
stroke:#000000; stroke-width:21200.000000; stroke-opacity:1; 
stroke-linecap:round; stroke-linejoin:round;">
</g>
<g style="fill:#000000; fill-opacity:1.0; 
stroke:#000000; stroke-width:1.000000; stroke-opacity:1; 
stroke-linecap:round; stroke-linejoin:round;">
<circle cx="96140000.000000" cy="84184000.000000" r="1300000.000000" /> 
</g>
<g style="fill:#000000; fill-opacity:1.0; 
stroke:#000000; stroke-width:21200.000000; stroke-opacity:1; 
stroke-linecap:round; stroke-linejoin:round;">
</g>
<g style="fill:#000000; fill-opacity:1.0; 
stroke:#000000; stroke-width:1.000000; stroke-opacity:1; 
stroke-linecap:round; stroke-linejoin:round;">
<circle cx="96140000.000000" cy="89264000.000000" r="1300000.000000" /> 
</g>
<g style="fill:#000000; fill-opacity:1.0; 
stroke:#000000; stroke-width:21200.000000; stroke-opacity:1; 
stroke-linecap:round; stroke-linejoin:round;">
</g>
<g style="fill:#000000; fill-opacity:1.0; 
stroke:#000000; stroke-width:1.000000; stroke-opacity:1; 
stroke-linecap:round; stroke-linejoin:round;">
<circle cx="96140000.000000" cy="94344000.000000" r="1300000.000000" /> 
</g>
<g style="fill:#000000; fill-opacity:1.0; 
stroke:#000000; stroke-width:21200.000000; stroke-opacity:1; 
stroke-linecap:round; stroke-linejoin:round;">
</g>
<g style="fill:#000000; fill-opacity:1.0; 
stroke:#000000; stroke-width:1.000000; stroke-opacity:1; 
stroke-linecap:round; stroke-linejoin:round;">
<circle cx="96140000.000000" cy="99424000.000000" r="1300000.000000" /> 
</g>
<g style="fill:#000000; fill-opacity:1.0; 
stroke:#000000; stroke-width:21200.000000; stroke-opacity:1; 
stroke-linecap:round; stroke-linejoin:round;">
</g>
<g style="fill:#000000; fill-opacity:1.0; 
stroke:#000000; stroke-width:1.000000; stroke-opacity:1; 
stroke-linecap:round; stroke-linejoin:round;">
<circle cx="96140000.000000" cy="104504000.000000" r="1300000.000000" /> 
</g>
<g style="fill:#000000; fill-opacity:1.0; 
stroke:#000000; stroke-width:21200.000000; stroke-opacity:1; 
stroke-linecap:round; stroke-linejoin:round;">
</g>
<g style="fill:#000000; fill-opacity:1.0; 
stroke:#000000; stroke-width:1.000000; stroke-opacity:1; 
stroke-linecap:round; stroke-linejoin:round;">
<circle cx="96140000.000000" cy="109584000.000000" r="1300000.000000" /> 
</g>
<g style="fill:#000000; fill-opacity:1.0; 
stroke:#000000; stroke-width:21200.000000; stroke-opacity:1; 
stroke-linecap:round; stroke-linejoin:round;">
</g>
<g >
</g>
<g style="fill:#000000; fill-opacity:1.0; 
stroke:#000000; stroke-width:21200.000000; stroke-opacity:1; 
stroke-linecap:round; stroke-linejoin:round;">
</g>
<g style="fill:#000000; fill-opacity:1.0; 
stroke:#000000; stroke-width:1.000000; stroke-opacity:1; 
stroke-linecap:round; stroke-linejoin:round;">
<path style="fill:#000000; fill-opacity:1.0; 
stroke:#000000; stroke-width:1.000000; stroke-opacity:1; 
stroke-linecap:round; stroke-linejoin:round;fill-rule:evenodd;"
d="M 111596001.000000,91841999.000000
111596001.000000,90242001.000000
113195999.000000,90242001.000000
113195999.000000,91841999.000000
Z" /> 
<circle cx="114896000.000000" cy="91042000.000000" r="800000.000000" /> 
</g>
<g style="fill:#000000; fill-opacity:1.0; 
stroke:#000000; stroke-width:21200.000000; stroke-opacity:1; 
stroke-linecap:round; stroke-linejoin:round;">
</g>
<g >
</g>
<g style="fill:#000000; fill-opacity:1.0; 
stroke:#000000; stroke-width:21200.000000; stroke-opacity:1; 
stroke-linecap:round; stroke-linejoin:round;">
</g>
<g style="fill:#000000; fill-opacity:1.0; 
stroke:#000000; stroke-width:1.000000; stroke-opacity:1; 
stroke-linecap:round; stroke-linejoin:round;">
<path style="fill:#000000; fill-opacity:1.0; 
stroke:#000000; stroke-width:1.000000; stroke-opacity:1; 
stroke-linecap:round; stroke-linejoin:round;fill-rule:evenodd;"
d="M 103594889.000000,113399999.000000
103594889.000000,111800001.000000
105194887.000000,111800001.000000
105194887.000000,113399999.000000
Z" /> 
<circle cx="106894888.000000" cy="112600000.000000" r="800000.000000" /> 
</g>
<g style="fill:#000000; fill-opacity:1.0; 
stroke:#000000; stroke-width:21200.000000; stroke-opacity:1; 
stroke-linecap:round; stroke-linejoin:round;">
</g>
<g >
</g>
<g style="fill:#000000; fill-opacity:1.0; 
stroke:#000000; stroke-width:21200.000000; stroke-opacity:1; 
stroke-linecap:round; stroke-linejoin:round;">
</g>
<g style="fill:#000000; fill-opacity:1.0; 
stroke:#000000; stroke-width:1.000000; stroke-opacity:1; 
stroke-linecap:round; stroke-linejoin:round;">
<path style="fill:#000000; fill-opacity:1.0; 
stroke:#000000; stroke-width:1.000000; stroke-opacity:1; 
stroke-linecap:round; stroke-linejoin:round;fill-rule:evenodd;"
d="M 167055622.000000,68473999.000000
167055622.000000,66874001.000000
168655620.000000,66874001.000000
168655620.000000,68473999.000000
Z" /> 
<circle cx="170355621.000000" cy="67674000.000000" r="800000.000000" /> 
</g>
<g style="fill:#000000; fill-opacity:1.0; 
stroke:#000000; stroke-width:21200.000000; stroke-opacity:1; 
stroke-linecap:round; stroke-linejoin:round;">
</g>
<g >
</g>
<g style="fill:#000000; fill-opacity:1.0; 
stroke:#000000; stroke-width:21200.000000; stroke-opacity:1; 
stroke-linecap:round; stroke-linejoin:round;">
</g>
<g style="fill:#000000; fill-opacity:1.0; 
stroke:#000000; stroke-width:1.000000; stroke-opacity:1; 
stroke-linecap:round; stroke-linejoin:round;">
<path style="fill:#000000; fill-opacity:1.0; 
stroke:#000000; stroke-width:1.000000; stroke-opacity:1; 
stroke-linecap:round; stroke-linejoin:round;fill-rule:evenodd;"
d="M 133194001.000000,138361999.000000
133194001.000000,135762001.000000
135793999.000000,135762001.000000
135793999.000000,138361999.000000
Z" /> 
<circle cx="139574000.000000" cy="137062000.000000" r="1300000.000000" /> 
</g>
<g style="fill:#000000; fill-opacity:1.0; 
stroke:#000000; stroke-width:21200.000000; stroke-opacity:1; 
stroke-linecap:round; stroke-linejoin:round;">
</g>
<g style="fill:#000000; fill-opacity:1.0; 
stroke:#000000; stroke-width:1.000000; stroke-opacity:1; 
stroke-linecap:round; stroke-linejoin:round;">
<circle cx="144654000.000000" cy="137062000.000000" r="1300000.000000" /> 
</g>
<g style="fill:#000000; fill-opacity:1.0; 
stroke:#000000; stroke-width:21200.000000; stroke-opacity:1; 
stroke-linecap:round; stroke-linejoin:round;">
</g>
<g style="fill:#000000; fill-opacity:1.0; 
stroke:#000000; stroke-width:1.000000; stroke-opacity:1; 
stroke-linecap:round; stroke-linejoin:round;">
<circle cx="149734000.000000" cy="137062000.000000" r="1300000.000000" /> 
</g>
<g style="fill:#000000; fill-opacity:1.0; 
stroke:#000000; stroke-width:21200.000000; stroke-opacity:1; 
stroke-linecap:round; stroke-linejoin:round;">
</g>
<g >
</g>
<g style="fill:#000000; fill-opacity:1.0; 
stroke:#000000; stroke-width:21200.000000; stroke-opacity:1; 
stroke-linecap:round; stroke-linejoin:round;">
</g>
<g style="fill:#000000; fill-opacity:1.0; 
stroke:#000000; stroke-width:1.000000; stroke-opacity:1; 
stroke-linecap:round; stroke-linejoin:round;">
<circle cx="208147056.000000" cy="141347056.000000" r="400000.000000" /> 
</g>
<g style="fill:#000000; fill-opacity:1.0; 
stroke:#000000; stroke-width:21200.000000; stroke-opacity:1; 
stroke-linecap:round; stroke-linejoin:round;">
</g>
<g style="fill:#000000; fill-opacity:1.0; 
stroke:#000000; stroke-width:1.000000; stroke-opacity:1; 
stroke-linecap:round; stroke-linejoin:round;">
<circle cx="208850000.000000" cy="139650000.000000" r="400000.000000" /> 
</g>
<g style="fill:#000000; fill-opacity:1.0; 
stroke:#000000; stroke-width:21200.000000; stroke-opacity:1; 
stroke-linecap:round; stroke-linejoin:round;">
</g>
<g style="fill:#000000; fill-opacity:1.0; 
stroke:#000000; stroke-width:1.000000; stroke-opacity:1; 
stroke-linecap:round; stroke-linejoin:round;">
<circle cx="204752944.000000" cy="137952944.000000" r="400000.000000" /> 
</g>
<g style="fill:#000000; fill-opacity:1.0; 
stroke:#000000; stroke-width:21200.000000; stroke-opacity:1; 
stroke-linecap:round; stroke-linejoin:round;">
</g>
<g style="fill:#000000; fill-opacity:1.0; 
stroke:#000000; stroke-width:1.000000; stroke-opacity:1; 
stroke-linecap:round; stroke-linejoin:round;">
<circle cx="206450000.000000" cy="142050000.000000" r="400000.000000" /> 
</g>
<g style="fill:#000000; fill-opacity:1.0; 
stroke:#000000; stroke-width:21200.000000; stroke-opacity:1; 
stroke-linecap:round; stroke-linejoin:round;">
</g>
<g style="fill:#000000; fill-opacity:1.0; 
stroke:#000000; stroke-width:1.000000; stroke-opacity:1; 
stroke-linecap:round; stroke-linejoin:round;">
<circle cx="206450000.000000" cy="137250000.000000" r="400000.000000" /> 
</g>
<g style="fill:#000000; fill-opacity:1.0; 
stroke:#000000; stroke-width:21200.000000; stroke-opacity:1; 
stroke-linecap:round; stroke-linejoin:round;">
</g>
<g style="fill:#000000; fill-opacity:1.0; 
stroke:#000000; stroke-width:1.000000; stroke-opacity:1; 
stroke-linecap:round; stroke-linejoin:round;">
<circle cx="204050000.000000" cy="139650000.000000" r="400000.000000" /> 
</g>
<g style="fill:#000000; fill-opacity:1.0; 
stroke:#000000; stroke-width:21200.000000; stroke-opacity:1; 
stroke-linecap:round; stroke-linejoin:round;">
</g>
<g style="fill:#000000; fill-opacity:1.0; 
stroke:#000000; stroke-width:1.000000; stroke-opacity:1; 
stroke-linecap:round; stroke-linejoin:round;">
<circle cx="206450000.000000" cy="139650000.000000" r="3200000.000000" /> 
</g>
<g style="fill:#000000; fill-opacity:1.0; 
stroke:#000000; stroke-width:21200.000000; stroke-opacity:1; 
stroke-linecap:round; stroke-linejoin:round;">
</g>
<g style="fill:#000000; fill-opacity:1.0; 
stroke:#000000; stroke-width:1.000000; stroke-opacity:1; 
stroke-linecap:round; stroke-linejoin:round;">
<circle cx="208147056.000000" cy="137952944.000000" r="400000.000000" /> 
</g>
<g style="fill:#000000; fill-opacity:1.0; 
stroke:#000000; stroke-width:21200.000000; stroke-opacity:1; 
stroke-linecap:round; stroke-linejoin:round;">
</g>
<g style="fill:#000000; fill-opacity:1.0; 
stroke:#000000; stroke-width:1.000000; stroke-opacity:1; 
stroke-linecap:round; stroke-linejoin:round;">
<circle cx="204752944.000000" cy="141347056.000000" r="400000.000000" /> 
</g>
<g style="fill:#000000; fill-opacity:1.0; 
stroke:#000000; stroke-width:21200.000000; stroke-opacity:1; 
stroke-linecap:round; stroke-linejoin:round;">
</g>
<g >
</g>
<g style="fill:#000000; fill-opacity:1.0; 
stroke:#000000; stroke-width:21200.000000; stroke-opacity:1; 
stroke-linecap:round; stroke-linejoin:round;">
</g>
<g style="fill:#000000; fill-opacity:1.0; 
stroke:#000000; stroke-width:1.000000; stroke-opacity:1; 
stroke-linecap:round; stroke-linejoin:round;">
<path style="fill:#000000; fill-opacity:1.0; 
stroke:#000000; stroke-width:1.000000; stroke-opacity:1; 
stroke-linecap:round; stroke-linejoin:round;fill-rule:evenodd;"
d="M 162722999.000000,53250001.000000
162722999.000000,55849999.000000
160123001.000000,55849999.000000
160123001.000000,53250001.000000
Z" /> 
<circle cx="156343000.000000" cy="54550000.000000" r="1300000.000000" /> 
</g>
<g style="fill:#000000; fill-opacity:1.0; 
stroke:#000000; stroke-width:21200.000000; stroke-opacity:1; 
stroke-linecap:round; stroke-linejoin:round;">
</g>
<g >
</g>
<g style="fill:#000000; fill-opacity:1.0; 
stroke:#000000; stroke-width:21200.000000; stroke-opacity:1; 
stroke-linecap:round; stroke-linejoin:round;">
</g>
<g style="fill:#000000; fill-opacity:1.0; 
stroke:#000000; stroke-width:1.000000; stroke-opacity:1; 
stroke-linecap:round; stroke-linejoin:round;">
<path style="fill:#000000; fill-opacity:1.0; 
stroke:#000000; stroke-width:1.000000; stroke-opacity:1; 
stroke-linecap:round; stroke-linejoin:round;fill-rule:evenodd;"
d="M 175044889.000000,68649999.000000
175044889.000000,67050001.000000
176644887.000000,67050001.000000
176644887.000000,68649999.000000
Z" /> 
<circle cx="178344888.000000" cy="67850000.000000" r="800000.000000" /> 
</g>
<g style="fill:#000000; fill-opacity:1.0; 
stroke:#000000; stroke-width:21200.000000; stroke-opacity:1; 
stroke-linecap:round; stroke-linejoin:round;">
</g>
<g >
</g>
<g style="fill:#000000; fill-opacity:1.0; 
stroke:#000000; stroke-width:21200.000000; stroke-opacity:1; 
stroke-linecap:round; stroke-linejoin:round;">
</g>
<g style="fill:#000000; fill-opacity:1.0; 
stroke:#000000; stroke-width:1.000000; stroke-opacity:1; 
stroke-linecap:round; stroke-linejoin:round;">
<path style="fill:#000000; fill-opacity:1.0; 
stroke:#000000; stroke-width:1.000000; stroke-opacity:1; 
stroke-linecap:round; stroke-linejoin:round;fill-rule:evenodd;"
d="M 117510999.000000,53374001.000000
117510999.000000,55973999.000000
114911001.000000,55973999.000000
114911001.000000,53374001.000000
Z" /> 
<circle cx="111131000.000000" cy="54674000.000000" r="1300000.000000" /> 
</g>
<g style="fill:#000000; fill-opacity:1.0; 
stroke:#000000; stroke-width:21200.000000; stroke-opacity:1; 
stroke-linecap:round; stroke-linejoin:round;">
</g>
<g style="fill:#000000; fill-opacity:1.0; 
stroke:#000000; stroke-width:1.000000; stroke-opacity:1; 
stroke-linecap:round; stroke-linejoin:round;">
<circle cx="106051000.000000" cy="54674000.000000" r="1300000.000000" /> 
</g>
<g style="fill:#000000; fill-opacity:1.0; 
stroke:#000000; stroke-width:21200.000000; stroke-opacity:1; 
stroke-linecap:round; stroke-linejoin:round;">
</g>
<g >
</g>
<g style="fill:#000000; fill-opacity:1.0; 
stroke:#000000; stroke-width:21200.000000; stroke-opacity:1; 
stroke-linecap:round; stroke-linejoin:round;">
</g>
<g style="fill:#000000; fill-opacity:1.0; 
stroke:#000000; stroke-width:1.000000; stroke-opacity:1; 
stroke-linecap:round; stroke-linejoin:round;">
<path style="fill:#000000; fill-opacity:1.0; 
stroke:#000000; stroke-width:1.000000; stroke-opacity:1; 
stroke-linecap:round; stroke-linejoin:round;fill-rule:evenodd;"
d="M 174349999.000000,53250001.000000
174349999.000000,55849999.000000
171750001.000000,55849999.000000
171750001.000000,53250001.000000
Z" /> 
<circle cx="167970000.000000" cy="54550000.000000" r="1300000.000000" /> 
</g>
<g style="fill:#000000; fill-opacity:1.0; 
stroke:#000000; stroke-width:21200.000000; stroke-opacity:1; 
stroke-linecap:round; stroke-linejoin:round;">
</g>
<g >
</g>
<g style="fill:#000000; fill-opacity:1.0; 
stroke:#000000; stroke-width:21200.000000; stroke-opacity:1; 
stroke-linecap:round; stroke-linejoin:round;">
</g>
<g style="fill:#000000; fill-opacity:1.0; 
stroke:#000000; stroke-width:1.000000; stroke-opacity:1; 
stroke-linecap:round; stroke-linejoin:round;">
<path style="fill:#000000; fill-opacity:1.0; 
stroke:#000000; stroke-width:1.000000; stroke-opacity:1; 
stroke-linecap:round; stroke-linejoin:round;fill-rule:evenodd;"
d="M 173700000.000000,112525000.000000
173719030.000000,112429329.000000
173773223.000000,112348223.000000
173854329.000000,112294030.000000
173950000.000000,112275000.000000
175150000.000000,112275000.000000
175245671.000000,112294030.000000
175326777.000000,112348223.000000
175380970.000000,112429329.000000
175400000.000000,112525000.000000
175400000.000000,113975000.000000
175380970.000000,114070671.000000
175326777.000000,114151777.000000
175245671.000000,114205970.000000
175150000.000000,114225000.000000
173950000.000000,114225000.000000
173854329.000000,114205970.000000
173773223.000000,114151777.000000
173719030.000000,114070671.000000
173700000.000000,113975000.000000
Z" /> 
</g>
<g style="fill:#000000; fill-opacity:1.0; 
stroke:#000000; stroke-width:1700000.000000; stroke-opacity:1; 
stroke-linecap:round; stroke-linejoin:round;">
</g>
<g style="fill:#000000; fill-opacity:0.0; 
stroke:#000000; stroke-width:1700000.000000; stroke-opacity:1; 
stroke-linecap:round; stroke-linejoin:round;">
<path d="M177050000 113125000
L177050000 113375000
" />
<path d="M179550000 113125000
L179550000 113375000
" />
<path d="M182050000 113125000
L182050000 113375000
" />
<path d="M184550000 113125000
L184550000 113375000
" />
<path d="M187050000 113125000
L187050000 113375000
" />
</g>
<g >
</g>
<g style="fill:#000000; fill-opacity:0.0; 
stroke:#000000; stroke-width:1700000.000000; stroke-opacity:1; 
stroke-linecap:round; stroke-linejoin:round;">
</g>
<g style="fill:#000000; fill-opacity:0.0; 
stroke:#000000; stroke-width:1.000000; stroke-opacity:1; 
stroke-linecap:round; stroke-linejoin:round;">
</g>
<g style="fill:#000000; fill-opacity:1.0; 
stroke:#000000; stroke-width:1.000000; stroke-opacity:1; 
stroke-linecap:round; stroke-linejoin:round;">
<path style="fill:#000000; fill-opacity:1.0; 
stroke:#000000; stroke-width:1.000000; stroke-opacity:1; 
stroke-linecap:round; stroke-linejoin:round;fill-rule:evenodd;"
d="M 204673999.000000,122313999.000000
202074001.000000,122313999.000000
202074001.000000,119714001.000000
204673999.000000,119714001.000000
Z" /> 
<circle cx="203374000.000000" cy="115934000.000000" r="1300000.000000" /> 
</g>
<g style="fill:#000000; fill-opacity:1.0; 
stroke:#000000; stroke-width:21200.000000; stroke-opacity:1; 
stroke-linecap:round; stroke-linejoin:round;">
</g>
<g style="fill:#000000; fill-opacity:1.0; 
stroke:#000000; stroke-width:1.000000; stroke-opacity:1; 
stroke-linecap:round; stroke-linejoin:round;">
<circle cx="203374000.000000" cy="110854000.000000" r="1300000.000000" /> 
</g>
<g style="fill:#000000; fill-opacity:1.0; 
stroke:#000000; stroke-width:21200.000000; stroke-opacity:1; 
stroke-linecap:round; stroke-linejoin:round;">
</g>
<g style="fill:#000000; fill-opacity:1.0; 
stroke:#000000; stroke-width:1.000000; stroke-opacity:1; 
stroke-linecap:round; stroke-linejoin:round;">
<circle cx="203374000.000000" cy="105774000.000000" r="1300000.000000" /> 
</g>
<g style="fill:#000000; fill-opacity:1.0; 
stroke:#000000; stroke-width:21200.000000; stroke-opacity:1; 
stroke-linecap:round; stroke-linejoin:round;">
</g>
<g style="fill:#000000; fill-opacity:1.0; 
stroke:#000000; stroke-width:1.000000; stroke-opacity:1; 
stroke-linecap:round; stroke-linejoin:round;">
<circle cx="203374000.000000" cy="100694000.000000" r="1300000.000000" /> 
</g>
<g style="fill:#000000; fill-opacity:1.0; 
stroke:#000000; stroke-width:21200.000000; stroke-opacity:1; 
stroke-linecap:round; stroke-linejoin:round;">
</g>
<g style="fill:#000000; fill-opacity:1.0; 
stroke:#000000; stroke-width:1.000000; stroke-opacity:1; 
stroke-linecap:round; stroke-linejoin:round;">
<circle cx="203374000.000000" cy="95614000.000000" r="1300000.000000" /> 
</g>
<g style="fill:#000000; fill-opacity:1.0; 
stroke:#000000; stroke-width:21200.000000; stroke-opacity:1; 
stroke-linecap:round; stroke-linejoin:round;">
</g>
<g style="fill:#000000; fill-opacity:1.0; 
stroke:#000000; stroke-width:1.000000; stroke-opacity:1; 
stroke-linecap:round; stroke-linejoin:round;">
<circle cx="203374000.000000" cy="90534000.000000" r="1300000.000000" /> 
</g>
<g style="fill:#000000; fill-opacity:1.0; 
stroke:#000000; stroke-width:21200.000000; stroke-opacity:1; 
stroke-linecap:round; stroke-linejoin:round;">
</g>
<g style="fill:#000000; fill-opacity:1.0; 
stroke:#000000; stroke-width:1.000000; stroke-opacity:1; 
stroke-linecap:round; stroke-linejoin:round;">
<circle cx="203374000.000000" cy="85454000.000000" r="1300000.000000" /> 
</g>
<g style="fill:#000000; fill-opacity:1.0; 
stroke:#000000; stroke-width:21200.000000; stroke-opacity:1; 
stroke-linecap:round; stroke-linejoin:round;">
</g>
<g >
</g>
<g style="fill:#000000; fill-opacity:1.0; 
stroke:#000000; stroke-width:21200.000000; stroke-opacity:1; 
stroke-linecap:round; stroke-linejoin:round;">
</g>
<g style="fill:#000000; fill-opacity:1.0; 
stroke:#000000; stroke-width:1.000000; stroke-opacity:1; 
stroke-linecap:round; stroke-linejoin:round;">
<path style="fill:#000000; fill-opacity:1.0; 
stroke:#000000; stroke-width:1.000000; stroke-opacity:1; 
stroke-linecap:round; stroke-linejoin:round;fill-rule:evenodd;"
d="M 126707999.000000,66999999.000000
125008001.000000,66999999.000000
125008001.000000,65300001.000000
126707999.000000,65300001.000000
Z" /> 
<circle cx="128398000.000000" cy="66150000.000000" r="850000.000000" /> 
<circle cx="130938000.000000" cy="66150000.000000" r="850000.000000" /> 
</g>
<g >
</g>
<g style="fill:#000000; fill-opacity:1.0; 
stroke:#000000; stroke-width:1.000000; stroke-opacity:1; 
stroke-linecap:round; stroke-linejoin:round;">
<path style="fill:#000000; fill-opacity:1.0; 
stroke:#000000; stroke-width:1.000000; stroke-opacity:1; 
stroke-linecap:round; stroke-linejoin:round;fill-rule:evenodd;"
d="M 151038999.000000,53374001.000000
151038999.000000,55973999.000000
148439001.000000,55973999.000000
148439001.000000,53374001.000000
Z" /> 
<circle cx="144659000.000000" cy="54674000.000000" r="1300000.000000" /> 
</g>
<g style="fill:#000000; fill-opacity:1.0; 
stroke:#000000; stroke-width:21200.000000; stroke-opacity:1; 
stroke-linecap:round; stroke-linejoin:round;">
</g>
<g style="fill:#000000; fill-opacity:1.0; 
stroke:#000000; stroke-width:1.000000; stroke-opacity:1; 
stroke-linecap:round; stroke-linejoin:round;">
<circle cx="139579000.000000" cy="54674000.000000" r="1300000.000000" /> 
</g>
<g style="fill:#000000; fill-opacity:1.0; 
stroke:#000000; stroke-width:21200.000000; stroke-opacity:1; 
stroke-linecap:round; stroke-linejoin:round;">
</g>
<g >
</g>
<g >
</g>
<g style="fill:#000000; fill-opacity:1.0; 
stroke:#000000; stroke-width:21200.000000; stroke-opacity:1; 
stroke-linecap:round; stroke-linejoin:round;">
</g>
<g style="fill:#000000; fill-opacity:1.0; 
stroke:#000000; stroke-width:1.000000; stroke-opacity:1; 
stroke-linecap:round; stroke-linejoin:round;">
<circle cx="129663000.000000" cy="74278000.000000" r="800000.000000" /> 
</g>
<g style="fill:#000000; fill-opacity:1.0; 
stroke:#000000; stroke-width:21200.000000; stroke-opacity:1; 
stroke-linecap:round; stroke-linejoin:round;">
</g>
<g style="fill:#000000; fill-opacity:1.0; 
stroke:#000000; stroke-width:1.000000; stroke-opacity:1; 
stroke-linecap:round; stroke-linejoin:round;">
<circle cx="119503000.000000" cy="74278000.000000" r="800000.000000" /> 
</g>
<g >
</g>
<g style="fill:#000000; fill-opacity:1.0; 
stroke:#000000; stroke-width:1.000000; stroke-opacity:1; 
stroke-linecap:round; stroke-linejoin:round;">
<circle cx="183550000.000000" cy="67630000.000000" r="800000.000000" /> 
</g>
<g style="fill:#000000; fill-opacity:1.0; 
stroke:#000000; stroke-width:21200.000000; stroke-opacity:1; 
stroke-linecap:round; stroke-linejoin:round;">
</g>
<g style="fill:#000000; fill-opacity:1.0; 
stroke:#000000; stroke-width:1.000000; stroke-opacity:1; 
stroke-linecap:round; stroke-linejoin:round;">
<circle cx="183550000.000000" cy="57470000.000000" r="800000.000000" /> 
</g>
<g >
</g>
<g style="fill:#000000; fill-opacity:1.0; 
stroke:#000000; stroke-width:1.000000; stroke-opacity:1; 
stroke-linecap:round; stroke-linejoin:round;">
</g>
<g style="fill:#000000; fill-opacity:1.0; 
stroke:#000000; stroke-width:1650000.000000; stroke-opacity:1; 
stroke-linecap:round; stroke-linejoin:round;">
</g>
<g style="fill:#000000; fill-opacity:0.0; 
stroke:#000000; stroke-width:1650000.000000; stroke-opacity:1; 
stroke-linecap:round; stroke-linejoin:round;">
<path d="M156338000 65325000
L156338000 66975000
" />
<path d="M158878000 65325000
L158878000 66975000
" />
<path d="M161418000 65325000
L161418000 66975000
" />
</g>
<g >
</g>
<g style="fill:#000000; fill-opacity:0.0; 
stroke:#000000; stroke-width:1650000.000000; stroke-opacity:1; 
stroke-linecap:round; stroke-linejoin:round;">
</g>
<g style="fill:#000000; fill-opacity:0.0; 
stroke:#000000; stroke-width:1.000000; stroke-opacity:1; 
stroke-linecap:round; stroke-linejoin:round;">
</g>
<g style="fill:#000000; fill-opacity:1.0; 
stroke:#000000; stroke-width:1.000000; stroke-opacity:1; 
stroke-linecap:round; stroke-linejoin:round;">
<path style="fill:#000000; fill-opacity:1.0; 
stroke:#000000; stroke-width:1.000000; stroke-opacity:1; 
stroke-linecap:round; stroke-linejoin:round;fill-rule:evenodd;"
d="M 98844889.000000,117099999.000000
98844889.000000,115500001.000000
100444887.000000,115500001.000000
100444887.000000,117099999.000000
Z" /> 
<circle cx="101644888.000000" cy="116300000.000000" r="800000.000000" /> 
</g>
<g style="fill:#000000; fill-opacity:1.0; 
stroke:#000000; stroke-width:21200.000000; stroke-opacity:1; 
stroke-linecap:round; stroke-linejoin:round;">
</g>
<g >
</g>
<g style="fill:#000000; fill-opacity:1.0; 
stroke:#000000; stroke-width:21200.000000; stroke-opacity:1; 
stroke-linecap:round; stroke-linejoin:round;">
</g>
<g style="fill:#000000; fill-opacity:1.0; 
stroke:#000000; stroke-width:1.000000; stroke-opacity:1; 
stroke-linecap:round; stroke-linejoin:round;">
<path style="fill:#000000; fill-opacity:1.0; 
stroke:#000000; stroke-width:1.000000; stroke-opacity:1; 
stroke-linecap:round; stroke-linejoin:round;fill-rule:evenodd;"
d="M 143471999.000000,66999999.000000
141772001.000000,66999999.000000
141772001.000000,65300001.000000
143471999.000000,65300001.000000
Z" /> 
<circle cx="145162000.000000" cy="66150000.000000" r="850000.000000" /> 
<circle cx="147702000.000000" cy="66150000.000000" r="850000.000000" /> 
</g>
<g >
</g>
<g style="fill:#000000; fill-opacity:1.0; 
stroke:#000000; stroke-width:1.000000; stroke-opacity:1; 
stroke-linecap:round; stroke-linejoin:round;">
<path style="fill:#000000; fill-opacity:1.0; 
stroke:#000000; stroke-width:1.000000; stroke-opacity:1; 
stroke-linecap:round; stroke-linejoin:round;fill-rule:evenodd;"
d="M 104487001.000000,138361999.000000
104487001.000000,135762001.000000
107086999.000000,135762001.000000
107086999.000000,138361999.000000
Z" /> 
<circle cx="110867000.000000" cy="137062000.000000" r="1300000.000000" /> 
</g>
<g style="fill:#000000; fill-opacity:1.0; 
stroke:#000000; stroke-width:21200.000000; stroke-opacity:1; 
stroke-linecap:round; stroke-linejoin:round;">
</g>
<g >
</g>
<g style="fill:#000000; fill-opacity:1.0; 
stroke:#000000; stroke-width:21200.000000; stroke-opacity:1; 
stroke-linecap:round; stroke-linejoin:round;">
</g>
<g style="fill:#000000; fill-opacity:1.0; 
stroke:#000000; stroke-width:1.000000; stroke-opacity:1; 
stroke-linecap:round; stroke-linejoin:round;">
<path style="fill:#000000; fill-opacity:1.0; 
stroke:#000000; stroke-width:1.000000; stroke-opacity:1; 
stroke-linecap:round; stroke-linejoin:round;fill-rule:evenodd;"
d="M 117896001.000000,124990001.000000
119595999.000000,124990001.000000
119595999.000000,126689999.000000
117896001.000000,126689999.000000
Z" /> 
<circle cx="116206000.000000" cy="125840000.000000" r="850000.000000" /> 
</g>
<g >
</g>
<g style="fill:#000000; fill-opacity:1.0; 
stroke:#000000; stroke-width:1.000000; stroke-opacity:1; 
stroke-linecap:round; stroke-linejoin:round;">
<path style="fill:#000000; fill-opacity:1.0; 
stroke:#000000; stroke-width:1.000000; stroke-opacity:1; 
stroke-linecap:round; stroke-linejoin:round;fill-rule:evenodd;"
d="M 112055000.000000,104100000.000000
112066418.000000,104042597.000000
112098934.000000,103993934.000000
112147597.000000,103961418.000000
112205000.000000,103950000.000000
113955000.000000,103950000.000000
114012403.000000,103961418.000000
114061066.000000,103993934.000000
114093582.000000,104042597.000000
114105000.000000,104100000.000000
114105000.000000,104400000.000000
114093582.000000,104457403.000000
114061066.000000,104506066.000000
114012403.000000,104538582.000000
113955000.000000,104550000.000000
112205000.000000,104550000.000000
112147597.000000,104538582.000000
112098934.000000,104506066.000000
112066418.000000,104457403.000000
112055000.000000,104400000.000000
Z" /> 
<path style="fill:#000000; fill-opacity:1.0; 
stroke:#000000; stroke-width:1.000000; stroke-opacity:1; 
stroke-linecap:round; stroke-linejoin:round;fill-rule:evenodd;"
d="M 112055000.000000,105370000.000000
112066418.000000,105312597.000000
112098934.000000,105263934.000000
112147597.000000,105231418.000000
112205000.000000,105220000.000000
113955000.000000,105220000.000000
114012403.000000,105231418.000000
114061066.000000,105263934.000000
114093582.000000,105312597.000000
114105000.000000,105370000.000000
114105000.000000,105670000.000000
114093582.000000,105727403.000000
114061066.000000,105776066.000000
114012403.000000,105808582.000000
113955000.000000,105820000.000000
112205000.000000,105820000.000000
112147597.000000,105808582.000000
112098934.000000,105776066.000000
112066418.000000,105727403.000000
112055000.000000,105670000.000000
Z" /> 
<path style="fill:#000000; fill-opacity:1.0; 
stroke:#000000; stroke-width:1.000000; stroke-opacity:1; 
stroke-linecap:round; stroke-linejoin:round;fill-rule:evenodd;"
d="M 112055000.000000,106640000.000000
112066418.000000,106582597.000000
112098934.000000,106533934.000000
112147597.000000,106501418.000000
112205000.000000,106490000.000000
113955000.000000,106490000.000000
114012403.000000,106501418.000000
114061066.000000,106533934.000000
114093582.000000,106582597.000000
114105000.000000,106640000.000000
114105000.000000,106940000.000000
114093582.000000,106997403.000000
114061066.000000,107046066.000000
114012403.000000,107078582.000000
113955000.000000,107090000.000000
112205000.000000,107090000.000000
112147597.000000,107078582.000000
112098934.000000,107046066.000000
112066418.000000,106997403.000000
112055000.000000,106940000.000000
Z" /> 
<path style="fill:#000000; fill-opacity:1.0; 
stroke:#000000; stroke-width:1.000000; stroke-opacity:1; 
stroke-linecap:round; stroke-linejoin:round;fill-rule:evenodd;"
d="M 112055000.000000,107910000.000000
112066418.000000,107852597.000000
112098934.000000,107803934.000000
112147597.000000,107771418.000000
112205000.000000,107760000.000000
113955000.000000,107760000.000000
114012403.000000,107771418.000000
114061066.000000,107803934.000000
114093582.000000,107852597.000000
114105000.000000,107910000.000000
114105000.000000,108210000.000000
114093582.000000,108267403.000000
114061066.000000,108316066.000000
114012403.000000,108348582.000000
113955000.000000,108360000.000000
112205000.000000,108360000.000000
112147597.000000,108348582.000000
112098934.000000,108316066.000000
112066418.000000,108267403.000000
112055000.000000,108210000.000000
Z" /> 
<path style="fill:#000000; fill-opacity:1.0; 
stroke:#000000; stroke-width:1.000000; stroke-opacity:1; 
stroke-linecap:round; stroke-linejoin:round;fill-rule:evenodd;"
d="M 112055000.000000,109180000.000000
112066418.000000,109122597.000000
112098934.000000,109073934.000000
112147597.000000,109041418.000000
112205000.000000,109030000.000000
113955000.000000,109030000.000000
114012403.000000,109041418.000000
114061066.000000,109073934.000000
114093582.000000,109122597.000000
114105000.000000,109180000.000000
114105000.000000,109480000.000000
114093582.000000,109537403.000000
114061066.000000,109586066.000000
114012403.000000,109618582.000000
113955000.000000,109630000.000000
112205000.000000,109630000.000000
112147597.000000,109618582.000000
112098934.000000,109586066.000000
112066418.000000,109537403.000000
112055000.000000,109480000.000000
Z" /> 
<path style="fill:#000000; fill-opacity:1.0; 
stroke:#000000; stroke-width:1.000000; stroke-opacity:1; 
stroke-linecap:round; stroke-linejoin:round;fill-rule:evenodd;"
d="M 112055000.000000,110450000.000000
112066418.000000,110392597.000000
112098934.000000,110343934.000000
112147597.000000,110311418.000000
112205000.000000,110300000.000000
113955000.000000,110300000.000000
114012403.000000,110311418.000000
114061066.000000,110343934.000000
114093582.000000,110392597.000000
114105000.000000,110450000.000000
114105000.000000,110750000.000000
114093582.000000,110807403.000000
114061066.000000,110856066.000000
114012403.000000,110888582.000000
113955000.000000,110900000.000000
112205000.000000,110900000.000000
112147597.000000,110888582.000000
112098934.000000,110856066.000000
112066418.000000,110807403.000000
112055000.000000,110750000.000000
Z" /> 
<path style="fill:#000000; fill-opacity:1.0; 
stroke:#000000; stroke-width:1.000000; stroke-opacity:1; 
stroke-linecap:round; stroke-linejoin:round;fill-rule:evenodd;"
d="M 112055000.000000,111720000.000000
112066418.000000,111662597.000000
112098934.000000,111613934.000000
112147597.000000,111581418.000000
112205000.000000,111570000.000000
113955000.000000,111570000.000000
114012403.000000,111581418.000000
114061066.000000,111613934.000000
114093582.000000,111662597.000000
114105000.000000,111720000.000000
114105000.000000,112020000.000000
114093582.000000,112077403.000000
114061066.000000,112126066.000000
114012403.000000,112158582.000000
113955000.000000,112170000.000000
112205000.000000,112170000.000000
112147597.000000,112158582.000000
112098934.000000,112126066.000000
112066418.000000,112077403.000000
112055000.000000,112020000.000000
Z" /> 
<path style="fill:#000000; fill-opacity:1.0; 
stroke:#000000; stroke-width:1.000000; stroke-opacity:1; 
stroke-linecap:round; stroke-linejoin:round;fill-rule:evenodd;"
d="M 112055000.000000,112990000.000000
112066418.000000,112932597.000000
112098934.000000,112883934.000000
112147597.000000,112851418.000000
112205000.000000,112840000.000000
113955000.000000,112840000.000000
114012403.000000,112851418.000000
114061066.000000,112883934.000000
114093582.000000,112932597.000000
114105000.000000,112990000.000000
114105000.000000,113290000.000000
114093582.000000,113347403.000000
114061066.000000,113396066.000000
114012403.000000,113428582.000000
113955000.000000,113440000.000000
112205000.000000,113440000.000000
112147597.000000,113428582.000000
112098934.000000,113396066.000000
112066418.000000,113347403.000000
112055000.000000,113290000.000000
Z" /> 
<path style="fill:#000000; fill-opacity:1.0; 
stroke:#000000; stroke-width:1.000000; stroke-opacity:1; 
stroke-linecap:round; stroke-linejoin:round;fill-rule:evenodd;"
d="M 112055000.000000,114260000.000000
112066418.000000,114202597.000000
112098934.000000,114153934.000000
112147597.000000,114121418.000000
112205000.000000,114110000.000000
113955000.000000,114110000.000000
114012403.000000,114121418.000000
114061066.000000,114153934.000000
114093582.000000,114202597.000000
114105000.000000,114260000.000000
114105000.000000,114560000.000000
114093582.000000,114617403.000000
114061066.000000,114666066.000000
114012403.000000,114698582.000000
113955000.000000,114710000.000000
112205000.000000,114710000.000000
112147597.000000,114698582.000000
112098934.000000,114666066.000000
112066418.000000,114617403.000000
112055000.000000,114560000.000000
Z" /> 
<path style="fill:#000000; fill-opacity:1.0; 
stroke:#000000; stroke-width:1.000000; stroke-opacity:1; 
stroke-linecap:round; stroke-linejoin:round;fill-rule:evenodd;"
d="M 121355000.000000,114260000.000000
121366418.000000,114202597.000000
121398934.000000,114153934.000000
121447597.000000,114121418.000000
121505000.000000,114110000.000000
123255000.000000,114110000.000000
123312403.000000,114121418.000000
123361066.000000,114153934.000000
123393582.000000,114202597.000000
123405000.000000,114260000.000000
123405000.000000,114560000.000000
123393582.000000,114617403.000000
123361066.000000,114666066.000000
123312403.000000,114698582.000000
123255000.000000,114710000.000000
121505000.000000,114710000.000000
121447597.000000,114698582.000000
121398934.000000,114666066.000000
121366418.000000,114617403.000000
121355000.000000,114560000.000000
Z" /> 
<path style="fill:#000000; fill-opacity:1.0; 
stroke:#000000; stroke-width:1.000000; stroke-opacity:1; 
stroke-linecap:round; stroke-linejoin:round;fill-rule:evenodd;"
d="M 121355000.000000,112990000.000000
121366418.000000,112932597.000000
121398934.000000,112883934.000000
121447597.000000,112851418.000000
121505000.000000,112840000.000000
123255000.000000,112840000.000000
123312403.000000,112851418.000000
123361066.000000,112883934.000000
123393582.000000,112932597.000000
123405000.000000,112990000.000000
123405000.000000,113290000.000000
123393582.000000,113347403.000000
123361066.000000,113396066.000000
123312403.000000,113428582.000000
123255000.000000,113440000.000000
121505000.000000,113440000.000000
121447597.000000,113428582.000000
121398934.000000,113396066.000000
121366418.000000,113347403.000000
121355000.000000,113290000.000000
Z" /> 
<path style="fill:#000000; fill-opacity:1.0; 
stroke:#000000; stroke-width:1.000000; stroke-opacity:1; 
stroke-linecap:round; stroke-linejoin:round;fill-rule:evenodd;"
d="M 121355000.000000,111720000.000000
121366418.000000,111662597.000000
121398934.000000,111613934.000000
121447597.000000,111581418.000000
121505000.000000,111570000.000000
123255000.000000,111570000.000000
123312403.000000,111581418.000000
123361066.000000,111613934.000000
123393582.000000,111662597.000000
123405000.000000,111720000.000000
123405000.000000,112020000.000000
123393582.000000,112077403.000000
123361066.000000,112126066.000000
123312403.000000,112158582.000000
123255000.000000,112170000.000000
121505000.000000,112170000.000000
121447597.000000,112158582.000000
121398934.000000,112126066.000000
121366418.000000,112077403.000000
121355000.000000,112020000.000000
Z" /> 
<path style="fill:#000000; fill-opacity:1.0; 
stroke:#000000; stroke-width:1.000000; stroke-opacity:1; 
stroke-linecap:round; stroke-linejoin:round;fill-rule:evenodd;"
d="M 121355000.000000,110450000.000000
121366418.000000,110392597.000000
121398934.000000,110343934.000000
121447597.000000,110311418.000000
121505000.000000,110300000.000000
123255000.000000,110300000.000000
123312403.000000,110311418.000000
123361066.000000,110343934.000000
123393582.000000,110392597.000000
123405000.000000,110450000.000000
123405000.000000,110750000.000000
123393582.000000,110807403.000000
123361066.000000,110856066.000000
123312403.000000,110888582.000000
123255000.000000,110900000.000000
121505000.000000,110900000.000000
121447597.000000,110888582.000000
121398934.000000,110856066.000000
121366418.000000,110807403.000000
121355000.000000,110750000.000000
Z" /> 
<path style="fill:#000000; fill-opacity:1.0; 
stroke:#000000; stroke-width:1.000000; stroke-opacity:1; 
stroke-linecap:round; stroke-linejoin:round;fill-rule:evenodd;"
d="M 121355000.000000,109180000.000000
121366418.000000,109122597.000000
121398934.000000,109073934.000000
121447597.000000,109041418.000000
121505000.000000,109030000.000000
123255000.000000,109030000.000000
123312403.000000,109041418.000000
123361066.000000,109073934.000000
123393582.000000,109122597.000000
123405000.000000,109180000.000000
123405000.000000,109480000.000000
123393582.000000,109537403.000000
123361066.000000,109586066.000000
123312403.000000,109618582.000000
123255000.000000,109630000.000000
121505000.000000,109630000.000000
121447597.000000,109618582.000000
121398934.000000,109586066.000000
121366418.000000,109537403.000000
121355000.000000,109480000.000000
Z" /> 
<path style="fill:#000000; fill-opacity:1.0; 
stroke:#000000; stroke-width:1.000000; stroke-opacity:1; 
stroke-linecap:round; stroke-linejoin:round;fill-rule:evenodd;"
d="M 121355000.000000,107910000.000000
121366418.000000,107852597.000000
121398934.000000,107803934.000000
121447597.000000,107771418.000000
121505000.000000,107760000.000000
123255000.000000,107760000.000000
123312403.000000,107771418.000000
123361066.000000,107803934.000000
123393582.000000,107852597.000000
123405000.000000,107910000.000000
123405000.000000,108210000.000000
123393582.000000,108267403.000000
123361066.000000,108316066.000000
123312403.000000,108348582.000000
123255000.000000,108360000.000000
121505000.000000,108360000.000000
121447597.000000,108348582.000000
121398934.000000,108316066.000000
121366418.000000,108267403.000000
121355000.000000,108210000.000000
Z" /> 
<path style="fill:#000000; fill-opacity:1.0; 
stroke:#000000; stroke-width:1.000000; stroke-opacity:1; 
stroke-linecap:round; stroke-linejoin:round;fill-rule:evenodd;"
d="M 121355000.000000,106640000.000000
121366418.000000,106582597.000000
121398934.000000,106533934.000000
121447597.000000,106501418.000000
121505000.000000,106490000.000000
123255000.000000,106490000.000000
123312403.000000,106501418.000000
123361066.000000,106533934.000000
123393582.000000,106582597.000000
123405000.000000,106640000.000000
123405000.000000,106940000.000000
123393582.000000,106997403.000000
123361066.000000,107046066.000000
123312403.000000,107078582.000000
123255000.000000,107090000.000000
121505000.000000,107090000.000000
121447597.000000,107078582.000000
121398934.000000,107046066.000000
121366418.000000,106997403.000000
121355000.000000,106940000.000000
Z" /> 
<path style="fill:#000000; fill-opacity:1.0; 
stroke:#000000; stroke-width:1.000000; stroke-opacity:1; 
stroke-linecap:round; stroke-linejoin:round;fill-rule:evenodd;"
d="M 121355000.000000,105370000.000000
121366418.000000,105312597.000000
121398934.000000,105263934.000000
121447597.000000,105231418.000000
121505000.000000,105220000.000000
123255000.000000,105220000.000000
123312403.000000,105231418.000000
123361066.000000,105263934.000000
123393582.000000,105312597.000000
123405000.000000,105370000.000000
123405000.000000,105670000.000000
123393582.000000,105727403.000000
123361066.000000,105776066.000000
123312403.000000,105808582.000000
123255000.000000,105820000.000000
121505000.000000,105820000.000000
121447597.000000,105808582.000000
121398934.000000,105776066.000000
121366418.000000,105727403.000000
121355000.000000,105670000.000000
Z" /> 
<path style="fill:#000000; fill-opacity:1.0; 
stroke:#000000; stroke-width:1.000000; stroke-opacity:1; 
stroke-linecap:round; stroke-linejoin:round;fill-rule:evenodd;"
d="M 121355000.000000,104100000.000000
121366418.000000,104042597.000000
121398934.000000,103993934.000000
121447597.000000,103961418.000000
121505000.000000,103950000.000000
123255000.000000,103950000.000000
123312403.000000,103961418.000000
123361066.000000,103993934.000000
123393582.000000,104042597.000000
123405000.000000,104100000.000000
123405000.000000,104400000.000000
123393582.000000,104457403.000000
123361066.000000,104506066.000000
123312403.000000,104538582.000000
123255000.000000,104550000.000000
121505000.000000,104550000.000000
121447597.000000,104538582.000000
121398934.000000,104506066.000000
121366418.000000,104457403.000000
121355000.000000,104400000.000000
Z" /> 
</g>
<g >
</g>
<g style="fill:#000000; fill-opacity:1.0; 
stroke:#000000; stroke-width:1.000000; stroke-opacity:1; 
stroke-linecap:round; stroke-linejoin:round;">
<path style="fill:#000000; fill-opacity:1.0; 
stroke:#000000; stroke-width:1.000000; stroke-opacity:1; 
stroke-linecap:round; stroke-linejoin:round;fill-rule:evenodd;"
d="M 109181999.000000,66999999.000000
107482001.000000,66999999.000000
107482001.000000,65300001.000000
109181999.000000,65300001.000000
Z" /> 
<circle cx="110872000.000000" cy="66150000.000000" r="850000.000000" /> 
<circle cx="113412000.000000" cy="66150000.000000" r="850000.000000" /> 
</g>
<g >
</g>
<g style="fill:#000000; fill-opacity:1.0; 
stroke:#000000; stroke-width:1.000000; stroke-opacity:1; 
stroke-linecap:round; stroke-linejoin:round;">
<path style="fill:#000000; fill-opacity:1.0; 
stroke:#000000; stroke-width:1.000000; stroke-opacity:1; 
stroke-linecap:round; stroke-linejoin:round;fill-rule:evenodd;"
d="M 182608001.000000,49850001.000000
184407999.000000,49850001.000000
184407999.000000,51649999.000000
182608001.000000,51649999.000000
Z" /> 
<circle cx="183508000.000000" cy="53290000.000000" r="900000.000000" /> 
</g>
<g style="fill:#000000; fill-opacity:1.0; 
stroke:#000000; stroke-width:21200.000000; stroke-opacity:1; 
stroke-linecap:round; stroke-linejoin:round;">
</g>
<g >
</g>
<g style="fill:#000000; fill-opacity:1.0; 
stroke:#000000; stroke-width:21200.000000; stroke-opacity:1; 
stroke-linecap:round; stroke-linejoin:round;">
</g>
<g style="fill:#000000; fill-opacity:1.0; 
stroke:#000000; stroke-width:1.000000; stroke-opacity:1; 
stroke-linecap:round; stroke-linejoin:round;">
<circle cx="208147056.000000" cy="53947056.000000" r="400000.000000" /> 
</g>
<g style="fill:#000000; fill-opacity:1.0; 
stroke:#000000; stroke-width:21200.000000; stroke-opacity:1; 
stroke-linecap:round; stroke-linejoin:round;">
</g>
<g style="fill:#000000; fill-opacity:1.0; 
stroke:#000000; stroke-width:1.000000; stroke-opacity:1; 
stroke-linecap:round; stroke-linejoin:round;">
<circle cx="206450000.000000" cy="52250000.000000" r="3200000.000000" /> 
</g>
<g style="fill:#000000; fill-opacity:1.0; 
stroke:#000000; stroke-width:21200.000000; stroke-opacity:1; 
stroke-linecap:round; stroke-linejoin:round;">
</g>
<g style="fill:#000000; fill-opacity:1.0; 
stroke:#000000; stroke-width:1.000000; stroke-opacity:1; 
stroke-linecap:round; stroke-linejoin:round;">
<circle cx="206450000.000000" cy="54650000.000000" r="400000.000000" /> 
</g>
<g style="fill:#000000; fill-opacity:1.0; 
stroke:#000000; stroke-width:21200.000000; stroke-opacity:1; 
stroke-linecap:round; stroke-linejoin:round;">
</g>
<g style="fill:#000000; fill-opacity:1.0; 
stroke:#000000; stroke-width:1.000000; stroke-opacity:1; 
stroke-linecap:round; stroke-linejoin:round;">
<circle cx="208147056.000000" cy="50552944.000000" r="400000.000000" /> 
</g>
<g style="fill:#000000; fill-opacity:1.0; 
stroke:#000000; stroke-width:21200.000000; stroke-opacity:1; 
stroke-linecap:round; stroke-linejoin:round;">
</g>
<g style="fill:#000000; fill-opacity:1.0; 
stroke:#000000; stroke-width:1.000000; stroke-opacity:1; 
stroke-linecap:round; stroke-linejoin:round;">
<circle cx="206450000.000000" cy="49850000.000000" r="400000.000000" /> 
</g>
<g style="fill:#000000; fill-opacity:1.0; 
stroke:#000000; stroke-width:21200.000000; stroke-opacity:1; 
stroke-linecap:round; stroke-linejoin:round;">
</g>
<g style="fill:#000000; fill-opacity:1.0; 
stroke:#000000; stroke-width:1.000000; stroke-opacity:1; 
stroke-linecap:round; stroke-linejoin:round;">
<circle cx="208850000.000000" cy="52250000.000000" r="400000.000000" /> 
</g>
<g style="fill:#000000; fill-opacity:1.0; 
stroke:#000000; stroke-width:21200.000000; stroke-opacity:1; 
stroke-linecap:round; stroke-linejoin:round;">
</g>
<g style="fill:#000000; fill-opacity:1.0; 
stroke:#000000; stroke-width:1.000000; stroke-opacity:1; 
stroke-linecap:round; stroke-linejoin:round;">
<circle cx="204050000.000000" cy="52250000.000000" r="400000.000000" /> 
</g>
<g style="fill:#000000; fill-opacity:1.0; 
stroke:#000000; stroke-width:21200.000000; stroke-opacity:1; 
stroke-linecap:round; stroke-linejoin:round;">
</g>
<g style="fill:#000000; fill-opacity:1.0; 
stroke:#000000; stroke-width:1.000000; stroke-opacity:1; 
stroke-linecap:round; stroke-linejoin:round;">
<circle cx="204752944.000000" cy="53947056.000000" r="400000.000000" /> 
</g>
<g style="fill:#000000; fill-opacity:1.0; 
stroke:#000000; stroke-width:21200.000000; stroke-opacity:1; 
stroke-linecap:round; stroke-linejoin:round;">
</g>
<g style="fill:#000000; fill-opacity:1.0; 
stroke:#000000; stroke-width:1.000000; stroke-opacity:1; 
stroke-linecap:round; stroke-linejoin:round;">
<circle cx="204752944.000000" cy="50552944.000000" r="400000.000000" /> 
</g>
<g style="fill:#000000; fill-opacity:1.0; 
stroke:#000000; stroke-width:21200.000000; stroke-opacity:1; 
stroke-linecap:round; stroke-linejoin:round;">
</g>
<g >
</g>
<g style="fill:#000000; fill-opacity:1.0; 
stroke:#000000; stroke-width:21200.000000; stroke-opacity:1; 
stroke-linecap:round; stroke-linejoin:round;">
</g>
<g style="fill:#000000; fill-opacity:1.0; 
stroke:#000000; stroke-width:1.000000; stroke-opacity:1; 
stroke-linecap:round; stroke-linejoin:round;">
<path style="fill:#000000; fill-opacity:1.0; 
stroke:#000000; stroke-width:1.000000; stroke-opacity:1; 
stroke-linecap:round; stroke-linejoin:round;fill-rule:evenodd;"
d="M 173700000.000000,100025000.000000
173719030.000000,99929329.000000
173773223.000000,99848223.000000
173854329.000000,99794030.000000
173950000.000000,99775000.000000
175150000.000000,99775000.000000
175245671.000000,99794030.000000
175326777.000000,99848223.000000
175380970.000000,99929329.000000
175400000.000000,100025000.000000
175400000.000000,101475000.000000
175380970.000000,101570671.000000
175326777.000000,101651777.000000
175245671.000000,101705970.000000
175150000.000000,101725000.000000
173950000.000000,101725000.000000
173854329.000000,101705970.000000
173773223.000000,101651777.000000
173719030.000000,101570671.000000
173700000.000000,101475000.000000
Z" /> 
</g>
<g style="fill:#000000; fill-opacity:1.0; 
stroke:#000000; stroke-width:1700000.000000; stroke-opacity:1; 
stroke-linecap:round; stroke-linejoin:round;">
</g>
<g style="fill:#000000; fill-opacity:0.0; 
stroke:#000000; stroke-width:1700000.000000; stroke-opacity:1; 
stroke-linecap:round; stroke-linejoin:round;">
<path d="M177050000 100625000
L177050000 100875000
" />
<path d="M179550000 100625000
L179550000 100875000
" />
<path d="M182050000 100625000
L182050000 100875000
" />
<path d="M184550000 100625000
L184550000 100875000
" />
<path d="M187050000 100625000
L187050000 100875000
" />
</g>
<g >
</g>
<g style="fill:#000000; fill-opacity:0.0; 
stroke:#000000; stroke-width:1700000.000000; stroke-opacity:1; 
stroke-linecap:round; stroke-linejoin:round;">
</g>
<g style="fill:#000000; fill-opacity:0.0; 
stroke:#000000; stroke-width:1.000000; stroke-opacity:1; 
stroke-linecap:round; stroke-linejoin:round;">
</g>
<g style="fill:#000000; fill-opacity:1.0; 
stroke:#000000; stroke-width:1.000000; stroke-opacity:1; 
stroke-linecap:round; stroke-linejoin:round;">
<path style="fill:#000000; fill-opacity:1.0; 
stroke:#000000; stroke-width:1.000000; stroke-opacity:1; 
stroke-linecap:round; stroke-linejoin:round;fill-rule:evenodd;"
d="M 110983001.000000,83045999.000000
110983001.000000,81246001.000000
112782999.000000,81246001.000000
112782999.000000,83045999.000000
Z" /> 
<circle cx="114423000.000000" cy="82146000.000000" r="900000.000000" /> 
</g>
<g style="fill:#000000; fill-opacity:1.0; 
stroke:#000000; stroke-width:21200.000000; stroke-opacity:1; 
stroke-linecap:round; stroke-linejoin:round;">
</g>
<g >
</g>
<g style="fill:#000000; fill-opacity:1.0; 
stroke:#000000; stroke-width:21200.000000; stroke-opacity:1; 
stroke-linecap:round; stroke-linejoin:round;">
</g>
<g style="fill:#000000; fill-opacity:1.0; 
stroke:#000000; stroke-width:1.000000; stroke-opacity:1; 
stroke-linecap:round; stroke-linejoin:round;">
<circle cx="112100000.000000" cy="121900000.000000" r="400000.000000" /> 
</g>
<g style="fill:#000000; fill-opacity:1.0; 
stroke:#000000; stroke-width:21200.000000; stroke-opacity:1; 
stroke-linecap:round; stroke-linejoin:round;">
</g>
<g style="fill:#000000; fill-opacity:1.0; 
stroke:#000000; stroke-width:1.000000; stroke-opacity:1; 
stroke-linecap:round; stroke-linejoin:round;">
<circle cx="105100000.000000" cy="121800000.000000" r="400000.000000" /> 
</g>
<g style="fill:#000000; fill-opacity:1.0; 
stroke:#000000; stroke-width:21200.000000; stroke-opacity:1; 
stroke-linecap:round; stroke-linejoin:round;">
</g>
<g style="fill:#000000; fill-opacity:1.0; 
stroke:#000000; stroke-width:1.000000; stroke-opacity:1; 
stroke-linecap:round; stroke-linejoin:round;">
<circle cx="110600000.000000" cy="115200000.000000" r="400000.000000" /> 
</g>
<g style="fill:#000000; fill-opacity:1.0; 
stroke:#000000; stroke-width:21200.000000; stroke-opacity:1; 
stroke-linecap:round; stroke-linejoin:round;">
</g>
<g style="fill:#000000; fill-opacity:1.0; 
stroke:#000000; stroke-width:1.000000; stroke-opacity:1; 
stroke-linecap:round; stroke-linejoin:round;">
<circle cx="142700000.000000" cy="70300000.000000" r="400000.000000" /> 
</g>
<g style="fill:#000000; fill-opacity:1.0; 
stroke:#000000; stroke-width:21200.000000; stroke-opacity:1; 
stroke-linecap:round; stroke-linejoin:round;">
</g>
<g style="fill:#000000; fill-opacity:1.0; 
stroke:#000000; stroke-width:1.000000; stroke-opacity:1; 
stroke-linecap:round; stroke-linejoin:round;">
<circle cx="120350000.000000" cy="104250000.000000" r="400000.000000" /> 
</g>
<g style="fill:#000000; fill-opacity:1.0; 
stroke:#000000; stroke-width:21200.000000; stroke-opacity:1; 
stroke-linecap:round; stroke-linejoin:round;">
</g>
<g style="fill:#000000; fill-opacity:1.0; 
stroke:#000000; stroke-width:1.000000; stroke-opacity:1; 
stroke-linecap:round; stroke-linejoin:round;">
<circle cx="151400000.000000" cy="72300000.000000" r="400000.000000" /> 
</g>
<g style="fill:#000000; fill-opacity:1.0; 
stroke:#000000; stroke-width:21200.000000; stroke-opacity:1; 
stroke-linecap:round; stroke-linejoin:round;">
</g>
<g >
</g>
<g style="fill:#000000; fill-opacity:1.0; 
stroke:#000000; stroke-width:21200.000000; stroke-opacity:1; 
stroke-linecap:round; stroke-linejoin:round;">
</g>
<g style="fill:#000000; fill-opacity:1.0; 
stroke:#000000; stroke-width:250000.000000; stroke-opacity:1; 
stroke-linecap:round; stroke-linejoin:round;">
</g>
<g style="fill:#000000; fill-opacity:0.0; 
stroke:#000000; stroke-width:250000.000000; stroke-opacity:1; 
stroke-linecap:round; stroke-linejoin:round;">
<path d="M109135000 116665000
L109135000 117530000
" />
<path d="M111530000 122470000
L112100000 121900000
" />
<path d="M106595000 122470000
L105770000 122470000
" />
<path d="M110405000 122470000
L111530000 122470000
" />
<path d="M110600000 115200000
L111390000 114410000
" />
<path d="M110600000 115200000
L109135000 116665000
" />
<path d="M111390000 114410000
L113080000 114410000
" />
<path d="M105770000 122470000
L105100000 121800000
" />
<path d="M116211000 54674000
L116211000 58271000
" />
<path d="M133200000 50750000
L136200000 53750000
" />
<path d="M121700000 50750000
L133200000 50750000
" />
<path d="M136200000 83340000
L140600000 87740000
" />
<path d="M117776000 54674000
L121700000 50750000
" />
<path d="M116211000 54674000
L117776000 54674000
" />
<path d="M116211000 58271000
L108332000 66150000
" />
<path d="M136200000 53750000
L136200000 83340000
" />
<path d="M149739000 54674000
L149739000 73211000
" />
<path d="M149739000 73211000
L149739000 83681000
" />
<path d="M149739000 83681000
L140600000 92820000
" />
<path d="M149683000 73211000
L149739000 73211000
" />
<path d="M142622000 66150000
L149683000 73211000
" />
<path d="M132975000 54674000
L132975000 73475000
" />
<path d="M132975000 73267000
L132975000 73475000
" />
<path d="M132975000 87735000
L140600000 95360000
" />
<path d="M125858000 66150000
L132975000 73267000
" />
<path d="M132975000 73475000
L132975000 87735000
" />
<path d="M136018000 105520000
L140600000 105520000
" />
<path d="M132716000 108822000
L136018000 105520000
" />
<path d="M126112000 108822000
L132716000 108822000
" />
<path d="M124080000 106790000
L126112000 108822000
" />
<path d="M122380000 106790000
L124080000 106790000
" />
<path d="M132970000 109330000
L122810000 109330000
" />
<path d="M134240000 108060000
L132970000 109330000
" />
<path d="M140600000 108060000
L134240000 108060000
" />
<path d="M117730000 109330000
L119000000 108060000
" />
<path d="M125350000 119490000
L120270000 119490000
" />
<path d="M119000000 108060000
L122380000 108060000
" />
<path d="M120270000 119490000
L117730000 116950000
" />
<path d="M134240000 110600000
L125350000 119490000
" />
<path d="M140600000 110600000
L134240000 110600000
" />
<path d="M117730000 116950000
L117730000 109330000
" />
<path d="M122829520 110150480
L139261520 110150480
" />
<path d="M122380000 110600000
L122829520 110150480
" />
<path d="M139261520 110150480
L140082000 109330000
" />
<path d="M140082000 109330000
L154570000 109330000
" />
<path d="M154570000 109330000
L155840000 110600000
" />
<path d="M173874000 121014000
L155840000 102980000
" />
<path d="M203374000 121014000
L173874000 121014000
" />
<path d="M155840000 100440000
L155840000 101340000
" />
<path d="M174050000 119550000
L174750000 119550000
" />
<path d="M155840000 101340000
L174050000 119550000
" />
<path d="M199758000 119550000
L203374000 115934000
" />
<path d="M174750000 119550000
L199758000 119550000
" />
<path d="M203374000 113176000
L198550000 118000000
" />
<path d="M175940000 118000000
L178200000 118000000
" />
<path d="M198550000 118000000
L178200000 118000000
" />
<path d="M155840000 97900000
L175940000 118000000
" />
<path d="M203374000 110854000
L203374000 113176000
" />
<path d="M173150000 112670000
L173150000 114350000
" />
<path d="M200450000 108698000
L203374000 105774000
" />
<path d="M175150000 116350000
L197100000 116350000
" />
<path d="M173150000 114350000
L175150000 116350000
" />
<path d="M155840000 95360000
L173150000 112670000
" />
<path d="M197100000 116350000
L200450000 113000000
" />
<path d="M200450000 113000000
L200450000 108698000
" />
<path d="M180750480 114549520
L179063498 114549520
" />
<path d="M174120000 92820000
L155840000 92820000
" />
<path d="M154300000 91280000
L154300000 89850000
" />
<path d="M178224520 113710542
L178224520 100275480
" />
<path d="M155840000 92820000
L154300000 91280000
" />
<path d="M183725000 115050000
L196300000 115050000
" />
<path d="M155285489 88864511
L169691489 88864511
" />
<path d="M180750480 99450480
L182050000 100750000
" />
<path d="M179063498 114549520
L178224520 113710542
" />
<path d="M179049520 99450480
L180750480 99450480
" />
<path d="M198900000 105168000
L198900000 112450000
" />
<path d="M182050000 113250000
L180750480 114549520
" />
<path d="M182050000 100750000
L174120000 92820000
" />
<path d="M154300000 89850000
L155285489 88864511
" />
<path d="M182050000 113375000
L183725000 115050000
" />
<path d="M198900000 112450000
L196300000 115050000
" />
<path d="M169691489 88864511
L181230000 77326000
" />
<path d="M182050000 113250000
L182050000 113375000
" />
<path d="M178224520 100275480
L179049520 99450480
" />
<path d="M203374000 100694000
L198900000 105168000
" />
<path d="M179550000 113250000
L179550000 111650000
" />
<path d="M179550000 111650000
L180050000 111150000
" />
<path d="M197450000 107750000
L197450000 101538000
" />
<path d="M194050000 111150000
L197450000 107750000
" />
<path d="M185724520 99524520
L176480000 90280000
" />
<path d="M197450000 101538000
L203374000 95614000
" />
<path d="M179550000 100750000
L180849520 102049520
" />
<path d="M170420000 90280000
L170816000 90280000
" />
<path d="M180050000 111150000
L194050000 111150000
" />
<path d="M170816000 90280000
L183770000 77326000
" />
<path d="M176480000 90280000
L170420000 90280000
" />
<path d="M185350480 102049520
L185724520 101675480
" />
<path d="M185724520 101675480
L185724520 99524520
" />
<path d="M155840000 90280000
L170420000 90280000
" />
<path d="M180849520 102049520
L185350480 102049520
" />
<path d="M179550000 113250000
L179550000 100750000
" />
<path d="M162700000 74600000
L161750000 75550000
" />
<path d="M159260000 87740000
L155840000 87740000
" />
<path d="M203374000 90534000
L194550000 81710000
" />
<path d="M161750000 85250000
L159260000 87740000
" />
<path d="M161750000 75550000
L161750000 85250000
" />
<path d="M192250000 74600000
L162700000 74600000
" />
<path d="M194550000 76900000
L192250000 74600000
" />
<path d="M194550000 81710000
L194550000 76900000
" />
<path d="M195800000 81150000
L200104000 85454000
" />
<path d="M155840000 85200000
L158950000 85200000
" />
<path d="M160000000 84150000
L160000000 75000000
" />
<path d="M158950000 85200000
L160000000 84150000
" />
<path d="M160000000 75000000
L161600000 73400000
" />
<path d="M192750000 73400000
L195800000 76450000
" />
<path d="M195800000 76450000
L195800000 81150000
" />
<path d="M200104000 85454000
L203374000 85454000
" />
<path d="M161600000 73400000
L192750000 73400000
" />
</g>
<g style="fill:#000000; fill-opacity:0.0; 
stroke:#000000; stroke-width:500000.000000; stroke-opacity:1; 
stroke-linecap:round; stroke-linejoin:round;">
<path d="M123400000 120705113
L131849999 120705113
" />
<path d="M99644888 116300000
L99644888 114755112
" />
<path d="M118364519 120064519
L119005113 120705113
" />
<path d="M105764519 120064519
L106964519 120064519
" />
<path d="M108764519 120064519
L118364519 120064519
" />
<path d="M131849999 120705113
L132400000 120155112
" />
<path d="M103409407 120064519
L105764519 120064519
" />
<path d="M106964519 120064519
L108764519 120064519
" />
<path d="M107865000 117530000
L107865000 118156114
" />
<path d="M101800000 112600000
L104394888 112600000
" />
<path d="M99644888 114755112
L101800000 112600000
" />
<path d="M119005113 120705113
L123400000 120705113
" />
<path d="M99644888 116300000
L103409407 120064519
" />
<path d="M107865000 118156114
L105956595 120064519
" />
<path d="M105956595 120064519
L105764519 120064519
" />
<path d="M120350000 104250000
L122380000 104250000
" />
<path d="M144659000 54674000
L144659000 65647000
" />
<path d="M144659000 65647000
L145162000 66150000
" />
</g>
<g style="fill:#000000; fill-opacity:0.0; 
stroke:#000000; stroke-width:1250000.000000; stroke-opacity:1; 
stroke-linecap:round; stroke-linejoin:round;">
<path d="M156338000 66767773
L156338000 66150000
" />
<path d="M170450000 60050000
L160550000 60050000
" />
<path d="M173050000 54550000
L173050000 57450000
" />
<path d="M156338000 64262000
L156338000 66150000
" />
<path d="M158194747 68624520
L156338000 66767773
" />
<path d="M167855621 67674000
L166905101 68624520
" />
<path d="M173050000 57450000
L170450000 60050000
" />
<path d="M160550000 60050000
L156338000 64262000
" />
<path d="M166905101 68624520
L158194747 68624520
" />
</g>
<g style="fill:#000000; fill-opacity:0.0; 
stroke:#000000; stroke-width:250000.000000; stroke-opacity:1; 
stroke-linecap:round; stroke-linejoin:round;">
<path d="M119503000 74278000
L114423000 74278000
" />
<path d="M119503000 82406000
L114683000 82406000
" />
<path d="M114683000 82406000
L114423000 82146000
" />
<path d="M183550000 57470000
L183550000 53332000
" />
<path d="M183550000 53332000
L183508000 53290000
" />
<path d="M121794000 125840000
L127128000 131174000
" />
<path d="M118746000 125840000
L121794000 125840000
" />
<path d="M130430000 106790000
L129160000 105520000
" />
<path d="M129160000 105520000
L122380000 105520000
" />
<path d="M117222000 116442000
L116564000 117100000
" />
<path d="M113506072 104250000
L117222000 107965928
" />
<path d="M113080000 104250000
L113506072 104250000
" />
<path d="M117222000 107965928
L117222000 116442000
" />
<path d="M116564000 117100000
L110835000 117100000
" />
<path d="M110835000 117100000
L110405000 117530000
" />
<path d="M113080000 105520000
L113506072 105520000
" />
<path d="M113506072 105520000
L116460000 108473928
" />
<path d="M106595000 117080663
L109890183 113785480
" />
<path d="M106595000 117530000
L106595000 117080663
" />
<path d="M109890183 113785480
L114414520 113785480
" />
<path d="M116460000 111740000
L116460000 108473928
" />
<path d="M114414520 113785480
L116460000 111740000
" />
<path d="M109851000 125840000
L116206000 125840000
" />
<path d="M129160000 131615700
L121098300 123554000
" />
<path d="M121098300 123554000
L116714000 123554000
" />
<path d="M129160000 132698000
L129160000 131615700
" />
<path d="M110867000 137062000
L124796000 137062000
" />
<path d="M116714000 123554000
L116206000 124062000
" />
<path d="M124796000 137062000
L129160000 132698000
" />
<path d="M109135000 122470000
L109135000 125124000
" />
<path d="M109135000 125124000
L109851000 125840000
" />
<path d="M116206000 124062000
L116206000 125840000
" />
<path d="M107865000 122470000
L107311000 123024000
" />
<path d="M116968000 131174000
L112645000 131174000
" />
<path d="M112645000 131174000
L107311000 125840000
" />
<path d="M105787000 127364000
L107311000 125840000
" />
<path d="M105787000 137062000
L105787000 127364000
" />
<path d="M107311000 123024000
L107311000 125840000
" />
<path d="M123088888 93557112
L121286000 95360000
" />
<path d="M123088888 93557112
L123088888 90788000
" />
<path d="M110872000 99678000
L108586000 101964000
" />
<path d="M122048000 98662000
L121032000 99678000
" />
<path d="M108586000 110346000
L110110000 111870000
" />
<path d="M121286000 95360000
L122048000 96122000
" />
<path d="M115190000 97138000
L116968000 95360000
" />
<path d="M121032000 99678000
L110872000 99678000
" />
<path d="M122048000 96122000
L122048000 98662000
" />
<path d="M116968000 95360000
L121286000 95360000
" />
<path d="M108586000 101964000
L108586000 110346000
" />
<path d="M110110000 111870000
L113080000 111870000
" />
<path d="M114896000 91042000
L114896000 94384000
" />
<path d="M107824000 110854000
L110110000 113140000
" />
<path d="M118292000 98916000
L110364000 98916000
" />
<path d="M107824000 101456000
L107824000 110854000
" />
<path d="M120070000 97138000
L118292000 98916000
" />
<path d="M110364000 98916000
L114896000 94384000
" />
<path d="M110364000 98916000
L107824000 101456000
" />
<path d="M110110000 113140000
L113080000 113140000
" />
</g>
<g style="fill:#000000; fill-opacity:0.0; 
stroke:#000000; stroke-width:1250000.000000; stroke-opacity:1; 
stroke-linecap:round; stroke-linejoin:round;">
<path d="M161423000 54550000
L167970000 54550000
" />
</g>
<g >
</g>
</g> 
</svg>
